SplineFontDB: 3.0
FontName: PunkNova-Bold
FullName: Punk Nova Bold
FamilyName: Punk Nova
Weight: Medium
Copyright: Unlimited copying and redistribution of this file are permitted as long as this file is not modified. Modifications are permitted, but only if the resulting file is not named punknova.otf and the (internal) fontname differs from 'Punk Nova'.
UComments: "2010-7-16: Created." 
Version: 001.000
ItalicAngle: 0
UnderlinePosition: -100
UnderlineWidth: 50
Ascent: 800
Descent: 200
LayerCount: 2
Layer: 0 0 "Back"  1
Layer: 1 0 "Fore"  0
NeedsXUIDChange: 1
XUID: [1021 841 60841094 47885]
OS2Version: 0
OS2_WeightWidthSlopeOnly: 0
OS2_UseTypoMetrics: 1
CreationTime: 1279268929
ModificationTime: 1279268955
OS2TypoAscent: 0
OS2TypoAOffset: 1
OS2TypoDescent: 0
OS2TypoDOffset: 1
OS2TypoLinegap: 0
OS2WinAscent: 0
OS2WinAOffset: 1
OS2WinDescent: 0
OS2WinDOffset: 1
HheadAscent: 0
HheadAOffset: 1
HheadDescent: 0
HheadDOffset: 1
OS2Vendor: 'PfEd'
Lookup: 3 0 0 "Randomize lookup"  {"Randomize subtable"  } ['rand' ('DFLT' <'dflt' > 'grek' <'dflt' > 'latn' <'dflt' > ) ]
Lookup: 258 0 0 "Kern lookup"  {"Kern subtable"  } ['kern' ('DFLT' <'dflt' > 'grek' <'dflt' > 'latn' <'dflt' > ) ]
DEI: 91125
Encoding: UnicodeBmp
UnicodeInterp: none
NameList: Adobe Glyph List
DisplaySize: -24
AntiAlias: 1
FitToEm: 1
BeginChars: 67541 2150

StartChar: P
Encoding: 80 80 0
Width: 499
VWidth: 0
Flags: W
VStem: 114 101<500 575> 121 97<500 575>
LayerCount: 2
Fore
SplineSet
215 500 m 1x80
 308 547 l 1
 218 575 l 1x40
 215 500 l 1x80
225 4 m 1
 200 -57 l 1
 140 -81 l 1
 80 -57 l 1
 55 4 l 1
 80 64 l 1
 93 70 l 1
 106 321 l 1
 55 342 l 1
 30 402 l 1
 55 462 l 1
 114 487 l 1x80
 121 634 l 2
 122 656 146 674 173 673 c 0
 178 673 188 670 189 670 c 2
 436 593 l 2
 461 585 475 561 465 541 c 0
 461 533 449 524 445 522 c 2
 210 403 l 1
 193 67 l 1
 200 64 l 1
 225 4 l 1
EndSplineSet
AlternateSubs2: "Randomize subtable" P.1 P.2 P.3 P.4 P.5 P.6 P.7 P.8 P.9 P.10 P.11 P.12 P.13 P.14 P.15
EndChar

StartChar: semicolon
Encoding: 59 59 1
Width: 256
VWidth: 0
Flags: W
VStem: 35 186
LayerCount: 2
Fore
SplineSet
221 258 m 1
 196 198 l 1
 136 173 l 1
 76 198 l 1
 51 258 l 1
 76 318 l 1
 136 343 l 1
 196 318 l 1
 221 258 l 1
205 -205 m 1
 180 -265 l 1
 120 -290 l 1
 60 -265 l 1
 35 -205 l 1
 60 -145 l 1
 91 -132 l 1
 100 -101 l 1
 61 -85 l 1
 36 -24 l 1
 61 36 l 1
 121 61 l 1
 182 36 l 1
 206 -24 l 1
 195 -52 l 1
 202 -63 l 2
 207 -72 209 -82 206 -91 c 2
 186 -159 l 1
 205 -205 l 1
EndSplineSet
AlternateSubs2: "Randomize subtable" semicolon.1 semicolon.2 semicolon.3 semicolon.4 semicolon.5 semicolon.6 semicolon.7
EndChar

StartChar: comma
Encoding: 44 44 2
Width: 256
VWidth: 0
Flags: W
VStem: 37 182
LayerCount: 2
Fore
SplineSet
219 -210 m 1
 194 -270 l 1
 134 -295 l 1
 74 -270 l 1
 49 -210 l 1
 74 -150 l 1
 92 -143 l 1
 99 -83 l 1
 96 -73 l 1
 62 -59 l 1
 37 1 l 1
 62 61 l 1
 122 86 l 1
 182 61 l 1
 207 1 l 1
 189 -42 l 1
 198 -68 l 2
 200 -73 201 -79 200 -83 c 2
 192 -149 l 1
 194 -150 l 1
 219 -210 l 1
EndSplineSet
AlternateSubs2: "Randomize subtable" comma.1 comma.2 comma.3 comma.4 comma.5 comma.6 comma.7
EndChar

StartChar: nine
Encoding: 57 57 3
Width: 388
VWidth: 0
Flags: W
LayerCount: 2
Fore
SplineSet
188 354 m 1
 235 491 l 2
 268 587 256 659 222 672 c 0
 214 675 208 675 203 674 c 0
 175 670 110 596 138 480 c 0
 149 435 165 393 188 354 c 1
289 253 m 1
 264 192 l 1
 236 181 l 1
 186 8 l 1
 206 -41 l 1
 181 -101 l 1
 121 -126 l 1
 61 -101 l 1
 36 -41 l 1
 61 19 l 1
 89 31 l 1
 140 202 l 1
 119 253 l 1
 127 273 l 1
 85 331 57 396 40 465 c 0
 10 592 59 734 185 753 c 0
 212 757 240 754 265 744 c 0
 390 696 362 556 331 469 c 1
 272 293 l 1
 289 253 l 1
EndSplineSet
AlternateSubs2: "Randomize subtable" nine.1 nine.2 nine.3 nine.4 nine.5 nine.6 nine.7
EndChar

StartChar: dotlessi
Encoding: 305 305 4
Width: 265
VWidth: 0
Flags: W
HStem: 485 20G<67 163>
VStem: 65 100<25.8281 355>
LayerCount: 2
Fore
SplineSet
200 420 m 1
 175 360 l 1
 163 355 l 1
 163 331 163 306 165 282 c 0
 169 231 162 184 165 142 c 0
 168 102 173 63 182 24 c 1
 209 13 l 1
 234 -47 l 1
 209 -107 l 1
 149 -132 l 1
 89 -107 l 1
 64 -47 l 1
 85 3 l 1
 75 47 69 92 65 138 c 0
 61 189 68 236 65 278 c 0
 63 304 62 331 62 357 c 1
 55 360 l 1
 30 420 l 1
 55 480 l 1
 115 505 l 1
 175 480 l 1
 200 420 l 1
EndSplineSet
AlternateSubs2: "Randomize subtable" dotlessi.1 dotlessi.2 dotlessi.3 dotlessi.4 dotlessi.5 dotlessi.6 dotlessi.7 dotlessi.8 dotlessi.9 dotlessi.10 dotlessi.11 dotlessi.12 dotlessi.13 dotlessi.14 dotlessi.15 dotlessi.16 dotlessi.17 dotlessi.18 dotlessi.19 dotlessi.20 dotlessi.21 dotlessi.22 dotlessi.23 dotlessi.24 dotlessi.25 dotlessi.26 dotlessi.27 dotlessi.28 dotlessi.29 dotlessi.30 dotlessi.31
EndChar

StartChar: breve
Encoding: 728 728 5
Width: 388
VWidth: 0
Flags: W
HStem: 769 20G<70 166>
VStem: 33 322
LayerCount: 2
Fore
SplineSet
225 594 m 1
 210 600 l 1
 185 660 l 1
 178 643 l 1
 165 638 l 1
 173 613 193 594 213 589 c 0
 218 588 222 590 225 594 c 1
334 610 m 1
 328 546 261 490 179 513 c 0
 111 533 70 584 62 641 c 1
 58 643 l 1
 33 704 l 1
 58 764 l 1
 118 789 l 1
 178 764 l 1
 203 704 l 1
 210 721 l 1
 270 745 l 1
 330 721 l 1
 355 660 l 1
 334 610 l 1
EndSplineSet
AlternateSubs2: "Randomize subtable" breve.1 breve.2 breve.3 breve.4 breve.5 breve.6 breve.7
EndChar

StartChar: G
Encoding: 71 71 6
Width: 467
VWidth: 0
Flags: W
HStem: 461 21G<303 399> 675 80<202.509 288.226>
LayerCount: 2
Fore
SplineSet
431 0 m 1
 406 -60 l 1
 346 -85 l 1
 286 -60 l 1
 283 -54 l 1
 257 -59 l 2
 140 -82 79 -4 55 73 c 0
 29 158 29 270 37 378 c 0
 48 513 41 756 247 755 c 0
 351 754 411 676 413 602 c 1
 436 546 l 1
 411 486 l 1
 351 461 l 1
 291 486 l 1
 266 546 l 1
 291 607 l 1
 311 615 l 1
 303 653 272 675 246 675 c 0
 172 675 151 552 137 373 c 0
 134 340 133 306 133 274 c 1
 152 321 l 1
 212 345 l 1
 272 321 l 1
 283 294 l 1
 329 290 l 2
 354 288 371 270 373 253 c 2
 390 67 l 1
 406 60 l 1
 431 0 l 1
290 62 m 1
 277 212 l 1
 272 200 l 1
 212 175 l 1
 152 200 l 1
 133 246 l 1
 134 187 140 133 152 92 c 0
 173 22 198 12 233 19 c 2
 272 27 l 1
 286 60 l 1
 290 62 l 1
EndSplineSet
AlternateSubs2: "Randomize subtable" G.1 G.2 G.3 G.4 G.5 G.6 G.7 G.8 G.9 G.10 G.11 G.12 G.13 G.14 G.15
EndChar

StartChar: percent
Encoding: 37 37 7
Width: 601
VWidth: 0
Flags: W
HStem: 834 20G<115 211>
LayerCount: 2
Fore
SplineSet
237 -80 m 1
 213 -140 l 1
 152 -165 l 1
 92 -140 l 1
 67 -80 l 1
 92 -20 l 1
 126 -6 l 1
 248 347 l 1
 231 331 208 320 180 315 c 0
 165 313 148 312 133 315 c 0
 -4 339 24 489 53 568 c 0
 71 617 87 665 100 716 c 1
 78 769 l 1
 103 829 l 1
 163 854 l 1
 223 829 l 1
 248 769 l 1
 241 752 l 1
 249 747 256 742 264 739 c 0
 307 722 364 731 399 786 c 1
 408 805 434 817 459 811 c 0
 463 810 467 809 470 807 c 0
 491 799 500 781 495 763 c 0
 494 762 l 2
 494 761 l 1
 372 406 l 1
 433 431 l 1
 493 406 l 1
 518 346 l 1
 504 312 l 1
 529 259 549 200 563 141 c 0
 589 34 558 -96 443 -113 c 0
 420 -116 396 -114 375 -106 c 0
 254 -61 299 73 331 147 c 0
 350 191 365 236 374 285 c 1
 372 286 l 1
 350 342 l 1
 220 -37 l 1
 237 -80 l 1
449 184 m 1
 442 163 434 142 425 121 c 0
 387 31 397 -27 417 -34 c 0
 422 -36 423 -35 424 -35 c 0
 435 -33 490 24 465 126 c 0
 460 145 455 165 449 184 c 1
170 605 m 1
 163 585 156 565 149 545 c 2
 140 517 l 1
 117 432 144 396 155 394 c 0
 158 394 158 393 159 393 c 0
 167 394 213 449 187 546 c 0
 182 566 176 585 170 605 c 1
355 658 m 1
 323 651 290 650 257 657 c 1
 267 626 277 595 285 563 c 0
 291 539 296 513 296 486 c 1
 355 658 l 1
EndSplineSet
AlternateSubs2: "Randomize subtable" percent.1 percent.2 percent.3 percent.4 percent.5 percent.6 percent.7
EndChar

StartChar: B
Encoding: 66 66 8
Width: 477
VWidth: 0
Flags: W
LayerCount: 2
Fore
SplineSet
73 388 m 0
 66 401 69 417 79 428 c 1
 69 584 l 1
 55 590 l 1
 30 650 l 1
 55 710 l 1
 115 735 l 1
 175 710 l 1
 200 651 l 1
 414 526 l 2
 443 509 442 468 404 456 c 2
 294 419 l 1
 378 377 435 297 444 204 c 0
 448 159 439 115 418 79 c 0
 382 14 306 -34 220 -35 c 1
 216 -44 l 1
 156 -68 l 1
 96 -44 l 1
 71 17 l 1
 96 77 l 1
 102 79 l 1
 83 377 l 1
 79 380 75 384 73 388 c 0
183 367 m 1
 202 83 l 1
 216 77 l 1
 229 46 l 1
 268 50 304 73 327 113 c 0
 341 137 347 166 344 198 c 0
 334 296 259 358 183 367 c 1
170 569 m 1
 177 467 l 1
 284 503 l 1
 170 569 l 1
EndSplineSet
AlternateSubs2: "Randomize subtable" B.1 B.2 B.3 B.4 B.5 B.6 B.7 B.8 B.9 B.10 B.11 B.12 B.13 B.14 B.15
EndChar

StartChar: quotedbl
Encoding: 34 34 9
Width: 435
VWidth: 0
Flags: W
LayerCount: 2
Fore
SplineSet
387 457 m 1
 362 397 l 1
 302 372 l 1
 242 397 l 1
 224 439 l 1
 201 383 l 1
 141 358 l 1
 81 383 l 1
 56 443 l 1
 81 504 l 1
 84 505 l 1
 73 612 l 1
 56 619 l 1
 31 679 l 1
 56 739 l 1
 116 764 l 1
 176 739 l 1
 201 679 l 1
 176 619 l 1
 173 618 l 1
 183 511 l 1
 201 504 l 1
 219 461 l 1
 242 517 l 1
 257 523 l 1
 264 619 l 1
 258 622 l 1
 234 682 l 1
 258 742 l 1
 319 767 l 1
 379 742 l 1
 404 682 l 1
 379 622 l 1
 363 616 l 1
 357 519 l 1
 362 517 l 1
 387 457 l 1
EndSplineSet
AlternateSubs2: "Randomize subtable" quotedbl.1 quotedbl.2 quotedbl.3 quotedbl.4 quotedbl.5 quotedbl.6 quotedbl.7
EndChar

StartChar: questiondown
Encoding: 191 191 10
Width: 302
VWidth: 0
Flags: W
HStem: 489 20G<66 162> 574 21G<108 204>
VStem: 52 219<-49.3763 83.3973>
LayerCount: 2
Fore
SplineSet
241 659 m 1
 216 599 l 1
 156 574 l 1
 96 599 l 1
 71 659 l 1
 96 719 l 1
 156 744 l 1
 216 719 l 1
 241 659 l 1
199 424 m 1
 174 363 l 1
 171 362 l 1
 193 267 255 171 271 57 c 0
 277 15 275 -50 212 -79 c 0
 204 -83 195 -85 185 -87 c 0
 108 -100 63 -50 52 -10 c 0
 44 20 48 64 80 93 c 1
 101 143 l 1
 140 159 l 1
 116 220 85 285 71 356 c 1
 54 363 l 1
 29 424 l 1
 54 484 l 1
 114 509 l 1
 174 484 l 1
 199 424 l 1
150 3 m 1
 154 -9 162 -9 163 -9 c 0
 164 -7 166 -4 168 1 c 1
 161 -2 l 1
 150 3 l 1
EndSplineSet
AlternateSubs2: "Randomize subtable" questiondown.1 questiondown.2 questiondown.3 questiondown.4 questiondown.5 questiondown.6 questiondown.7
EndChar

StartChar: slash
Encoding: 47 47 11
Width: 442
VWidth: 0
Flags: W
LayerCount: 2
Fore
SplineSet
413 692 m 1
 388 632 l 1
 356 619 l 1
 180 69 l 1
 199 23 l 1
 174 -37 l 1
 114 -62 l 1
 54 -37 l 1
 29 23 l 1
 54 83 l 1
 86 96 l 1
 262 646 l 1
 243 692 l 1
 268 752 l 1
 328 777 l 1
 388 752 l 1
 413 692 l 1
EndSplineSet
AlternateSubs2: "Randomize subtable" slash.1 slash.2 slash.3 slash.4 slash.5 slash.6 slash.7
EndChar

StartChar: bracketright
Encoding: 93 93 12
Width: 280
VWidth: 0
Flags: W
HStem: 595 21G<66 147>
VStem: 137 100<79 450> 147 101<283.091 609>
LayerCount: 2
Fore
SplineSet
220 -5 m 1xc0
 195 -65 l 1
 135 -90 l 1
 74 -65 l 1
 50 -5 l 1
 74 55 l 1
 135 80 l 1
 137 79 l 1xc0
 147 609 l 1
 114 595 l 1
 54 620 l 1
 29 680 l 1
 54 740 l 1
 114 765 l 1
 174 740 l 1
 178 729 l 1
 190 731 l 2
 223 735 248 712 248 691 c 2xa0
 237 50 l 2
 237 41 232 33 227 27 c 2
 213 12 l 1
 220 -5 l 1xc0
EndSplineSet
AlternateSubs2: "Randomize subtable" bracketright.1 bracketright.2 bracketright.3 bracketright.4 bracketright.5 bracketright.6 bracketright.7
EndChar

StartChar: underscore
Encoding: 95 95 13
Width: 536
VWidth: 0
Flags: W
HStem: -184 80<193 343>
LayerCount: 2
Fore
SplineSet
497 -142 m 1
 472 -202 l 1
 412 -227 l 1
 352 -202 l 1
 344 -182 l 1
 193 -184 l 1
 184 -204 l 1
 124 -229 l 1
 64 -204 l 1
 39 -144 l 1
 64 -84 l 1
 124 -59 l 1
 184 -84 l 1
 192 -104 l 1
 343 -102 l 1
 352 -82 l 1
 412 -57 l 1
 472 -82 l 1
 497 -142 l 1
EndSplineSet
AlternateSubs2: "Randomize subtable" underscore.1 underscore.2 underscore.3 underscore.4 underscore.5 underscore.6 underscore.7
EndChar

StartChar: N
Encoding: 78 78 14
Width: 470
VWidth: 0
Flags: W
HStem: 800 20G<306 402>
VStem: 64 100<86 356 734.25 758.569>
LayerCount: 2
Fore
SplineSet
439 735 m 1
 414 675 l 1
 400 669 l 1
 356 24 l 2
 355 7 339 -9 317 -13 c 0
 290 -18 263 -3 257 18 c 2
 162 356 l 1
 164 86 l 1
 175 82 l 1
 200 22 l 1
 175 -38 l 1
 115 -63 l 1
 55 -38 l 1
 30 22 l 1
 55 82 l 1
 64 86 l 1
 59 729 l 2
 59 751 82 769 109 769 c 0
 134 769 154 753 158 738 c 2
 276 318 l 1
 300 673 l 1
 294 675 l 1
 269 735 l 1
 294 795 l 1
 354 820 l 1
 414 795 l 1
 439 735 l 1
EndSplineSet
AlternateSubs2: "Randomize subtable" N.1 N.2 N.3 N.4 N.5 N.6 N.7 N.8 N.9 N.10 N.11 N.12 N.13 N.14 N.15
EndChar

StartChar: parenleft
Encoding: 40 40 15
Width: 340
VWidth: 0
Flags: W
VStem: 30 100<208.692 493.076>
LayerCount: 2
Fore
SplineSet
311 -7 m 1
 286 -67 l 1
 226 -92 l 1
 166 -67 l 1
 141 -7 l 1
 149 12 l 1
 70 111 28 233 30 359 c 0
 32 471 68 580 134 672 c 1
 125 693 l 1
 150 753 l 1
 210 778 l 1
 270 753 l 1
 295 693 l 1
 270 633 l 1
 210 608 l 1
 205 610 l 1
 158 536 131 448 130 358 c 0
 129 255 160 157 218 75 c 1
 226 78 l 1
 286 54 l 1
 311 -7 l 1
EndSplineSet
AlternateSubs2: "Randomize subtable" parenleft.1 parenleft.2 parenleft.3 parenleft.4 parenleft.5 parenleft.6 parenleft.7
EndChar

StartChar: i
Encoding: 105 105 16
Width: 232
VWidth: 0
Flags: W
HStem: 485 20G<68 164>
VStem: 66 100<16 356>
LayerCount: 2
Fore
SplineSet
201 420 m 1
 176 360 l 1
 166 356 l 1
 166 140 l 2
 166 99 165 57 165 16 c 1
 175 12 l 1
 200 -48 l 1
 175 -109 l 1
 115 -133 l 1
 55 -109 l 1
 30 -48 l 1
 55 12 l 1
 65 16 l 1
 65 57 66 99 66 140 c 2
 66 356 l 1
 56 360 l 1
 31 420 l 1
 56 480 l 1
 116 505 l 1
 176 480 l 1
 201 420 l 1
EndSplineSet
AlternateSubs2: "Randomize subtable" i.1 i.2 i.3 i.4 i.5 i.6 i.7 i.8 i.9 i.10 i.11 i.12 i.13 i.14 i.15 i.16 i.17 i.18 i.19 i.20 i.21 i.22 i.23 i.24 i.25 i.26 i.27 i.28 i.29 i.30 i.31
EndChar

StartChar: Omega
Encoding: 937 937 17
Width: 497
VWidth: 0
Flags: W
VStem: 60 100<227.636 603.803> 96 101<-1 201.438> 281 100<-7 154.235>
LayerCount: 2
Fore
SplineSet
456 -116 m 1xa0
 432 -176 l 1
 371 -201 l 1
 311 -176 l 1
 286 -116 l 1
 303 -75 l 1
 283 -25 l 2
 282 -22 281 -17 281 -13 c 0
 281 157 350 310 364 463 c 0
 376 593 314 679 266 682 c 0
 263 682 259 681 255 681 c 0
 208 676 162 603 160 492 c 0xa0
 156 312 197 128 197 -62 c 0
 197 -64 197 -65 197 -67 c 2
 201 -78 l 1
 176 -138 l 1
 116 -163 l 1
 56 -138 l 1
 31 -78 l 1
 56 -18 l 1
 96 -1 l 1x60
 89 161 57 323 60 493 c 0
 62 597 95 747 243 761 c 0
 253 762 263 762 273 761 c 0
 429 752 476 585 464 457 c 0
 448 292 383 141 381 -7 c 1
 394 -40 l 1
 432 -55 l 1
 456 -116 l 1xa0
EndSplineSet
AlternateSubs2: "Randomize subtable" Omega.1 Omega.2 Omega.3 Omega.4 Omega.5 Omega.6 Omega.7 Omega.8 Omega.9 Omega.10 Omega.11 Omega.12 Omega.13 Omega.14 Omega.15
EndChar

StartChar: braceleft
Encoding: 123 123 18
Width: 408
VWidth: 0
Flags: W
HStem: 769 20G<246 342>
VStem: 83 100<85.2154 217.304>
LayerCount: 2
Fore
SplineSet
358 10 m 1
 333 -50 l 1
 273 -75 l 1
 213 -50 l 1
 199 -17 l 1
 120 13 83 89 83 153 c 0
 83 193 96 233 126 267 c 1
 114 262 l 1
 54 287 l 1
 29 347 l 1
 54 407 l 1
 114 432 l 1
 144 420 l 1
 153 426 l 1
 66 509 83 645 180 710 c 0
 192 718 205 724 220 730 c 1
 234 764 l 1
 294 789 l 1
 354 764 l 1
 379 704 l 1
 354 644 l 1
 294 619 l 1
 236 643 l 1
 183 598 183 495 256 459 c 0
 279 448 286 423 272 404 c 0
 269 400 262 395 262 395 c 1
 197 351 l 1
 199 347 l 1
 198 345 l 1
 250 311 l 2
 271 297 275 272 258 255 c 0
 254 251 244 246 242 245 c 0
 204 229 183 194 183 153 c 0
 183 119 196 90 217 72 c 1
 273 95 l 1
 333 70 l 1
 358 10 l 1
EndSplineSet
AlternateSubs2: "Randomize subtable" braceleft.1 braceleft.2 braceleft.3 braceleft.4 braceleft.5 braceleft.6 braceleft.7
EndChar

StartChar: three
Encoding: 51 51 19
Width: 366
VWidth: 0
Flags: W
HStem: -14 80<184.337 221.246> 557 20G<131 192> 645 80<143.817 211.323>
LayerCount: 2
Fore
SplineSet
217 136 m 1
 192 76 l 1
 184 72 l 1
 188 68 192 66 196 66 c 0
 203 66 232 78 236 135 c 0
 237 153 236 173 230 192 c 0
 213 251 176 300 129 333 c 0
 108 347 105 379 132 395 c 0
 140 400 148 406 155 412 c 1
 144 407 l 1
 84 432 l 1
 59 492 l 1
 62 498 l 1
 37 527 29 564 32 596 c 0
 38 656 90 731 192 725 c 0
 197 725 201 724 206 723 c 0
 321 705 344 588 323 506 c 0
 309 451 276 400 233 362 c 1
 278 320 310 267 327 210 c 0
 335 183 338 156 336 130 c 0
 331 66 292 -19 190 -14 c 1
 129 -10 87 28 76 74 c 1
 72 76 l 1
 47 136 l 1
 72 196 l 1
 132 221 l 1
 192 196 l 1
 217 136 l 1
222 510 m 1
 223 514 224 518 225 522 c 0
 244 595 205 641 187 644 c 0
 186 644 185 645 184 645 c 0
 161 646 135 629 131 590 c 0
 130 584 130 578 131 572 c 1
 144 577 l 1
 204 552 l 1
 222 510 l 1
EndSplineSet
AlternateSubs2: "Randomize subtable" three.1 three.2 three.3 three.4 three.5 three.6 three.7
EndChar

StartChar: Xi
Encoding: 926 926 20
Width: 524
VWidth: 0
Flags: W
HStem: 489 20G<166 262 314 410> 772 20G<134 230 358 458>
LayerCount: 2
Fore
SplineSet
478 -30 m 1
 454 -90 l 1
 393 -115 l 1
 333 -90 l 1
 319 -56 l 1
 178 -28 l 1
 176 -34 l 1
 116 -59 l 1
 56 -34 l 1
 31 26 l 1
 56 86 l 1
 116 111 l 1
 176 86 l 1
 190 53 l 1
 331 24 l 1
 333 30 l 1
 393 55 l 1
 454 30 l 1
 478 -30 l 1
447 387 m 1
 422 327 l 1
 362 302 l 1
 302 327 l 1
 287 364 l 1
 275 367 l 1
 274 364 l 1
 214 339 l 1
 154 364 l 1
 129 424 l 1
 154 484 l 1
 214 509 l 1
 274 484 l 1
 289 448 l 1
 301 445 l 1
 302 447 l 1
 362 472 l 1
 422 447 l 1
 447 387 l 1
493 737 m 1
 468 677 l 1
 408 652 l 1
 348 677 l 1
 343 688 l 1
 254 677 l 1
 242 647 l 1
 182 622 l 1
 122 647 l 1
 97 707 l 1
 122 767 l 1
 182 792 l 1
 242 767 l 1
 246 757 l 1
 336 769 l 1
 348 798 l 1
 408 822 l 1
 468 798 l 1
 493 737 l 1
EndSplineSet
AlternateSubs2: "Randomize subtable" Xi.1 Xi.2 Xi.3 Xi.4 Xi.5 Xi.6 Xi.7 Xi.8 Xi.9 Xi.10 Xi.11 Xi.12 Xi.13 Xi.14 Xi.15
EndChar

StartChar: dieresis
Encoding: 168 168 21
Width: 393
VWidth: 0
Flags: W
HStem: 542 190 562 21G<226.2 323>
VStem: 34 326
LayerCount: 2
Fore
SplineSet
360 647 m 1xa0
 335 587 l 1
 275 562 l 1x60
 214 587 l 1
 201 620 l 1
 179 567 l 1
 119 542 l 1
 59 567 l 1
 34 627 l 1
 59 688 l 1
 119 712 l 1
 179 688 l 1
 193 654 l 1
 214 707 l 1
 275 732 l 1
 335 707 l 1
 360 647 l 1xa0
EndSplineSet
AlternateSubs2: "Randomize subtable" dieresis.1 dieresis.2 dieresis.3 dieresis.4 dieresis.5 dieresis.6 dieresis.7
EndChar

StartChar: acute
Encoding: 180 180 22
Width: 294
VWidth: 0
Flags: W
HStem: 529 260
VStem: 33 228
LayerCount: 2
Fore
SplineSet
203 614 m 1
 178 554 l 1
 118 529 l 1
 58 554 l 1
 33 614 l 1
 58 675 l 1
 97 690 l 1
 91 704 l 1
 116 764 l 1
 176 789 l 1
 236 764 l 1
 261 704 l 1
 236 644 l 1
 197 628 l 1
 203 614 l 1
EndSplineSet
AlternateSubs2: "Randomize subtable" acute.1 acute.2 acute.3 acute.4 acute.5 acute.6 acute.7
EndChar

StartChar: endash
Encoding: 8211 8211 23
Width: 462
VWidth: 0
Flags: W
HStem: 192 262
LayerCount: 2
Fore
SplineSet
429 277 m 1
 404 217 l 1
 344 192 l 1
 284 217 l 1
 264 265 l 1
 167 304 l 1
 118 284 l 1
 58 309 l 1
 33 369 l 1
 58 429 l 1
 118 454 l 1
 178 429 l 1
 198 381 l 1
 294 342 l 1
 344 362 l 1
 404 338 l 1
 429 277 l 1
EndSplineSet
AlternateSubs2: "Randomize subtable" endash.1 endash.2 endash.3 endash.4 endash.5 endash.6 endash.7
EndChar

StartChar: greater
Encoding: 62 62 24
Width: 367
VWidth: 0
Flags: W
HStem: -31 21G<67 163.8>
LayerCount: 2
Fore
SplineSet
200 54 m 1
 176 -6 l 1
 115 -31 l 1
 55 -6 l 1
 30 54 l 1
 55 114 l 1
 108 136 l 1
 232 348 l 1
 112 535 l 1
 55 559 l 1
 30 619 l 1
 55 680 l 1
 115 704 l 1
 175 680 l 1
 200 619 l 1
 189 592 l 1
 332 367 l 2
 339 356 338 341 333 332 c 2
 188 84 l 1
 200 54 l 1
EndSplineSet
AlternateSubs2: "Randomize subtable" greater.1 greater.2 greater.3 greater.4 greater.5 greater.6 greater.7
EndChar

StartChar: parenright
Encoding: 41 41 25
Width: 335
VWidth: 0
Flags: W
HStem: 580 21G<66 122>
VStem: 29 273
LayerCount: 2
Fore
SplineSet
228 8 m 1
 203 -52 l 1
 143 -77 l 1
 83 -52 l 1
 58 8 l 1
 83 69 l 1
 143 93 l 1
 144 93 l 1
 191 176 212 273 202 370 c 0
 194 448 166 521 122 583 c 1
 114 580 l 1
 54 605 l 1
 29 665 l 1
 54 725 l 1
 114 750 l 1
 174 725 l 1
 199 665 l 1
 191 647 l 1
 253 569 291 475 302 377 c 0
 315 256 285 134 218 32 c 1
 228 8 l 1
EndSplineSet
AlternateSubs2: "Randomize subtable" parenright.1 parenright.2 parenright.3 parenright.4 parenright.5 parenright.6 parenright.7
EndChar

StartChar: seven
Encoding: 55 55 26
Width: 379
VWidth: 0
Flags: W
HStem: 801 20G<67 163>
VStem: 113 100<141 329.088>
LayerCount: 2
Fore
SplineSet
247 76 m 1
 222 16 l 1
 162 -9 l 1
 101 16 l 1
 77 76 l 1
 101 136 l 1
 113 141 l 1
 121 325 161 505 233 675 c 1
 178 684 l 1
 175 676 l 1
 115 651 l 1
 55 676 l 1
 30 736 l 1
 55 796 l 1
 115 821 l 1
 175 796 l 1
 188 764 l 1
 309 743 l 2
 339 738 356 711 346 690 c 0
 267 517 221 330 213 140 c 1
 222 136 l 1
 247 76 l 1
EndSplineSet
AlternateSubs2: "Randomize subtable" seven.1 seven.2 seven.3 seven.4 seven.5 seven.6 seven.7
EndChar

StartChar: Oslash
Encoding: 216 216 27
Width: 499
VWidth: 0
Flags: W
HStem: 590 21G<271 299>
VStem: 353 98<756.308 803.226>
LayerCount: 2
Fore
SplineSet
239 40 m 1
 255 34 271 34 292 41 c 0
 366 65 375 186 350 334 c 0
 347 353 344 373 342 391 c 1
 239 40 l 1
112 24 m 1
 37 104 8 240 51 379 c 0
 83 481 135 575 204 657 c 1
 196 675 l 1
 221 735 l 1
 281 760 l 1
 340 736 l 1
 353 780 l 2
 359 799 382 813 408 810 c 0
 435 807 455 787 451 765 c 0
 426 626 425 484 449 345 c 0
 471 215 497 21 329 -34 c 0
 302 -43 274 -45 247 -43 c 1
 224 -99 l 1
 164 -124 l 1
 104 -99 l 1
 79 -39 l 1
 104 21 l 1
 112 24 l 1
271 594 m 1
 216 525 175 445 148 360 c 0
 120 268 129 181 159 120 c 1
 299 597 l 1
 281 590 l 1
 271 594 l 1
EndSplineSet
AlternateSubs2: "Randomize subtable" Oslash.1 Oslash.2 Oslash.3 Oslash.4 Oslash.5 Oslash.6 Oslash.7 Oslash.8 Oslash.9 Oslash.10 Oslash.11 Oslash.12 Oslash.13 Oslash.14 Oslash.15
EndChar

StartChar: Psi
Encoding: 936 936 28
Width: 557
VWidth: 0
Flags: W
HStem: 782 20G<242 342>
VStem: 244 106<489 652> 261 100<189 240.824> 264 100<45 106.969 189 274.625>
LayerCount: 2
Fore
SplineSet
526 535 m 1x90
 502 474 l 1
 475 463 l 1
 482 368 510 149 364 105 c 1
 366 45 l 1
 378 40 l 1
 403 -20 l 1
 378 -80 l 1
 318 -105 l 1
 258 -80 l 1
 233 -20 l 1
 258 40 l 1
 266 43 l 1
 264 101 l 1x90
 110 135 110 354 100 452 c 1
 56 470 l 1
 31 530 l 1
 56 590 l 1
 116 615 l 1
 176 590 l 1
 201 530 l 1
 197 521 l 1
 302 404 183 228 261 186 c 1xa0
 244 652 l 1
 232 657 l 1
 207 717 l 1
 232 778 l 1
 292 802 l 1
 352 778 l 1
 377 717 l 1
 352 657 l 1
 344 654 l 1
 350 489 l 1xc0
 354 498 358 507 364 516 c 1
 356 535 l 1
 381 595 l 1
 441 620 l 1
 502 595 l 1
 526 535 l 1x90
356 326 m 1
 361 189 l 1xa0
 394 211 373 264 356 326 c 1
EndSplineSet
AlternateSubs2: "Randomize subtable" Psi.1 Psi.2 Psi.3 Psi.4 Psi.5 Psi.6 Psi.7 Psi.8 Psi.9 Psi.10 Psi.11 Psi.12 Psi.13 Psi.14 Psi.15
EndChar

StartChar: ring
Encoding: 730 730 29
Width: 244
VWidth: 0
Flags: W
HStem: 422 248<80.9875 167.363>
VStem: 75 98<428.927 507.201>
LayerCount: 2
Fore
SplineSet
173 453 m 1
 172 448 169 443 165 439 c 0
 155 426 137 418 117 422 c 0
 112 423 107 424 103 426 c 0
 98 428 95 430 91 433 c 0
 83 439 77 445 75 453 c 1
 75 454 l 0
 65 490 -28 646 103 668 c 0
 110 669 117 670 124 670 c 0
 185 670 211 626 211 595 c 0
 211 549 185 498 173 454 c 1
 173 453 l 1
EndSplineSet
AlternateSubs2: "Randomize subtable" ring.1 ring.2 ring.3 ring.4 ring.5 ring.6 ring.7
EndChar

StartChar: less
Encoding: 60 60 30
Width: 381
VWidth: 0
Flags: W
LayerCount: 2
Fore
SplineSet
351 68 m 1
 326 8 l 1
 266 -17 l 1
 206 8 l 1
 181 68 l 1
 192 93 l 1
 36 320 l 2
 29 330 28 344 35 356 c 2
 180 601 l 1
 168 631 l 1
 193 691 l 1
 253 716 l 1
 314 691 l 1
 338 631 l 1
 314 571 l 1
 261 549 l 1
 136 340 l 1
 264 152 l 1
 266 153 l 1
 326 128 l 1
 351 68 l 1
EndSplineSet
AlternateSubs2: "Randomize subtable" less.1 less.2 less.3 less.4 less.5 less.6 less.7
EndChar

StartChar: bracketleft
Encoding: 91 91 31
Width: 256
VWidth: 0
Flags: W
HStem: 764 20G<94 190>
VStem: 31 102<418.889 618> 49 97<93 257.111>
LayerCount: 2
Fore
SplineSet
221 12 m 1xa0
 196 -48 l 1
 136 -73 l 1
 113 -63 l 1
 109 -64 104 -65 100 -65 c 0
 73 -65 50 -48 49 -26 c 2xa0
 31 702 l 2
 31 719 48 740 75 743 c 1
 82 759 l 1
 142 784 l 1
 202 759 l 1
 227 699 l 1
 202 639 l 1
 142 614 l 1
 133 618 l 1xc0
 146 93 l 1
 196 72 l 1
 221 12 l 1xa0
EndSplineSet
AlternateSubs2: "Randomize subtable" bracketleft.1 bracketleft.2 bracketleft.3 bracketleft.4 bracketleft.5 bracketleft.6 bracketleft.7
EndChar

StartChar: emdash
Encoding: 8212 8212 32
Width: 730
VWidth: 0
Flags: W
HStem: 222 211
LayerCount: 2
Fore
SplineSet
696 307 m 1
 671 247 l 1
 611 222 l 1
 551 247 l 1
 540 272 l 1
 185 302 l 1
 179 288 l 1
 119 263 l 1
 59 288 l 1
 34 348 l 1
 59 408 l 1
 119 433 l 1
 179 408 l 1
 190 383 l 1
 545 353 l 1
 551 367 l 1
 611 392 l 1
 671 367 l 1
 696 307 l 1
EndSplineSet
AlternateSubs2: "Randomize subtable" emdash.1 emdash.2 emdash.3 emdash.4 emdash.5 emdash.6 emdash.7
EndChar

StartChar: f
Encoding: 102 102 33
Width: 450
VWidth: 0
Flags: W
HStem: 328 78<172 225> 428 20G<286 382>
VStem: 72 100<89 165 312 330>
LayerCount: 2
Fore
SplineSet
419 363 m 1
 394 303 l 1
 383 298 l 1
 360 244 l 1
 317 226 l 1
 297 201 269 181 234 170 c 0
 211 163 189 161 168 165 c 1
 166 88 l 1
 175 84 l 1
 200 24 l 1
 175 -37 l 1
 115 -61 l 1
 55 -37 l 1
 30 24 l 1
 55 84 l 1
 66 89 l 1
 69 183 l 1
 59 187 l 1
 34 247 l 1
 59 307 l 1
 72 312 l 1
 73 372 l 2
 74 396 102 413 126 412 c 2
 267 406 l 1
 274 423 l 1
 334 448 l 1
 394 423 l 1
 419 363 l 1
230 267 m 1
 215 304 l 1
 225 328 l 1
 172 330 l 1
 172 310 l 1
 179 307 l 1
 204 247 l 1
 213 251 222 258 230 267 c 1
EndSplineSet
AlternateSubs2: "Randomize subtable" f.1 f.2 f.3 f.4 f.5 f.6 f.7 f.8 f.9 f.10 f.11 f.12 f.13 f.14 f.15 f.16 f.17 f.18 f.19 f.20 f.21 f.22 f.23 f.24 f.25 f.26 f.27 f.28 f.29 f.30 f.31
EndChar

StartChar: D
Encoding: 68 68 34
Width: 480
VWidth: 0
Flags: W
HStem: 767 20G<139 235>
LayerCount: 2
Fore
SplineSet
200 23 m 1
 175 -37 l 1
 115 -62 l 1
 55 -37 l 1
 30 23 l 1
 55 83 l 1
 72 90 l 1
 130 641 l 1
 127 642 l 1
 102 702 l 1
 127 762 l 1
 187 787 l 1
 247 762 l 1
 261 728 l 1
 386 686 460 565 447 442 c 0
 429 274 340 123 199 25 c 1
 200 23 l 1
175 118 m 1
 270 200 333 318 347 449 c 0
 356 536 310 608 247 642 c 1
 230 635 l 1
 175 118 l 1
EndSplineSet
AlternateSubs2: "Randomize subtable" D.1 D.2 D.3 D.4 D.5 D.6 D.7 D.8 D.9 D.10 D.11 D.12 D.13 D.14 D.15
EndChar

StartChar: F
Encoding: 70 70 35
Width: 441
VWidth: 0
Flags: W
HStem: 513 20G<247 343> 869 20G<277 373>
VStem: 69 100<-17 173 252 291 440 580.143> 76 100<440 697>
LayerCount: 2
Fore
SplineSet
231 366 m 1xd0
 206 306 l 1
 170 291 l 1
 170 252 l 1
 175 249 179 251 188 256 c 0
 230 279 258 327 259 378 c 1
 235 388 l 1
 210 448 l 1
 235 508 l 1
 295 533 l 1
 355 508 l 1
 380 448 l 1
 359 397 l 1
 366 316 325 234 244 190 c 0
 219 176 193 171 169 173 c 1
 166 -18 l 1
 175 -22 l 1
 200 -82 l 1
 175 -142 l 1
 115 -167 l 1
 55 -142 l 1
 30 -82 l 1
 55 -22 l 1
 66 -17 l 1
 69 227 l 1xe0
 45 263 37 316 65 357 c 1
 61 366 l 1
 71 391 l 1
 76 722 l 2
 76 737 88 751 103 757 c 2
 245 815 l 1
 265 864 l 1
 325 889 l 1
 385 864 l 1
 410 804 l 1
 385 744 l 1
 325 719 l 1
 277 739 l 1
 176 697 l 1
 172 440 l 1
 206 426 l 1
 231 366 l 1xd0
EndSplineSet
AlternateSubs2: "Randomize subtable" F.1 F.2 F.3 F.4 F.5 F.6 F.7 F.8 F.9 F.10 F.11 F.12 F.13 F.14 F.15
EndChar

StartChar: r
Encoding: 114 114 36
Width: 558
VWidth: 0
Flags: W
HStem: 433 80<213.75 328.145> 471 20G<85 153>
VStem: 68 100<62 137> 80 96<250 341>
LayerCount: 2
Fore
SplineSet
176 250 m 1x90
 296 195 l 2
 298 195 300 196 302 197 c 0
 342 210 383 251 379 317 c 0
 374 399 309 435 260 433 c 0
 245 432 229 429 213 419 c 1
 218 406 l 1
 193 346 l 1
 180 341 l 1
 176 250 l 1x90
527 83 m 1
 502 23 l 1
 442 -2 l 1
 382 23 l 1
 361 74 l 1
 277 112 l 1
 241 111 203 120 171 137 c 1
 168 60 l 1
 175 57 l 1
 200 -3 l 1
 175 -63 l 1
 115 -88 l 1
 55 -63 l 1
 30 -3 l 1
 55 57 l 1
 68 62 l 1xa0
 80 343 l 1
 73 346 l 1
 48 406 l 1
 73 466 l 1
 133 491 l 1x50
 153 483 l 1
 184 501 219 511 255 513 c 0
 371 518 472 435 479 320 c 0
 483 248 449 187 395 150 c 1
 397 149 l 1
 442 168 l 1
 502 143 l 1
 527 83 l 1
EndSplineSet
AlternateSubs2: "Randomize subtable" r.1 r.2 r.3 r.4 r.5 r.6 r.7 r.8 r.9 r.10 r.11 r.12 r.13 r.14 r.15 r.16 r.17 r.18 r.19 r.20 r.21 r.22 r.23 r.24 r.25 r.26 r.27 r.28 r.29 r.30 r.31
EndChar

StartChar: hungarumlaut
Encoding: 733 733 37
Width: 456
VWidth: 0
Flags: W
HStem: 439 78<150 273> 809 20G<292 388>
LayerCount: 2
Fore
SplineSet
425 744 m 1
 400 684 l 1
 385 678 l 1
 370 470 l 2
 368 449 346 432 319 433 c 2
 79 439 l 2
 78 439 69 441 65 442 c 0
 39 449 25 471 34 492 c 2
 101 649 l 1
 85 688 l 1
 110 748 l 1
 170 773 l 1
 230 748 l 1
 255 688 l 1
 230 628 l 1
 190 611 l 1
 150 517 l 1
 273 514 l 1
 285 682 l 1
 280 684 l 1
 255 744 l 1
 280 804 l 1
 340 829 l 1
 400 804 l 1
 425 744 l 1
EndSplineSet
AlternateSubs2: "Randomize subtable" hungarumlaut.1 hungarumlaut.2 hungarumlaut.3 hungarumlaut.4 hungarumlaut.5 hungarumlaut.6 hungarumlaut.7
EndChar

StartChar: tilde
Encoding: 732 732 38
Width: 538
VWidth: 0
Flags: W
HStem: 436 280 526 21G<313 361>
LayerCount: 2
Fore
SplineSet
505 631 m 1x80
 480 570 l 1
 437 553 l 2
 435 551 433 550 431 548 c 0
 405 530 374 526 348 526 c 0x40
 278 526 222 539 193 543 c 1
 202 521 l 1
 177 461 l 1
 117 436 l 1
 57 461 l 1
 32 521 l 1
 57 581 l 1
 102 600 l 1
 105 602 l 1
 180 656 295 624 343 612 c 1
 335 631 l 1
 360 691 l 1
 420 716 l 1
 480 691 l 1
 505 631 l 1x80
EndSplineSet
AlternateSubs2: "Randomize subtable" tilde.1 tilde.2 tilde.3 tilde.4 tilde.5 tilde.6 tilde.7
EndChar

StartChar: cedilla
Encoding: 184 184 39
Width: 317
VWidth: 0
Flags: W
HStem: -161 201
VStem: 177 100<-14 32.6309>
LayerCount: 2
Fore
SplineSet
225 40 m 0
 252 41 276 24 277 2 c 2
 279 -47 l 2
 280 -66 262 -82 244 -87 c 2
 198 -99 l 1
 182 -136 l 1
 122 -161 l 1
 62 -136 l 1
 37 -76 l 1
 62 -16 l 1
 122 9 l 1
 178 -14 l 1
 177 -2 l 2
 176 20 198 39 225 40 c 0
EndSplineSet
AlternateSubs2: "Randomize subtable" cedilla.1 cedilla.2 cedilla.3 cedilla.4 cedilla.5 cedilla.6 cedilla.7
EndChar

StartChar: Lambda
Encoding: 923 923 40
Width: 515
VWidth: 0
Flags: W
LayerCount: 2
Fore
SplineSet
484 -72 m 1
 460 -132 l 1
 399 -157 l 1
 339 -132 l 1
 314 -72 l 1
 337 -18 l 1
 229 468 l 1
 176 136 l 1
 201 77 l 1
 176 16 l 1
 116 -8 l 1
 56 16 l 1
 31 77 l 1
 56 137 l 1
 76 145 l 1
 172 738 l 2
 175 760 201 775 228 772 c 0
 251 770 268 753 271 740 c 2
 435 -2 l 1
 460 -12 l 1
 484 -72 l 1
EndSplineSet
AlternateSubs2: "Randomize subtable" Lambda.1 Lambda.2 Lambda.3 Lambda.4 Lambda.5 Lambda.6 Lambda.7 Lambda.8 Lambda.9 Lambda.10 Lambda.11 Lambda.12 Lambda.13 Lambda.14 Lambda.15
EndChar

StartChar: two
Encoding: 50 50 41
Width: 425
VWidth: 0
Flags: W
HStem: 446 21G<66 162>
LayerCount: 2
Fore
SplineSet
322 -26 m 1
 297 -86 l 1
 237 -111 l 1
 177 -86 l 1
 172 -73 l 1
 99 -81 l 2
 85 -82 71 -79 60 -71 c 0
 40 -57 37 -31 55 -15 c 0
 179 98 263 250 291 418 c 0
 312 544 251 626 214 630 c 0
 210 630 206 631 200 630 c 0
 187 628 170 615 161 596 c 1
 174 591 l 1
 199 531 l 1
 174 471 l 1
 114 446 l 1
 54 471 l 1
 29 531 l 1
 54 591 l 1
 58 593 l 1
 67 647 109 696 180 708 c 0
 196 711 211 711 227 709 c 0
 371 694 411 533 390 407 c 0
 368 280 317 160 242 57 c 1
 297 34 l 1
 322 -26 l 1
EndSplineSet
AlternateSubs2: "Randomize subtable" two.1 two.2 two.3 two.4 two.5 two.6 two.7
EndChar

StartChar: y
Encoding: 121 121 42
Width: 399
VWidth: 0
Flags: W
HStem: 440 20G<67 163 235 331>
LayerCount: 2
Fore
SplineSet
293 -3 m 1
 268 -63 l 1
 208 -88 l 1
 148 -63 l 1
 123 -3 l 1
 148 57 l 1
 152 59 l 1
 139 209 l 1
 98 297 l 1
 55 315 l 1
 30 375 l 1
 55 435 l 1
 115 460 l 1
 175 435 l 1
 200 375 l 1
 185 339 l 1
 188 334 l 1
 213 390 l 1
 198 426 l 1
 223 486 l 1
 283 511 l 1
 343 486 l 1
 368 426 l 1
 343 366 l 1
 301 348 l 1
 239 212 l 1
 252 64 l 1
 268 57 l 1
 293 -3 l 1
EndSplineSet
AlternateSubs2: "Randomize subtable" y.1 y.2 y.3 y.4 y.5 y.6 y.7 y.8 y.9 y.10 y.11 y.12 y.13 y.14 y.15 y.16 y.17 y.18 y.19 y.20 y.21 y.22 y.23 y.24 y.25 y.26 y.27 y.28 y.29 y.30 y.31
EndChar

StartChar: Z
Encoding: 90 90 43
Width: 449
VWidth: 0
Flags: W
HStem: 783 20G<67 163>
LayerCount: 2
Fore
SplineSet
418 -17 m 1
 393 -77 l 1
 333 -102 l 1
 273 -77 l 1
 121 -122 l 2
 84 -133 49 -106 55 -78 c 2
 226 672 l 1
 182 674 l 1
 175 658 l 1
 115 633 l 1
 55 658 l 1
 30 718 l 1
 55 778 l 1
 115 803 l 1
 175 778 l 1
 185 754 l 1
 289 748 l 2
 320 746 340 722 335 701 c 2
 169 -23 l 1
 256 3 l 1
 273 44 l 1
 333 68 l 1
 393 44 l 1
 418 -17 l 1
EndSplineSet
AlternateSubs2: "Randomize subtable" Z.1 Z.2 Z.3 Z.4 Z.5 Z.6 Z.7 Z.8 Z.9 Z.10 Z.11 Z.12 Z.13 Z.14 Z.15
EndChar

StartChar: U
Encoding: 85 85 44
Width: 453
VWidth: 0
Flags: W
HStem: 778 20G<289 385>
VStem: 51 100<50.4192 380.682> 63 100<350.077 611> 293 100<71.6425 649>
LayerCount: 2
Fore
SplineSet
422 713 m 1xd0
 397 653 l 1
 388 649 l 1
 393 150 l 2
 394 63 344 -37 230 -52 c 0
 129 -65 68 12 54 79 c 0
 51 92 51 105 51 119 c 2xd0
 63 613 l 1
 55 616 l 1
 30 677 l 1
 55 737 l 1
 115 762 l 1
 175 737 l 1
 200 677 l 1
 175 616 l 1
 163 611 l 1xb0
 159 464 151 120 151 118 c 0
 151 109 151 100 153 92 c 0
 163 40 198 25 214 27 c 0
 250 32 294 78 293 149 c 2
 288 649 l 1
 277 653 l 1
 252 713 l 1
 277 773 l 1
 337 798 l 1
 397 773 l 1
 422 713 l 1xd0
EndSplineSet
AlternateSubs2: "Randomize subtable" U.1 U.2 U.3 U.4 U.5 U.6 U.7 U.8 U.9 U.10 U.11 U.12 U.13 U.14 U.15
EndChar

StartChar: u
Encoding: 117 117 45
Width: 443
VWidth: 0
Flags: W
HStem: -15 79<167.625 275.682> 576 20G<67 163 279 375>
VStem: 63 100<70.6797 446> 277 100<68.2784 320>
LayerCount: 2
Fore
SplineSet
412 384 m 1
 387 324 l 1
 377 320 l 1
 377 86 l 2
 377 6 280 -17 218 -15 c 0
 156 -13 63 15 63 95 c 0
 63 97 64 329 65 446 c 1
 55 450 l 1
 30 511 l 1
 55 571 l 1
 115 596 l 1
 175 571 l 1
 200 511 l 1
 175 450 l 1
 165 446 l 1
 164 329 163 95 163 94 c 0
 163 80 178 66 223 64 c 0
 265 62 277 75 277 86 c 2
 277 320 l 1
 267 324 l 1
 242 384 l 1
 267 444 l 1
 327 469 l 1
 387 444 l 1
 412 384 l 1
EndSplineSet
AlternateSubs2: "Randomize subtable" u.1 u.2 u.3 u.4 u.5 u.6 u.7 u.8 u.9 u.10 u.11 u.12 u.13 u.14 u.15 u.16 u.17 u.18 u.19 u.20 u.21 u.22 u.23 u.24 u.25 u.26 u.27 u.28 u.29 u.30 u.31
EndChar

StartChar: b
Encoding: 98 98 46
Width: 430
VWidth: 0
Flags: W
HStem: 462 20G<67 163>
VStem: 65 100<81 242> 262 100<69.5347 196.561>
LayerCount: 2
Fore
SplineSet
56 256 m 0
 48 271 52 288 65 299 c 1
 65 333 l 1
 55 337 l 1
 30 397 l 1
 55 457 l 1
 115 482 l 1
 175 457 l 1
 188 426 l 1
 359 397 l 2
 375 394 389 385 395 373 c 0
 406 353 394 330 369 321 c 2
 274 288 l 1
 325 254 359 198 362 137 c 0
 366 34 276 -46 176 -43 c 1
 175 -44 l 1
 115 -69 l 1
 55 -44 l 1
 30 17 l 1
 55 77 l 1
 65 81 l 1
 65 245 l 1
 61 248 58 252 56 256 c 0
165 242 m 1
 165 81 l 1
 175 77 l 1
 191 39 l 1
 231 45 264 87 262 134 c 0
 258 201 208 238 165 242 c 1
178 345 m 1
 177 341 l 1
 185 344 l 1
 178 345 l 1
EndSplineSet
AlternateSubs2: "Randomize subtable" b.1 b.2 b.3 b.4 b.5 b.6 b.7 b.8 b.9 b.10 b.11 b.12 b.13 b.14 b.15 b.16 b.17 b.18 b.19 b.20 b.21 b.22 b.23 b.24 b.25 b.26 b.27 b.28 b.29 b.30 b.31
EndChar

StartChar: J
Encoding: 74 74 47
Width: 317
VWidth: 0
Flags: W
HStem: -31 21G<67 163> 783 20G<122 218>
VStem: 30 255
LayerCount: 2
Fore
SplineSet
255 718 m 1
 230 658 l 1
 226 656 l 1
 285 24 l 2
 287 2 266 -16 239 -18 c 0
 232 -18 221 -16 220 -16 c 2
 176 -4 l 1
 175 -6 l 1
 115 -31 l 1
 55 -6 l 1
 30 54 l 1
 55 114 l 1
 115 139 l 1
 175 114 l 1
 177 109 l 1
 126 651 l 1
 110 658 l 1
 85 718 l 1
 110 778 l 1
 170 803 l 1
 230 778 l 1
 255 718 l 1
EndSplineSet
AlternateSubs2: "Randomize subtable" J.1 J.2 J.3 J.4 J.5 J.6 J.7 J.8 J.9 J.10 J.11 J.12 J.13 J.14 J.15
EndChar

StartChar: one
Encoding: 49 49 48
Width: 312
VWidth: 0
Flags: W
HStem: 487 21G<67 142>
VStem: 142 97<143.25 498> 147 100<66 498>
LayerCount: 2
Fore
SplineSet
283 1 m 1xa0
 258 -59 l 1
 198 -84 l 1
 138 -59 l 1
 113 1 l 1
 138 61 l 1
 147 65 l 1xa0
 142 498 l 1
 115 487 l 1
 55 512 l 1
 30 572 l 1
 55 632 l 1
 115 657 l 1
 144 702 l 2
 157 721 188 729 212 719 c 0
 229 712 239 697 239 684 c 2xc0
 247 66 l 1
 258 61 l 1
 283 1 l 1xa0
EndSplineSet
AlternateSubs2: "Randomize subtable" one.1 one.2 one.3 one.4 one.5 one.6 one.7
EndChar

StartChar: g
Encoding: 103 103 49
Width: 448
VWidth: 0
Flags: W
LayerCount: 2
Fore
SplineSet
410 0 m 1
 385 -60 l 1
 325 -85 l 1
 265 -60 l 1
 252 -29 l 1
 237 -26 l 2
 117 -5 56 95 37 190 c 0
 12 318 73 458 206 475 c 0
 232 478 259 475 285 467 c 0
 315 457 339 440 355 419 c 1
 393 403 l 1
 417 343 l 1
 393 283 l 1
 332 258 l 1
 272 283 l 1
 247 343 l 1
 264 383 l 1
 259 388 252 391 247 393 c 0
 237 396 229 397 221 396 c 0
 183 391 120 322 133 217 c 1
 138 230 l 1
 198 255 l 1
 259 230 l 1
 267 211 l 1
 335 212 l 2
 364 213 387 193 386 170 c 2
 379 62 l 1
 385 60 l 1
 410 0 l 1
279 66 m 1
 283 132 l 1
 268 132 l 1
 259 110 l 1
 198 85 l 1
 194 86 l 1
 214 67 236 56 259 52 c 0
 259 52 260 52 262 52 c 1
 265 60 l 1
 279 66 l 1
EndSplineSet
AlternateSubs2: "Randomize subtable" g.1 g.2 g.3 g.4 g.5 g.6 g.7 g.8 g.9 g.10 g.11 g.12 g.13 g.14 g.15 g.16 g.17 g.18 g.19 g.20 g.21 g.22 g.23 g.24 g.25 g.26 g.27 g.28 g.29 g.30 g.31
EndChar

StartChar: OE
Encoding: 338 338 50
Width: 605
VWidth: 0
Flags: W
HStem: 537 21G<439 539>
VStem: 31 100<187.984 417.408> 237 102<90 151 299 400.455> 250 100<318.25 558>
LayerCount: 2
Fore
SplineSet
484 210 m 1xd0
 459 150 l 1
 399 125 l 1
 339 150 l 1
 339 151 l 1xe0
 336 62 l 1
 363 52 l 1
 414 73 l 1
 474 48 l 1
 499 -12 l 1
 474 -73 l 1
 414 -97 l 1
 354 -73 l 1
 335 -26 l 1
 273 -2 l 1
 112 5 33 156 31 288 c 0
 29 430 98 564 219 645 c 1
 243 703 l 1
 303 728 l 1
 363 703 l 1
 375 675 l 1
 424 670 l 1
 429 682 l 1
 489 707 l 1
 549 682 l 1
 574 622 l 1
 549 561 l 1
 489 537 l 1
 429 561 l 1
 417 589 l 1
 368 595 l 1
 363 583 l 1
 350 578 l 1
 343 299 l 1
 368 282 l 1
 399 295 l 1
 459 270 l 1
 484 210 l 1xd0
242 284 m 2
 250 558 l 1xd0
 176 493 129 396 131 289 c 0
 133 190 181 117 237 90 c 1
 242 277 l 2
 242 279 242 282 242 284 c 2
EndSplineSet
AlternateSubs2: "Randomize subtable" OE.1 OE.2 OE.3 OE.4 OE.5 OE.6 OE.7 OE.8 OE.9 OE.10 OE.11 OE.12 OE.13 OE.14 OE.15
EndChar

StartChar: period
Encoding: 46 46 51
Width: 244
VWidth: 0
Flags: W
HStem: -57 170
VStem: 37 170
LayerCount: 2
Fore
SplineSet
207 28 m 1
 182 -33 l 1
 122 -57 l 1
 62 -33 l 1
 37 28 l 1
 62 88 l 1
 122 113 l 1
 182 88 l 1
 207 28 l 1
EndSplineSet
AlternateSubs2: "Randomize subtable" period.1 period.2 period.3 period.4 period.5 period.6 period.7
EndChar

StartChar: colon
Encoding: 58 58 52
Width: 275
VWidth: 0
Flags: W
VStem: 35 205
LayerCount: 2
Fore
SplineSet
240 278 m 1
 215 218 l 1
 155 193 l 1
 95 218 l 1
 70 278 l 1
 95 338 l 1
 155 363 l 1
 215 338 l 1
 240 278 l 1
205 -4 m 1
 180 -64 l 1
 120 -89 l 1
 60 -64 l 1
 35 -4 l 1
 60 57 l 1
 120 81 l 1
 180 57 l 1
 205 -4 l 1
EndSplineSet
AlternateSubs2: "Randomize subtable" colon.1 colon.2 colon.3 colon.4 colon.5 colon.6 colon.7
EndChar

StartChar: macron
Encoding: 175 175 53
Width: 410
VWidth: 0
Flags: W
HStem: 442 202 474 21G<244 340>
LayerCount: 2
Fore
SplineSet
377 559 m 1x80
 352 499 l 1
 292 474 l 1x40
 232 499 l 1
 229 506 l 1
 191 499 l 1
 177 467 l 1
 117 442 l 1
 57 467 l 1
 32 527 l 1
 57 588 l 1
 117 612 l 1
 177 588 l 1
 180 580 l 1
 218 587 l 1
 232 619 l 1
 292 644 l 1
 352 619 l 1
 377 559 l 1x80
EndSplineSet
AlternateSubs2: "Randomize subtable" macron.1 macron.2 macron.3 macron.4 macron.5 macron.6 macron.7
EndChar

StartChar: Y
Encoding: 89 89 54
Width: 448
VWidth: 0
Flags: W
HStem: 797 20G<67 163>
LayerCount: 2
Fore
SplineSet
281 -163 m 1
 256 -223 l 1
 196 -248 l 1
 136 -223 l 1
 111 -163 l 1
 136 -103 l 1
 154 -96 l 1
 211 368 l 1
 93 656 l 1
 55 672 l 1
 30 732 l 1
 55 792 l 1
 115 817 l 1
 175 792 l 1
 200 732 l 1
 184 693 l 1
 248 536 l 1
 269 627 l 1
 247 679 l 1
 272 739 l 1
 332 764 l 1
 392 739 l 1
 417 679 l 1
 392 619 l 1
 366 608 l 1
 311 366 l 2
 311 365 310 365 310 364 c 2
 254 -102 l 1
 256 -103 l 1
 281 -163 l 1
EndSplineSet
AlternateSubs2: "Randomize subtable" Y.1 Y.2 Y.3 Y.4 Y.5 Y.6 Y.7 Y.8 Y.9 Y.10 Y.11 Y.12 Y.13 Y.14 Y.15
EndChar

StartChar: Sigma
Encoding: 931 931 55
Width: 512
VWidth: 0
Flags: W
HStem: -68 81<143 327> 792 20G<330 426>
LayerCount: 2
Fore
SplineSet
481 -22 m 1
 456 -82 l 1
 396 -107 l 1
 336 -82 l 1
 328 -63 l 1
 83 -68 l 2
 50 -68 27 -45 33 -20 c 2
 125 343 l 1
 89 460 58 580 32 700 c 0
 28 719 45 744 77 746 c 2
 307 762 l 1
 318 787 l 1
 378 812 l 1
 438 787 l 1
 463 727 l 1
 438 667 l 1
 378 642 l 1
 318 667 l 1
 312 682 l 1
 140 670 l 1
 164 563 192 458 225 353 c 0
 227 347 227 341 226 336 c 2
 143 13 l 1
 327 17 l 1
 336 38 l 1
 396 63 l 1
 456 38 l 1
 481 -22 l 1
EndSplineSet
AlternateSubs2: "Randomize subtable" Sigma.1 Sigma.2 Sigma.3 Sigma.4 Sigma.5 Sigma.6 Sigma.7 Sigma.8 Sigma.9 Sigma.10 Sigma.11 Sigma.12 Sigma.13 Sigma.14 Sigma.15
EndChar

StartChar: p
Encoding: 112 112 56
Width: 503
VWidth: 0
Flags: W
HStem: 485 20G<145.5 164>
VStem: 115 100<114 146 314 387> 123 100<11 146>
LayerCount: 2
Fore
SplineSet
215 301 m 1xc0
 314 331 l 1
 212 387 l 1
 215 301 l 1xc0
260 -54 m 1
 235 -114 l 1
 175 -139 l 1
 115 -114 l 1
 90 -54 l 1
 115 6 l 1xc0
 123 9 l 1xa0
 119 146 l 1
 115 144 l 1
 55 169 l 1
 30 229 l 1
 55 289 l 1
 115 314 l 1xc0
 110 464 l 2
 109 486 132 504 159 505 c 0
 169 505 180 503 188 498 c 2
 450 353 l 2
 472 341 478 316 463 298 c 0
 457 291 448 286 440 283 c 2
 217 217 l 1
 223 11 l 1xa0
 235 6 l 1
 260 -54 l 1
EndSplineSet
AlternateSubs2: "Randomize subtable" p.1 p.2 p.3 p.4 p.5 p.6 p.7 p.8 p.9 p.10 p.11 p.12 p.13 p.14 p.15 p.16 p.17 p.18 p.19 p.20 p.21 p.22 p.23 p.24 p.25 p.26 p.27 p.28 p.29 p.30 p.31
EndChar

StartChar: five
Encoding: 53 53 57
Width: 381
VWidth: 0
Flags: W
HStem: -40 80<158.568 226.518>
VStem: 77 100<501.956 643> 251 100<66.5126 255.333>
LayerCount: 2
Fore
SplineSet
199 139 m 1
 174 79 l 1
 154 71 l 1
 160 53 174 40 190 40 c 0
 210 39 247 62 251 139 c 0
 253 168 249 201 238 233 c 0
 206 329 155 416 87 489 c 0
 81 495 77 504 77 513 c 2
 81 690 l 2
 81 709 102 729 129 730 c 2
 175 731 l 1
 184 753 l 1
 244 778 l 1
 304 753 l 1
 329 693 l 1
 304 633 l 1
 244 608 l 1
 184 633 l 1
 180 643 l 1
 177 525 l 1
 249 444 302 353 335 253 c 0
 348 213 353 174 351 136 c 0
 347 56 303 -44 186 -40 c 0
 168 -39 150 -36 135 -30 c 0
 79 -8 49 40 49 90 c 1
 29 139 l 1
 54 199 l 1
 114 224 l 1
 174 199 l 1
 199 139 l 1
EndSplineSet
AlternateSubs2: "Randomize subtable" five.1 five.2 five.3 five.4 five.5 five.6 five.7
EndChar

StartChar: oslash
Encoding: 248 248 58
Width: 470
VWidth: 0
Flags: W
HStem: 507 20G<186 282>
VStem: 309 100<83.9141 204.702>
LayerCount: 2
Fore
SplineSet
217 43 m 1
 228 38 236 36 249 40 c 0
 283 50 305 113 309 204 c 1
 309 206 l 1
 217 43 l 1
200 -40 m 1
 175 -100 l 1
 115 -125 l 1
 55 -100 l 1
 30 -40 l 1
 55 20 l 1
 94 36 l 1
 59 87 44 156 57 229 c 0
 70 303 104 372 155 428 c 1
 149 442 l 1
 174 502 l 1
 234 527 l 1
 294 502 l 1
 319 442 l 1
 294 382 l 1
 234 357 l 1
 220 363 l 1
 188 322 166 272 156 218 c 0
 151 188 151 158 157 132 c 1
 343 459 l 2
 352 475 375 485 397 482 c 0
 424 479 442 458 438 436 c 0
 422 358 412 280 409 201 c 0
 406 123 402 -2 282 -35 c 0
 255 -43 225 -43 199 -37 c 1
 200 -40 l 1
EndSplineSet
AlternateSubs2: "Randomize subtable" oslash.1 oslash.2 oslash.3 oslash.4 oslash.5 oslash.6 oslash.7 oslash.8 oslash.9 oslash.10 oslash.11 oslash.12 oslash.13 oslash.14 oslash.15 oslash.16 oslash.17 oslash.18 oslash.19 oslash.20 oslash.21 oslash.22 oslash.23 oslash.24 oslash.25 oslash.26 oslash.27 oslash.28 oslash.29 oslash.30 oslash.31
EndChar

StartChar: equal
Encoding: 61 61 59
Width: 427
VWidth: 0
Flags: W
HStem: 529 20G<76 172 258 354>
LayerCount: 2
Fore
SplineSet
396 250 m 1
 371 190 l 1
 311 165 l 1
 251 190 l 1
 241 213 l 1
 183 216 l 1
 176 199 l 1
 116 175 l 1
 56 199 l 1
 31 260 l 1
 56 320 l 1
 116 345 l 1
 176 320 l 1
 186 296 l 1
 244 293 l 1
 251 310 l 1
 311 335 l 1
 371 310 l 1
 396 250 l 1
391 491 m 1
 366 431 l 1
 306 406 l 1
 246 431 l 1
 242 441 l 1
 196 434 l 1
 184 404 l 1
 124 379 l 1
 64 404 l 1
 39 464 l 1
 64 524 l 1
 124 549 l 1
 184 524 l 1
 188 514 l 1
 233 521 l 1
 246 551 l 1
 306 576 l 1
 366 551 l 1
 391 491 l 1
EndSplineSet
AlternateSubs2: "Randomize subtable" equal.1 equal.2 equal.3 equal.4 equal.5 equal.6 equal.7
EndChar

StartChar: o
Encoding: 111 111 60
Width: 431
VWidth: 0
Flags: W
HStem: 9 80<169.028 261.498> 425 20G<181 277>
VStem: 31 100<128.531 270.391>
LayerCount: 2
Fore
SplineSet
312 365 m 1
 342 343 364 315 379 283 c 0
 426 180 385 51 266 17 c 0
 250 12 234 9 216 9 c 0
 97 7 32 107 31 195 c 1
 31 205 l 1
 33 279 77 356 155 386 c 1
 169 420 l 1
 229 445 l 1
 289 420 l 1
 312 365 l 1
175 298 m 1
 151 278 132 245 131 203 c 1
 131 196 l 1
 132 126 181 89 214 89 c 0
 221 89 226 90 232 92 c 0
 275 105 320 178 285 255 c 0
 279 268 271 279 262 289 c 1
 229 275 l 1
 175 298 l 1
EndSplineSet
AlternateSubs2: "Randomize subtable" o.1 o.2 o.3 o.4 o.5 o.6 o.7 o.8 o.9 o.10 o.11 o.12 o.13 o.14 o.15 o.16 o.17 o.18 o.19 o.20 o.21 o.22 o.23 o.24 o.25 o.26 o.27 o.28 o.29 o.30 o.31
EndChar

StartChar: braceright
Encoding: 125 125 61
Width: 384
VWidth: 0
Flags: W
VStem: 225 100<88.4731 213.866>
LayerCount: 2
Fore
SplineSet
355 357 m 1
 330 297 l 1
 273 273 l 1
 310 239 325 195 325 153 c 0
 325 93 291 22 217 -7 c 1
 203 -40 l 1
 143 -65 l 1
 83 -40 l 1
 58 20 l 1
 83 80 l 1
 143 105 l 1
 198 82 l 1
 215 98 225 123 225 153 c 0
 225 199 198 232 157 241 c 0
 148 243 140 247 134 252 c 0
 115 268 115 294 135 309 c 2
 181 344 l 1
 142 357 l 2
 132 360 120 369 115 379 c 0
 105 399 118 423 143 431 c 0
 212 453 238 535 205 600 c 0
 197 616 186 629 174 638 c 1
 174 637 l 1
 114 612 l 1
 54 637 l 1
 29 697 l 1
 54 757 l 1
 114 782 l 1
 174 757 l 1
 187 725 l 1
 204 719 220 711 234 702 c 0
 324 641 346 521 288 435 c 1
 330 417 l 1
 355 357 l 1
EndSplineSet
AlternateSubs2: "Randomize subtable" braceright.1 braceright.2 braceright.3 braceright.4 braceright.5 braceright.6 braceright.7
EndChar

StartChar: quotesingle
Encoding: 39 39 62
Width: 247
VWidth: 0
Flags: W
HStem: 782 20G<68 164>
VStem: 79 100<513 647.844>
LayerCount: 2
Fore
SplineSet
216 448 m 1
 191 388 l 1
 131 363 l 1
 71 388 l 1
 46 448 l 1
 71 508 l 1
 79 511 l 1
 77 558 74 604 71 650 c 1
 56 656 l 1
 31 717 l 1
 56 777 l 1
 116 802 l 1
 176 777 l 1
 201 717 l 1
 176 656 l 1
 171 654 l 1
 174 607 177 561 179 513 c 1
 191 508 l 1
 216 448 l 1
EndSplineSet
AlternateSubs2: "Randomize subtable" quotesingle.1 quotesingle.2 quotesingle.3 quotesingle.4 quotesingle.5 quotesingle.6 quotesingle.7
EndChar

StartChar: E
Encoding: 69 69 63
Width: 468
VWidth: 0
Flags: W
HStem: 469 20G<273 369>
LayerCount: 2
Fore
SplineSet
406 404 m 1
 381 344 l 1
 321 319 l 1
 261 344 l 1
 254 361 l 1
 185 357 l 1
 175 334 l 1
 172 333 l 1
 145 -8 l 1
 277 21 l 1
 291 56 l 1
 352 81 l 1
 412 56 l 1
 437 -4 l 1
 412 -64 l 1
 352 -89 l 1
 291 -64 l 1
 289 -60 l 1
 104 -101 l 2
 73 -108 41 -91 41 -59 c 1
 71 327 l 1
 55 334 l 1
 30 394 l 1
 55 454 l 1
 82 465 l 1
 101 701 l 2
 103 725 132 739 155 738 c 2
 250 732 l 1
 257 748 l 1
 317 773 l 1
 377 748 l 1
 402 688 l 1
 377 628 l 1
 317 603 l 1
 257 628 l 1
 247 652 l 1
 198 655 l 1
 181 440 l 1
 182 437 l 1
 251 441 l 1
 261 464 l 1
 321 489 l 1
 381 464 l 1
 406 404 l 1
EndSplineSet
AlternateSubs2: "Randomize subtable" E.1 E.2 E.3 E.4 E.5 E.6 E.7 E.8 E.9 E.10 E.11 E.12 E.13 E.14 E.15
EndChar

StartChar: Upsilon
Encoding: 933 933 64
Width: 578
VWidth: 0
Flags: W
HStem: 478 21G<414 510>
LayerCount: 2
Fore
SplineSet
547 563 m 1
 522 503 l 1
 462 478 l 1
 402 503 l 1
 377 563 l 1
 402 623 l 1
 428 634 l 1
 426 639 423 643 419 647 c 0
 408 657 403 659 391 650 c 0
 355 625 258 450 246 395 c 0
 245 390 245 386 245 383 c 0
 245 382 245 382 245 381 c 0
 246 379 246 377 246 375 c 2
 356 76 l 1
 392 61 l 1
 416 1 l 1
 392 -59 l 1
 331 -84 l 1
 271 -59 l 1
 246 1 l 1
 264 43 l 1
 149 357 l 1
 148 359 l 2
 134 401 152 457 171 515 c 1
 137 529 l 1
 130 547 l 1
 84 554 49 579 38 613 c 0
 14 685 68 799 163 819 c 1
 247 834 289 776 310 711 c 0
 311 707 312 704 313 700 c 1
 318 704 322 707 326 710 c 0
 385 750 457 734 495 699 c 0
 522 673 538 636 532 598 c 1
 547 563 l 1
212 668 m 1
 213 681 214 689 213 691 c 0
 203 721 191 736 186 740 c 1
 160 728 133 670 134 641 c 1
 137 649 l 1
 197 674 l 1
 212 668 l 1
EndSplineSet
AlternateSubs2: "Randomize subtable" Upsilon.1 Upsilon.2 Upsilon.3 Upsilon.4 Upsilon.5 Upsilon.6 Upsilon.7 Upsilon.8 Upsilon.9 Upsilon.10 Upsilon.11 Upsilon.12 Upsilon.13 Upsilon.14 Upsilon.15
EndChar

StartChar: at
Encoding: 64 64 65
Width: 610
VWidth: 0
Flags: W
LayerCount: 2
Fore
SplineSet
160 339 m 1
 171 489 l 2
 173 511 197 528 224 527 c 0
 247 526 266 511 270 495 c 2
 339 220 l 1
 367 209 l 1
 392 148 l 1
 371 96 l 1
 381 55 l 1
 418 79 453 142 468 215 c 0
 492 330 477 439 439 519 c 0
 388 626 311 663 237 640 c 0
 150 613 100 487 150 361 c 0
 153 354 157 346 160 339 c 1
271 10 m 1
 246 -51 l 1
 186 -75 l 1
 125 -51 l 1
 101 10 l 1
 125 70 l 1
 140 76 l 1
 149 198 l 1
 108 237 76 284 55 337 c 0
 -2 479 34 664 201 715 c 0
 353 762 475 668 532 548 c 0
 578 453 593 330 566 202 c 0
 545 102 490 -37 343 -37 c 0
 320 -37 299 -23 294 -5 c 2
 273 77 l 1
 247 88 l 1
 242 99 l 1
 240 72 l 1
 246 70 l 1
 271 10 l 1
EndSplineSet
AlternateSubs2: "Randomize subtable" at.1 at.2 at.3 at.4 at.5 at.6 at.7
EndChar

StartChar: zero
Encoding: 48 48 66
Width: 433
VWidth: 0
Flags: W
LayerCount: 2
Fore
SplineSet
215 468 m 1
 204 443 193 418 181 393 c 0
 134 294 121 192 136 120 c 0
 154 34 197 7 243 22 c 1
 315 40 321 194 243 385 c 0
 232 412 223 440 215 468 c 1
325 684 m 1
 300 623 l 1
 291 619 l 1
 292 608 293 596 294 585 c 0
 301 525 315 465 338 409 c 0
 406 242 468 -5 274 -55 c 0
 266 -57 257 -59 248 -60 c 0
 123 -76 56 15 37 107 c 0
 19 197 34 310 87 421 c 0
 120 491 150 560 174 636 c 1
 155 684 l 1
 180 744 l 1
 240 769 l 1
 300 744 l 1
 325 684 l 1
EndSplineSet
AlternateSubs2: "Randomize subtable" zero.1 zero.2 zero.3 zero.4 zero.5 zero.6 zero.7
EndChar

StartChar: O
Encoding: 79 79 67
Width: 440
VWidth: 0
Flags: W
HStem: 870 20G<156 252>
LayerCount: 2
Fore
SplineSet
131 833 m 1
 144 865 l 1
 204 890 l 1
 264 865 l 1
 289 805 l 1
 271 763 l 1
 318 631 358 497 392 361 c 0
 426 226 409 43 256 19 c 0
 242 17 228 17 213 18 c 0
 20 35 59 263 52 378 c 0
 43 519 -23 775 131 833 c 1
179 730 m 1
 155 740 l 1
 124 685 141 536 151 382 c 0
 162 217 157 103 223 97 c 0
 228 97 233 97 237 98 c 0
 277 104 329 204 294 345 c 0
 261 475 223 604 179 730 c 1
EndSplineSet
AlternateSubs2: "Randomize subtable" O.1 O.2 O.3 O.4 O.5 O.6 O.7 O.8 O.9 O.10 O.11 O.12 O.13 O.14 O.15
EndChar

StartChar: V
Encoding: 86 86 68
Width: 560
VWidth: 0
Flags: W
HStem: 799 20G<67 163 394 494>
LayerCount: 2
Fore
SplineSet
529 750 m 1
 504 690 l 1
 479 680 l 1
 320 -49 l 2
 316 -66 300 -78 279 -81 c 0
 252 -84 225 -70 221 -48 c 2
 79 664 l 1
 55 674 l 1
 30 734 l 1
 55 794 l 1
 115 819 l 1
 175 794 l 1
 200 734 l 1
 177 678 l 1
 273 200 l 1
 382 696 l 1
 359 750 l 1
 384 811 l 1
 444 835 l 1
 504 811 l 1
 529 750 l 1
EndSplineSet
AlternateSubs2: "Randomize subtable" V.1 V.2 V.3 V.4 V.5 V.6 V.7 V.8 V.9 V.10 V.11 V.12 V.13 V.14 V.15
EndChar

StartChar: eight
Encoding: 56 56 69
Width: 357
VWidth: 0
Flags: W
HStem: 788 20G<139.2 236>
LayerCount: 2
Fore
SplineSet
178 501 m 1
 191 524 201 545 205 567 c 0
 210 593 206 619 196 641 c 1
 188 638 l 1
 137 659 l 1
 130 640 128 614 139 583 c 0
 149 556 162 528 178 501 c 1
200 243 m 1
 198 221 195 198 190 175 c 0
 172 90 188 50 196 48 c 0
 197 48 198 47 198 47 c 1
 204 49 243 101 219 183 c 0
 213 203 207 223 200 243 c 1
234 406 m 1
 268 344 296 273 317 201 c 0
 332 148 330 95 314 53 c 0
 300 17 272 -23 217 -31 c 0
 200 -34 182 -33 166 -29 c 0
 48 0 78 127 91 188 c 0
 105 254 105 339 127 401 c 1
 116 420 l 2
 90 463 61 508 43 561 c 0
 14 645 39 738 119 764 c 1
 127 783 l 1
 188 808 l 1
 248 783 l 1
 273 723 l 1
 267 708 l 1
 301 664 314 609 304 555 c 0
 294 500 262 459 242 422 c 0
 239 417 237 411 234 406 c 1
EndSplineSet
AlternateSubs2: "Randomize subtable" eight.1 eight.2 eight.3 eight.4 eight.5 eight.6 eight.7
EndChar

StartChar: H
Encoding: 72 72 70
Width: 534
VWidth: 0
Flags: W
HStem: 770 20G<67 163 370 466>
VStem: 327 99<89 352.763>
LayerCount: 2
Fore
SplineSet
503 703 m 1
 478 643 l 1
 454 633 l 1
 424 468 420 278 426 89 c 1
 440 84 l 1
 465 23 l 1
 440 -37 l 1
 380 -62 l 1
 319 -37 l 1
 295 23 l 1
 319 84 l 1
 327 87 l 1
 323 189 322 292 327 390 c 1
 214 376 l 1
 202 347 l 1
 198 345 l 1
 222 73 l 1
 239 66 l 1
 264 6 l 1
 239 -54 l 1
 179 -79 l 1
 118 -54 l 1
 94 6 l 1
 118 66 l 1
 123 68 l 1
 98 340 l 1
 81 347 l 1
 57 407 l 1
 81 467 l 1
 86 469 l 1
 71 638 l 1
 55 645 l 1
 30 705 l 1
 55 765 l 1
 115 790 l 1
 175 765 l 1
 200 705 l 1
 175 645 l 1
 171 643 l 1
 186 474 l 1
 202 467 l 1
 207 456 l 1
 333 471 l 1
 338 532 346 592 356 648 c 1
 333 703 l 1
 358 763 l 1
 418 788 l 1
 478 763 l 1
 503 703 l 1
EndSplineSet
AlternateSubs2: "Randomize subtable" H.1 H.2 H.3 H.4 H.5 H.6 H.7 H.8 H.9 H.10 H.11 H.12 H.13 H.14 H.15
EndChar

StartChar: exclamdown
Encoding: 161 161 71
Width: 275
VWidth: 0
Flags: W
HStem: 489 20G<101 197.8> 513 21G<111.2 208>
VStem: 29 216
LayerCount: 2
Fore
SplineSet
234 424 m 1
 210 364 l 1
 195 358 l 1
 168 -30 l 1
 174 -32 l 1
 199 -92 l 1
 174 -152 l 1
 114 -177 l 1
 54 -152 l 1
 29 -92 l 1
 54 -32 l 1
 68 -26 l 1
 95 362 l 1
 89 364 l 1
 64 424 l 1
 89 484 l 1
 149 509 l 1
 210 484 l 1
 234 424 l 1
245 598 m 1
 220 538 l 1
 160 513 l 1
 99 538 l 1
 75 598 l 1
 99 658 l 1
 160 683 l 1
 220 658 l 1
 245 598 l 1
EndSplineSet
AlternateSubs2: "Randomize subtable" exclamdown.1 exclamdown.2 exclamdown.3 exclamdown.4 exclamdown.5 exclamdown.6 exclamdown.7
EndChar

StartChar: grave
Encoding: 96 96 72
Width: 297
VWidth: 0
Flags: W
HStem: 792 20G<68 164>
VStem: 31 235
LayerCount: 2
Fore
SplineSet
266 510 m 1
 241 450 l 1
 181 425 l 1
 121 450 l 1
 96 510 l 1
 116 557 l 1
 86 654 l 1
 56 667 l 1
 31 727 l 1
 56 787 l 1
 116 812 l 1
 176 787 l 1
 201 727 l 1
 182 681 l 1
 211 582 l 1
 241 570 l 1
 266 510 l 1
EndSplineSet
AlternateSubs2: "Randomize subtable" grave.1 grave.2 grave.3 grave.4 grave.5 grave.6 grave.7
EndChar

StartChar: AE
Encoding: 198 198 73
Width: 628
VWidth: 0
Flags: W
HStem: 548 21G<419 501.8>
LayerCount: 2
Fore
SplineSet
597 4 m 1
 573 -56 l 1
 512 -81 l 1
 463 -61 l 1
 299 -127 l 2
 264 -140 223 -119 227 -87 c 2
 266 190 l 1
 234 206 l 1
 231 205 l 1
 184 99 l 1
 200 62 l 1
 175 2 l 1
 115 -23 l 1
 55 2 l 1
 30 62 l 1
 55 122 l 1
 96 139 l 1
 131 218 l 1
 108 274 l 1
 132 335 l 1
 193 359 l 1
 313 631 l 1
 298 668 l 1
 323 729 l 1
 383 753 l 1
 444 729 l 1
 449 716 l 1
 453 718 l 1
 514 693 l 1
 538 633 l 1
 514 573 l 1
 453 548 l 1
 419 562 l 1
 372 230 l 1
 405 213 l 1
 445 230 l 1
 505 205 l 1
 530 145 l 1
 506 86 l 1
 512 89 l 1
 573 64 l 1
 597 4 l 1
432 17 m 1
 451 63 l 1
 445 60 l 1
 385 85 l 1
 362 141 l 1
 360 142 l 1
 337 -22 l 1
 432 17 l 1
278 278 m 1
 285 327 l 1
 270 293 l 1
 276 279 l 1
 278 278 l 1
EndSplineSet
AlternateSubs2: "Randomize subtable" AE.1 AE.2 AE.3 AE.4 AE.5 AE.6 AE.7 AE.8 AE.9 AE.10 AE.11 AE.12 AE.13 AE.14 AE.15
EndChar

StartChar: W
Encoding: 87 87 74
Width: 606
VWidth: 0
Flags: W
VStem: 176 99<-78.462 -4.0495> 255 99<636.125 698.846> 385 100<-32.7447 29.8358>
LayerCount: 2
Fore
SplineSet
575 563 m 1x60
 550 503 l 1
 533 496 l 1
 485 -3 l 2
 483 -21 465 -37 442 -40 c 0
 415 -43 389 -28 385 -6 c 2
 318 337 l 1
 275 -49 l 2
 273 -67 255 -83 232 -85 c 0
 205 -88 179 -72 176 -50 c 2xa0
 75 613 l 1
 55 621 l 1
 30 681 l 1
 55 741 l 1
 115 766 l 1
 175 741 l 1
 200 681 l 1
 175 621 l 1
 218 336 l 1
 255 669 l 2
 257 691 282 708 309 706 c 0
 332 704 351 689 354 672 c 2
 418 344 l 1
 434 501 l 1
 429 503 l 1
 405 563 l 1
 429 623 l 1
 490 648 l 1
 550 623 l 1
 575 563 l 1x60
EndSplineSet
AlternateSubs2: "Randomize subtable" W.1 W.2 W.3 W.4 W.5 W.6 W.7 W.8 W.9 W.10 W.11 W.12 W.13 W.14 W.15
EndChar

StartChar: R
Encoding: 82 82 75
Width: 603
VWidth: 0
Flags: W
HStem: 780 20G<136 232.8>
LayerCount: 2
Fore
SplineSet
195 233 m 1
 220 222 l 1
 324 199 433 267 445 393 c 1
 456 531 363 642 251 669 c 1
 245 655 l 1
 229 648 l 1
 195 233 l 1
572 60 m 1
 547 0 l 1
 487 -25 l 1
 427 0 l 1
 406 50 l 1
 188 145 l 1
 170 -68 l 1
 175 -70 l 1
 200 -130 l 1
 175 -190 l 1
 115 -215 l 1
 55 -190 l 1
 30 -130 l 1
 55 -70 l 1
 70 -64 l 1
 92 204 l 1
 91 210 92 216 94 222 c 1
 130 653 l 1
 124 655 l 1
 99 715 l 1
 124 775 l 1
 184 800 l 1
 245 775 l 1
 255 751 l 1
 437 721 559 560 544 387 c 0
 535 280 465 195 369 157 c 1
 441 126 l 1
 487 145 l 1
 547 120 l 1
 572 60 l 1
EndSplineSet
AlternateSubs2: "Randomize subtable" R.1 R.2 R.3 R.4 R.5 R.6 R.7 R.8 R.9 R.10 R.11 R.12 R.13 R.14 R.15
EndChar

StartChar: l
Encoding: 108 108 76
Width: 415
VWidth: 0
Flags: W
HStem: 415 20G<67 163>
LayerCount: 2
Fore
SplineSet
384 1 m 1
 359 -59 l 1
 299 -84 l 1
 239 -59 l 1
 223 -21 l 1
 77 19 l 2
 59 24 42 40 43 59 c 2
 60 288 l 1
 55 290 l 1
 30 350 l 1
 55 410 l 1
 115 435 l 1
 175 410 l 1
 200 350 l 1
 175 290 l 1
 160 284 l 1
 145 85 l 1
 238 60 l 1
 239 62 l 1
 299 86 l 1
 359 62 l 1
 384 1 l 1
EndSplineSet
AlternateSubs2: "Randomize subtable" l.1 l.2 l.3 l.4 l.5 l.6 l.7 l.8 l.9 l.10 l.11 l.12 l.13 l.14 l.15 l.16 l.17 l.18 l.19 l.20 l.21 l.22 l.23 l.24 l.25 l.26 l.27 l.28 l.29 l.30 l.31
EndChar

StartChar: w
Encoding: 119 119 77
Width: 618
VWidth: 0
Flags: W
HStem: 515 20G<67 163 454 550>
LayerCount: 2
Fore
SplineSet
587 417 m 1
 562 357 l 1
 542 349 l 1
 488 -9 l 2
 482 -52 407 -54 391 -17 c 2
 311 171 l 1
 242 -37 l 2
 229 -77 152 -75 144 -32 c 2
 75 381 l 1
 55 389 l 1
 30 450 l 1
 55 510 l 1
 115 535 l 1
 175 510 l 1
 200 450 l 1
 176 390 l 1
 210 179 l 1
 257 319 l 2
 264 340 292 354 318 348 c 0
 335 344 349 332 353 322 c 2
 415 175 l 1
 442 357 l 1
 417 417 l 1
 442 477 l 1
 502 502 l 1
 562 477 l 1
 587 417 l 1
EndSplineSet
AlternateSubs2: "Randomize subtable" w.1 w.2 w.3 w.4 w.5 w.6 w.7 w.8 w.9 w.10 w.11 w.12 w.13 w.14 w.15 w.16 w.17 w.18 w.19 w.20 w.21 w.22 w.23 w.24 w.25 w.26 w.27 w.28 w.29 w.30 w.31
EndChar

StartChar: d
Encoding: 100 100 78
Width: 479
VWidth: 0
Flags: W
HStem: 523 20G<67 163>
VStem: 69 100<70 394> 346 100<135.904 312.422>
LayerCount: 2
Fore
SplineSet
182 500 m 1
 309 489 410 397 438 287 c 0
 443 266 446 245 446 223 c 0
 448 85 336 -36 186 -42 c 1
 181 -55 l 1
 120 -80 l 1
 60 -55 l 1
 35 5 l 1
 60 65 l 1
 69 69 l 1
 66 394 l 1
 55 398 l 1
 30 458 l 1
 55 518 l 1
 115 543 l 1
 175 518 l 1
 182 500 l 1
166 394 m 1
 169 70 l 1
 181 65 l 1
 191 39 l 1
 268 47 346 118 346 222 c 0
 346 332 268 405 184 419 c 1
 175 398 l 1
 166 394 l 1
EndSplineSet
AlternateSubs2: "Randomize subtable" d.1 d.2 d.3 d.4 d.5 d.6 d.7 d.8 d.9 d.10 d.11 d.12 d.13 d.14 d.15 d.16 d.17 d.18 d.19 d.20 d.21 d.22 d.23 d.24 d.25 d.26 d.27 d.28 d.29 d.30 d.31
EndChar

StartChar: six
Encoding: 54 54 79
Width: 349
VWidth: 0
Flags: W
HStem: 791 20G<102 198>
LayerCount: 2
Fore
SplineSet
145 383 m 1
 238 347 341 244 315 116 c 0
 304 63 271 15 215 -5 c 0
 183 -17 144 -17 110 -2 c 0
 29 33 30 114 31 164 c 2
 34 246 l 1
 42 389 60 531 88 671 c 1
 65 726 l 1
 90 786 l 1
 150 811 l 1
 210 786 l 1
 235 726 l 1
 210 666 l 1
 186 656 l 1
 168 566 154 475 145 383 c 1
205 206 m 1
 209 204 l 1
 207 210 204 217 201 223 c 1
 205 206 l 1
EndSplineSet
AlternateSubs2: "Randomize subtable" six.1 six.2 six.3 six.4 six.5 six.6 six.7
EndChar

StartChar: Theta
Encoding: 920 920 80
Width: 509
VWidth: 0
Flags: W
HStem: -12 80<198.681 294.554> 805 20G<213 313>
LayerCount: 2
Fore
SplineSet
347 207 m 1
 362 213 l 1
 367 211 l 1
 377 257 379 311 370 371 c 0
 349 507 329 566 267 656 c 1
 263 655 l 1
 258 657 l 1
 200 577 177 521 152 411 c 1
 161 415 l 1
 222 390 l 1
 246 330 l 1
 240 315 l 1
 347 207 l 1
283 143 m 1
 176 251 l 1
 161 245 l 1
 133 256 l 1
 137 137 189 70 248 68 c 0
 252 68 256 68 260 68 c 0
 272 69 284 74 296 82 c 1
 277 128 l 1
 283 143 l 1
412 64 m 1
 376 18 321 -12 244 -12 c 1
 71 -6 27 162 34 300 c 0
 36 331 39 364 46 395 c 0
 78 539 108 613 187 719 c 1
 178 740 l 1
 203 801 l 1
 263 825 l 1
 323 801 l 1
 348 740 l 1
 339 718 l 1
 419 608 447 530 469 380 c 0
 483 287 477 178 435 99 c 1
 422 68 l 1
 412 64 l 1
EndSplineSet
AlternateSubs2: "Randomize subtable" Theta.1 Theta.2 Theta.3 Theta.4 Theta.5 Theta.6 Theta.7 Theta.8 Theta.9 Theta.10 Theta.11 Theta.12 Theta.13 Theta.14 Theta.15
EndChar

StartChar: plus
Encoding: 43 43 81
Width: 444
VWidth: 0
Flags: W
VStem: 168 100<391 537> 178 100<227.714 264 391 493.2> 185 100<99 264>
LayerCount: 2
Fore
SplineSet
300 602 m 1x80
 275 542 l 1
 268 539 l 1x80
 273 388 l 1
 330 412 l 1
 391 387 l 1
 415 327 l 1
 391 267 l 1
 330 242 l 1
 278 264 l 1x40
 285 99 l 1
 298 94 l 1
 323 33 l 1
 298 -27 l 1
 238 -52 l 1
 177 -27 l 1
 153 33 l 1
 177 94 l 1
 185 97 l 1x20
 178 280 l 1x40
 174 271 l 1
 114 246 l 1
 54 271 l 1
 29 331 l 1
 54 391 l 1
 114 416 l 1
 173 391 l 1
 168 537 l 1
 155 542 l 1
 130 602 l 1
 155 663 l 1
 215 687 l 1
 275 663 l 1
 300 602 l 1x80
EndSplineSet
AlternateSubs2: "Randomize subtable" plus.1 plus.2 plus.3 plus.4 plus.5 plus.6 plus.7
EndChar

StartChar: Gamma
Encoding: 915 915 82
Width: 372
VWidth: 0
Flags: W
HStem: 570 21G<208 304>
VStem: 44 101<415.9 607> 64 100<-2 222.1>
LayerCount: 2
Fore
SplineSet
341 655 m 1xc0
 316 595 l 1
 256 570 l 1
 196 595 l 1
 190 610 l 1
 145 607 l 1xc0
 164 -2 l 1
 176 -7 l 1
 201 -67 l 1
 176 -127 l 1
 116 -152 l 1
 56 -127 l 1
 31 -67 l 1
 56 -7 l 1
 64 -4 l 1xa0
 44 642 l 2
 43 664 67 681 89 683 c 2
 186 690 l 1
 196 715 l 1
 256 740 l 1
 316 715 l 1
 341 655 l 1xc0
EndSplineSet
AlternateSubs2: "Randomize subtable" Gamma.1 Gamma.2 Gamma.3 Gamma.4 Gamma.5 Gamma.6 Gamma.7 Gamma.8 Gamma.9 Gamma.10 Gamma.11 Gamma.12 Gamma.13 Gamma.14 Gamma.15
EndChar

StartChar: quotedblright
Encoding: 8221 8221 83
Width: 342
VWidth: 0
Flags: W
VStem: 31 280
LayerCount: 2
Fore
SplineSet
311 682 m 1
 286 621 l 1
 235 601 l 1
 127 408 l 2
 119 393 97 383 75 385 c 0
 48 388 28 407 31 429 c 2
 59 613 l 1
 58 613 l 1
 34 673 l 1
 58 734 l 1
 119 759 l 1
 165 740 l 1
 166 742 l 1
 226 767 l 1
 286 742 l 1
 311 682 l 1
EndSplineSet
AlternateSubs2: "Randomize subtable" quotedblright.1 quotedblright.2 quotedblright.3 quotedblright.4 quotedblright.5 quotedblright.6 quotedblright.7
EndChar

StartChar: k
Encoding: 107 107 84
Width: 525
VWidth: 0
Flags: W
HStem: -31 21G<103 199.8> 496 20G<67 163 361 457>
LayerCount: 2
Fore
SplineSet
480 -18 m 1
 455 -78 l 1
 395 -103 l 1
 335 -78 l 1
 310 -18 l 1
 312 -14 l 1
 292 4 274 25 261 48 c 0
 248 71 236 95 227 119 c 1
 224 112 l 1
 214 108 l 1
 236 54 l 1
 212 -6 l 1
 151 -31 l 1
 91 -6 l 1
 66 54 l 1
 91 114 l 1
 96 116 l 1
 94 137 l 1
 79 172 l 1
 88 194 l 1
 71 364 l 1
 55 371 l 1
 30 431 l 1
 55 491 l 1
 115 516 l 1
 175 491 l 1
 200 431 l 1
 175 371 l 1
 171 369 l 1
 183 250 l 1
 186 248 l 1
 328 366 l 1
 324 375 l 1
 349 435 l 1
 409 460 l 1
 469 435 l 1
 494 375 l 1
 469 315 l 1
 409 290 l 1
 387 299 l 1
 299 227 l 1
 308 176 326 127 352 82 c 0
 357 73 363 65 370 57 c 1
 395 67 l 1
 455 42 l 1
 480 -18 l 1
EndSplineSet
AlternateSubs2: "Randomize subtable" k.1 k.2 k.3 k.4 k.5 k.6 k.7 k.8 k.9 k.10 k.11 k.12 k.13 k.14 k.15 k.16 k.17 k.18 k.19 k.20 k.21 k.22 k.23 k.24 k.25 k.26 k.27 k.28 k.29 k.30 k.31
EndChar

StartChar: ae
Encoding: 230 230 85
Width: 581
VWidth: 0
Flags: W
HStem: 84 81<229 269> 543 20G<262 362 396 492>
VStem: 269 99<181 254>
LayerCount: 2
Fore
SplineSet
550 33 m 1
 525 -27 l 1
 465 -52 l 1
 405 -27 l 1
 387 17 l 1
 301 47 l 2
 286 52 271 67 271 83 c 2
 271 84 l 1
 210 87 l 1
 203 71 l 1
 185 63 l 1
 200 27 l 1
 175 -34 l 1
 115 -58 l 1
 55 -34 l 1
 30 27 l 1
 55 87 l 1
 73 95 l 1
 58 131 l 1
 83 191 l 1
 143 216 l 1
 144 216 l 1
 242 442 l 1
 227 478 l 1
 252 539 l 1
 312 563 l 1
 372 539 l 1
 382 515 l 1
 384 520 l 1
 444 545 l 1
 504 520 l 1
 529 460 l 1
 504 400 l 1
 444 375 l 1
 384 400 l 1
 374 423 l 1
 372 418 l 1
 363 414 l 1
 368 181 l 1
 418 202 l 1
 478 177 l 1
 503 117 l 1
 498 105 l 1
 525 94 l 1
 550 33 l 1
269 165 m 1
 267 254 l 1
 229 167 l 1
 269 165 l 1
EndSplineSet
AlternateSubs2: "Randomize subtable" ae.1 ae.2 ae.3 ae.4 ae.5 ae.6 ae.7 ae.8 ae.9 ae.10 ae.11 ae.12 ae.13 ae.14 ae.15 ae.16 ae.17 ae.18 ae.19 ae.20 ae.21 ae.22 ae.23 ae.24 ae.25 ae.26 ae.27 ae.28 ae.29 ae.30 ae.31
EndChar

StartChar: dotaccent
Encoding: 729 729 86
Width: 238
VWidth: 0
Flags: W
HStem: 527 170
VStem: 34 170
LayerCount: 2
Fore
SplineSet
204 612 m 1
 179 552 l 1
 119 527 l 1
 59 552 l 1
 34 612 l 1
 59 673 l 1
 119 697 l 1
 179 673 l 1
 204 612 l 1
EndSplineSet
AlternateSubs2: "Randomize subtable" dotaccent.1 dotaccent.2 dotaccent.3 dotaccent.4 dotaccent.5 dotaccent.6 dotaccent.7
EndChar

StartChar: S
Encoding: 83 83 87
Width: 447
VWidth: 0
Flags: W
HStem: 521 21G<283 379>
LayerCount: 2
Fore
SplineSet
416 606 m 1
 391 546 l 1
 331 521 l 1
 271 546 l 1
 256 581 l 1
 209 591 l 1
 172 591 139 543 162 497 c 0
 175 471 206 460 254 429 c 0
 316 389 363 328 375 256 c 0
 391 163 348 67 258 16 c 0
 240 6 215 8 200 17 c 2
 151 45 l 1
 115 30 l 1
 55 55 l 1
 30 115 l 1
 55 175 l 1
 115 200 l 1
 175 175 l 1
 200 115 l 1
 226 100 l 1
 263 134 286 190 276 246 c 0
 267 297 234 339 191 367 c 0
 161 386 98 409 69 468 c 0
 31 545 70 636 160 664 c 0
 180 670 202 673 224 671 c 0
 226 671 229 669 231 669 c 2
 269 661 l 1
 271 666 l 1
 331 691 l 1
 391 666 l 1
 416 606 l 1
EndSplineSet
AlternateSubs2: "Randomize subtable" S.1 S.2 S.3 S.4 S.5 S.6 S.7 S.8 S.9 S.10 S.11 S.12 S.13 S.14 S.15
EndChar

StartChar: x
Encoding: 120 120 88
Width: 484
VWidth: 0
Flags: W
HStem: 483 20G<80 176 280 376>
LayerCount: 2
Fore
SplineSet
413 401 m 1
 388 341 l 1
 336 320 l 1
 295 246 l 1
 370 128 l 1
 428 104 l 1
 453 44 l 1
 428 -16 l 1
 368 -41 l 1
 308 -16 l 1
 283 44 l 1
 294 71 l 1
 242 153 l 1
 187 56 l 1
 200 26 l 1
 175 -34 l 1
 115 -59 l 1
 55 -34 l 1
 30 26 l 1
 55 86 l 1
 105 107 l 1
 184 244 l 1
 126 334 l 1
 68 358 l 1
 43 418 l 1
 68 478 l 1
 128 503 l 1
 188 478 l 1
 213 418 l 1
 202 391 l 1
 236 337 l 1
 256 371 l 1
 243 401 l 1
 268 461 l 1
 328 486 l 1
 388 461 l 1
 413 401 l 1
EndSplineSet
AlternateSubs2: "Randomize subtable" x.1 x.2 x.3 x.4 x.5 x.6 x.7 x.8 x.9 x.10 x.11 x.12 x.13 x.14 x.15 x.16 x.17 x.18 x.19 x.20 x.21 x.22 x.23 x.24 x.25 x.26 x.27 x.28 x.29 x.30 x.31
EndChar

StartChar: asciicircum
Encoding: 94 94 89
Width: 488
VWidth: 0
Flags: W
LayerCount: 2
Fore
SplineSet
457 426 m 1
 432 366 l 1
 372 341 l 1
 312 366 l 1
 287 426 l 1
 305 469 l 1
 266 579 l 1
 188 431 l 1
 201 399 l 1
 176 339 l 1
 116 314 l 1
 56 339 l 1
 31 399 l 1
 56 459 l 1
 104 479 l 1
 230 715 l 2
 249 749 312 745 324 710 c 2
 398 500 l 1
 432 486 l 1
 457 426 l 1
EndSplineSet
AlternateSubs2: "Randomize subtable" asciicircum.1 asciicircum.2 asciicircum.3 asciicircum.4 asciicircum.5 asciicircum.6 asciicircum.7
EndChar

StartChar: M
Encoding: 77 77 90
Width: 558
VWidth: 0
Flags: W
VStem: 65 100<9 273 606.377 642.027> 393 99<43 340> 403 98<705.97 754.681>
LayerCount: 2
Fore
SplineSet
527 -22 m 1xc0
 502 -82 l 1
 441 -107 l 1
 381 -82 l 1
 356 -22 l 1
 381 38 l 1
 393 43 l 1xc0
 396 340 l 1
 322 74 l 2
 318 60 304 48 285 44 c 0
 259 39 231 52 225 73 c 2
 164 273 l 1
 165 9 l 1
 175 5 l 1
 200 -55 l 1
 175 -115 l 1
 115 -140 l 1
 55 -115 l 1
 30 -55 l 1
 55 5 l 1
 65 9 l 1
 64 610 l 2
 64 632 86 650 113 650 c 0
 136 650 157 638 162 620 c 2
 271 259 l 1
 403 731 l 2
 409 752 435 766 462 761 c 0
 486 757 501 738 501 722 c 2xa0
 492 42 l 1
 502 38 l 1
 527 -22 l 1xc0
EndSplineSet
AlternateSubs2: "Randomize subtable" M.1 M.2 M.3 M.4 M.5 M.6 M.7 M.8 M.9 M.10 M.11 M.12 M.13 M.14 M.15
EndChar

StartChar: quoteleft
Encoding: 8216 8216 91
Width: 282
VWidth: 0
Flags: W
HStem: 771 20G<108 204>
LayerCount: 2
Fore
SplineSet
251 446 m 1
 226 386 l 1
 166 361 l 1
 106 386 l 1
 81 446 l 1
 93 474 l 1
 36 565 l 2
 30 574 29 588 36 600 c 2
 83 678 l 1
 71 706 l 1
 96 766 l 1
 156 791 l 1
 216 766 l 1
 241 706 l 1
 216 646 l 1
 161 623 l 1
 136 583 l 1
 169 530 l 1
 226 506 l 1
 251 446 l 1
EndSplineSet
AlternateSubs2: "Randomize subtable" quoteleft.1 quoteleft.2 quoteleft.3 quoteleft.4 quoteleft.5 quoteleft.6 quoteleft.7
EndChar

StartChar: quoteright
Encoding: 8217 8217 92
Width: 275
VWidth: 0
Flags: W
HStem: 781 20G<78 174>
LayerCount: 2
Fore
SplineSet
201 470 m 1
 176 410 l 1
 116 385 l 1
 56 410 l 1
 31 470 l 1
 56 530 l 1
 115 555 l 1
 139 591 l 1
 115 636 l 1
 66 656 l 1
 41 716 l 1
 66 776 l 1
 126 801 l 1
 186 776 l 1
 211 716 l 1
 198 684 l 1
 240 606 l 2
 246 595 246 582 239 571 c 2
 190 497 l 1
 201 470 l 1
EndSplineSet
AlternateSubs2: "Randomize subtable" quoteright.1 quoteright.2 quoteright.3 quoteright.4 quoteright.5 quoteright.6 quoteright.7
EndChar

StartChar: Delta
Encoding: 916 916 93
Width: 506
VWidth: 0
Flags: W
LayerCount: 2
Fore
SplineSet
186 52 m 1
 254 83 343 127 375 147 c 1
 376 198 341 375 305 504 c 1
 186 52 l 1
84 53 m 1
 246 672 l 2
 254 700 296 712 324 696 c 0
 401 653 508 171 465 108 c 0
 439 70 285 0 194 -36 c 1
 176 -80 l 1
 116 -104 l 1
 56 -80 l 1
 31 -19 l 1
 56 41 l 1
 84 53 l 1
EndSplineSet
AlternateSubs2: "Randomize subtable" Delta.1 Delta.2 Delta.3 Delta.4 Delta.5 Delta.6 Delta.7 Delta.8 Delta.9 Delta.10 Delta.11 Delta.12 Delta.13 Delta.14 Delta.15
EndChar

StartChar: T
Encoding: 84 84 94
Width: 466
VWidth: 0
Flags: W
HStem: 541 21G<67 163> 770 20G<302 398.8>
VStem: 170 100<65 393.364> 181 101<303.583 581>
LayerCount: 2
Fore
SplineSet
304 -0 m 1xe0
 279 -61 l 1
 219 -85 l 1
 159 -61 l 1
 134 -0 l 1
 159 60 l 1
 170 65 l 1xe0
 181 581 l 1xd0
 175 566 l 1
 115 541 l 1
 55 566 l 1
 30 626 l 1
 55 686 l 1
 115 711 l 1
 170 688 l 1xe0
 272 722 l 1
 290 765 l 1
 350 790 l 1
 411 765 l 1
 435 705 l 1
 411 645 l 1
 350 620 l 1
 295 643 l 1
 282 639 l 1xd0
 270 64 l 1
 279 60 l 1
 304 -0 l 1xe0
EndSplineSet
AlternateSubs2: "Randomize subtable" T.1 T.2 T.3 T.4 T.5 T.6 T.7 T.8 T.9 T.10 T.11 T.12 T.13 T.14 T.15
EndChar

StartChar: c
Encoding: 99 99 95
Width: 456
VWidth: 0
Flags: W
LayerCount: 2
Fore
SplineSet
413 84 m 1
 388 24 l 1
 340 4 l 1
 320 -17 293 -32 260 -39 c 0
 146 -62 67 18 42 99 c 0
 28 144 27 195 42 247 c 0
 67 333 146 432 270 410 c 0
 294 406 314 397 332 385 c 1
 340 388 l 1
 400 363 l 1
 425 303 l 1
 400 243 l 1
 340 218 l 1
 280 243 l 1
 255 303 l 1
 264 326 l 1
 258 329 253 331 248 332 c 0
 215 338 161 306 139 229 c 0
 128 190 129 150 139 118 c 0
 160 52 204 33 236 39 c 0
 243 40 250 44 257 50 c 1
 243 84 l 1
 268 144 l 1
 328 169 l 1
 388 144 l 1
 413 84 l 1
EndSplineSet
AlternateSubs2: "Randomize subtable" c.1 c.2 c.3 c.4 c.5 c.6 c.7 c.8 c.9 c.10 c.11 c.12 c.13 c.14 c.15 c.16 c.17 c.18 c.19 c.20 c.21 c.22 c.23 c.24 c.25 c.26 c.27 c.28 c.29 c.30 c.31
EndChar

StartChar: circumflex
Encoding: 710 710 96
Width: 495
VWidth: 0
Flags: W
HStem: 451 45G<67 167 328.2 425>
LayerCount: 2
Fore
SplineSet
462 560 m 1
 437 500 l 1
 377 475 l 1
 316 500 l 1
 292 560 l 1
 305 594 l 1
 289 626 l 1
 198 546 l 1
 202 536 l 1
 177 475 l 1
 117 451 l 1
 57 475 l 1
 32 536 l 1
 57 596 l 1
 117 621 l 1
 137 613 l 1
 269 726 l 2
 287 742 320 744 340 729 c 0
 345 725 350 718 352 714 c 2
 390 640 l 1
 437 620 l 1
 462 560 l 1
EndSplineSet
AlternateSubs2: "Randomize subtable" circumflex.1 circumflex.2 circumflex.3 circumflex.4 circumflex.5 circumflex.6 circumflex.7
EndChar

StartChar: oe
Encoding: 339 339 97
Width: 587
VWidth: 0
Flags: W
HStem: 477 20G<255 351.8 417.2 514>
VStem: 242 103<49 131 213 258.3> 252 96<213 347>
LayerCount: 2
Fore
SplineSet
550 187 m 1xa0
 525 127 l 1
 465 102 l 1
 405 127 l 1
 400 139 l 1
 345 131 l 1xc0
 342 31 l 1
 410 15 l 1
 411 19 l 1
 471 44 l 1
 532 19 l 1
 556 -41 l 1
 532 -101 l 1
 471 -126 l 1
 411 -101 l 1
 396 -65 l 1
 285 -39 l 1
 161 -37 61 45 37 152 c 0
 8 281 87 418 232 447 c 1
 243 472 l 1
 303 497 l 1
 364 472 l 1
 378 438 l 1
 403 433 l 1
 405 438 l 1
 466 463 l 1
 526 438 l 1
 551 378 l 1
 526 318 l 1
 466 293 l 1
 405 318 l 1
 391 352 l 1
 366 357 l 1
 364 352 l 1
 352 347 l 1
 348 213 l 1
 393 219 l 1
 405 248 l 1
 465 272 l 1
 525 248 l 1
 550 187 l 1xa0
242 49 m 1
 252 348 l 1xa0
 243 352 l 1
 238 364 l 1
 170 339 114 259 135 167 c 0
 149 106 192 65 242 49 c 1
EndSplineSet
AlternateSubs2: "Randomize subtable" oe.1 oe.2 oe.3 oe.4 oe.5 oe.6 oe.7 oe.8 oe.9 oe.10 oe.11 oe.12 oe.13 oe.14 oe.15 oe.16 oe.17 oe.18 oe.19 oe.20 oe.21 oe.22 oe.23 oe.24 oe.25 oe.26 oe.27 oe.28 oe.29 oe.30 oe.31
EndChar

StartChar: exclam
Encoding: 33 33 98
Width: 289
VWidth: 0
Flags: W
HStem: 782 20G<108 204>
VStem: 29 231
LayerCount: 2
Fore
SplineSet
199 213 m 1
 174 153 l 1
 114 128 l 1
 54 153 l 1
 29 213 l 1
 54 273 l 1
 69 279 l 1
 101 655 l 1
 96 657 l 1
 71 717 l 1
 96 777 l 1
 156 802 l 1
 216 777 l 1
 241 717 l 1
 216 657 l 1
 201 651 l 1
 169 275 l 1
 174 273 l 1
 199 213 l 1
260 -1 m 1
 235 -61 l 1
 175 -86 l 1
 115 -61 l 1
 90 -1 l 1
 115 59 l 1
 175 84 l 1
 235 59 l 1
 260 -1 l 1
EndSplineSet
AlternateSubs2: "Randomize subtable" exclam.1 exclam.2 exclam.3 exclam.4 exclam.5 exclam.6 exclam.7
EndChar

StartChar: t
Encoding: 116 116 99
Width: 512
VWidth: 0
Flags: W
HStem: 482 20G<65 165 346 446.833>
VStem: 203 100<73 381>
LayerCount: 2
Fore
SplineSet
338 9 m 1
 313 -51 l 1
 253 -76 l 1
 193 -51 l 1
 168 9 l 1
 193 69 l 1
 203 73 l 1
 206 381 l 1
 185 380 l 1
 175 357 l 1
 115 332 l 1
 55 357 l 1
 30 417 l 1
 55 478 l 1
 115 502 l 1
 175 478 l 1
 182 460 l 1
 326 468 l 1
 336 492 l 1
 396 516 l 1
 457 492 l 1
 481 431 l 1
 457 371 l 1
 396 346 l 1
 336 371 l 1
 329 387 l 1
 306 386 l 1
 303 73 l 1
 313 69 l 1
 338 9 l 1
EndSplineSet
AlternateSubs2: "Randomize subtable" t.1 t.2 t.3 t.4 t.5 t.6 t.7 t.8 t.9 t.10 t.11 t.12 t.13 t.14 t.15 t.16 t.17 t.18 t.19 t.20 t.21 t.22 t.23 t.24 t.25 t.26 t.27 t.28 t.29 t.30 t.31
EndChar

StartChar: z
Encoding: 122 122 100
Width: 412
VWidth: 0
Flags: W
HStem: -49 81<150 227> 483 20G<79 175.696>
LayerCount: 2
Fore
SplineSet
381 -6 m 1
 356 -66 l 1
 296 -91 l 1
 236 -66 l 1
 228 -47 l 1
 81 -49 l 2
 46 -49 22 -22 33 4 c 2
 181 356 l 1
 127 333 l 1
 67 358 l 1
 42 418 l 1
 67 478 l 1
 127 503 l 1
 183 480 l 1
 263 506 l 2
 288 514 318 505 328 485 c 0
 333 476 331 461 329 456 c 2
 150 32 l 1
 227 33 l 1
 236 54 l 1
 296 79 l 1
 356 54 l 1
 381 -6 l 1
EndSplineSet
AlternateSubs2: "Randomize subtable" z.1 z.2 z.3 z.4 z.5 z.6 z.7 z.8 z.9 z.10 z.11 z.12 z.13 z.14 z.15 z.16 z.17 z.18 z.19 z.20 z.21 z.22 z.23 z.24 z.25 z.26 z.27 z.28 z.29 z.30 z.31
EndChar

StartChar: m
Encoding: 109 109 101
Width: 576
VWidth: 0
Flags: W
VStem: 395 98<469.404 515.149> 408 100<37 185>
LayerCount: 2
Fore
SplineSet
545 -28 m 1x40
 520 -88 l 1
 460 -113 l 1
 400 -88 l 1
 375 -28 l 1
 400 32 l 1
 408 35 l 1x40
 403 185 l 1
 337 -31 l 2
 333 -43 321 -56 304 -60 c 0
 278 -67 249 -55 241 -34 c 2
 171 136 l 1
 168 78 l 1
 175 75 l 1
 200 15 l 1
 175 -45 l 1
 115 -70 l 1
 55 -45 l 1
 30 15 l 1
 55 75 l 1
 68 81 l 1
 83 361 l 2
 84 383 108 401 135 400 c 0
 157 399 175 385 180 372 c 2
 281 124 l 1
 395 492 l 2
 402 513 429 526 455 521 c 0
 478 517 492 499 493 483 c 2x80
 508 37 l 1
 520 32 l 1
 545 -28 l 1x40
EndSplineSet
AlternateSubs2: "Randomize subtable" m.1 m.2 m.3 m.4 m.5 m.6 m.7 m.8 m.9 m.10 m.11 m.12 m.13 m.14 m.15 m.16 m.17 m.18 m.19 m.20 m.21 m.22 m.23 m.24 m.25 m.26 m.27 m.28 m.29 m.30 m.31
EndChar

StartChar: e
Encoding: 101 101 102
Width: 430
VWidth: 0
Flags: W
HStem: 477 20G<261 357>
VStem: 53 99<127.455 211 349 381> 64 98<19 186.875>
LayerCount: 2
Fore
SplineSet
369 235 m 1xc0
 344 175 l 1
 284 150 l 1
 224 175 l 1
 208 213 l 1
 176 221 l 1
 175 219 l 1
 156 211 l 1
 162 19 l 1
 241 33 l 1
 254 65 l 1
 314 90 l 1
 374 65 l 1
 399 5 l 1
 374 -55 l 1
 314 -80 l 1
 254 -55 l 1
 251 -47 l 1
 125 -69 l 2
 93 -75 65 -53 64 -31 c 2xa0
 56 218 l 1
 55 219 l 1
 30 279 l 1
 53 334 l 1
 50 423 l 2
 49 448 78 465 103 464 c 2
 242 456 l 1
 249 472 l 1
 309 497 l 1
 369 472 l 1
 394 412 l 1
 369 352 l 1
 309 327 l 1
 249 352 l 1
 239 376 l 1
 151 381 l 1
 152 349 l 1
 175 340 l 1
 191 301 l 1
 223 293 l 1
 224 295 l 1
 284 320 l 1
 344 295 l 1
 369 235 l 1xc0
EndSplineSet
AlternateSubs2: "Randomize subtable" e.1 e.2 e.3 e.4 e.5 e.6 e.7 e.8 e.9 e.10 e.11 e.12 e.13 e.14 e.15 e.16 e.17 e.18 e.19 e.20 e.21 e.22 e.23 e.24 e.25 e.26 e.27 e.28 e.29 e.30 e.31
EndChar

StartChar: numbersign
Encoding: 35 35 103
Width: 553
VWidth: 0
Flags: W
HStem: 525 20G<66 162 398 487> 765 20G<327 423>
LayerCount: 2
Fore
SplineSet
516 254 m 1
 491 194 l 1
 431 169 l 1
 371 194 l 1
 362 216 l 1
 350 216 l 1
 318 13 l 2
 315 -6 295 -20 274 -22 c 2
 239 -25 l 1
 228 -51 l 1
 168 -76 l 1
 108 -51 l 1
 83 9 l 1
 108 69 l 1
 128 77 l 1
 143 180 l 1
 135 177 l 1
 75 202 l 1
 50 262 l 1
 75 322 l 1
 135 347 l 1
 167 334 l 1
 178 409 l 1
 174 400 l 1
 114 375 l 1
 54 400 l 1
 29 460 l 1
 54 520 l 1
 114 545 l 1
 174 520 l 1
 183 498 l 1
 191 498 l 1
 222 701 l 2
 225 718 244 735 269 736 c 2
 306 737 l 1
 315 760 l 1
 375 785 l 1
 435 760 l 1
 460 700 l 1
 435 640 l 1
 415 632 l 1
 398 520 l 1
 439 537 l 1
 499 512 l 1
 524 452 l 1
 499 392 l 1
 439 367 l 1
 378 392 l 1
 378 393 l 1
 362 296 l 1
 363 296 l 1
 371 314 l 1
 431 339 l 1
 491 314 l 1
 516 254 l 1
280 416 m 1
 270 352 l 1
 280 416 l 1
293 496 m 1
 316 640 l 1
 315 640 l 1
 314 643 l 1
 292 496 l 1
 293 496 l 1
EndSplineSet
AlternateSubs2: "Randomize subtable" numbersign.1 numbersign.2 numbersign.3 numbersign.4 numbersign.5 numbersign.6 numbersign.7
EndChar

StartChar: L
Encoding: 76 76 104
Width: 449
VWidth: 0
Flags: W
VStem: 38 101<64 207.25> 62 100<444.75 609>
LayerCount: 2
Fore
SplineSet
418 -59 m 1x80
 393 -119 l 1
 333 -144 l 1
 273 -119 l 1
 253 -72 l 1
 65 4 l 2
 50 10 37 25 38 41 c 2x80
 62 611 l 1
 55 614 l 1
 30 674 l 1
 55 734 l 1
 115 759 l 1
 175 734 l 1
 200 674 l 1
 175 614 l 1
 162 609 l 1x40
 139 64 l 1
 284 6 l 1
 333 26 l 1
 393 1 l 1
 418 -59 l 1x80
EndSplineSet
AlternateSubs2: "Randomize subtable" L.1 L.2 L.3 L.4 L.5 L.6 L.7 L.8 L.9 L.10 L.11 L.12 L.13 L.14 L.15
EndChar

StartChar: germandbls
Encoding: 223 223 105
Width: 609
VWidth: 0
Flags: W
HStem: 224 88<348.286 423.792> 500 20G<247 340 444 540>
LayerCount: 2
Fore
SplineSet
577 451 m 1
 552 391 l 1
 492 366 l 1
 441 387 l 1
 424 387 408 394 398 404 c 0
 389 414 382 418 377 421 c 0
 376 421 376 422 375 422 c 2
 355 375 l 1
 313 358 l 1
 313 337 324 318 348 306 c 0
 354 303 366 317 433 312 c 0
 522 306 572 235 576 169 c 0
 580 104 543 38 470 11 c 0
 456 6 440 6 427 11 c 2
 360 37 l 1
 343 30 l 1
 325 2 300 -21 268 -38 c 0
 247 -49 219 -45 203 -31 c 2
 133 33 l 1
 115 25 l 1
 55 50 l 1
 30 110 l 1
 55 171 l 1
 115 195 l 1
 175 171 l 1
 200 110 l 1
 195 98 l 1
 244 53 l 1
 224 101 l 1
 249 161 l 1
 266 168 l 1
 256 195 238 212 221 217 c 0
 211 220 140 209 87 251 c 0
 7 315 31 408 89 455 c 0
 122 482 175 497 228 479 c 1
 235 495 l 1
 295 520 l 1
 340 501 l 1
 366 506 395 504 424 491 c 1
 432 511 l 1
 492 536 l 1
 552 511 l 1
 577 451 l 1
388 115 m 1
 445 93 l 1
 464 107 478 134 476 165 c 0
 473 208 442 231 424 232 c 0
 420 232 388 220 347 224 c 1
 359 204 366 183 370 161 c 1
 388 115 l 1
227 299 m 1
 211 328 210 361 218 390 c 1
 212 392 207 395 203 398 c 0
 183 414 173 411 159 399 c 0
 133 378 125 334 158 308 c 0
 167 300 182 308 227 299 c 1
EndSplineSet
AlternateSubs2: "Randomize subtable" germandbls.1 germandbls.2 germandbls.3 germandbls.4 germandbls.5 germandbls.6 germandbls.7 germandbls.8 germandbls.9 germandbls.10 germandbls.11 germandbls.12 germandbls.13 germandbls.14 germandbls.15 germandbls.16 germandbls.17 germandbls.18 germandbls.19 germandbls.20 germandbls.21 germandbls.22 germandbls.23 germandbls.24 germandbls.25 germandbls.26 germandbls.27 germandbls.28 germandbls.29 germandbls.30 germandbls.31
EndChar

StartChar: uni0237
Encoding: 567 567 106
Width: 389
VWidth: 0
Flags: W
HStem: 526 20G<224.2 321>
VStem: 221 100<18 397>
LayerCount: 2
Fore
SplineSet
358 461 m 1
 333 401 l 1
 323 397 l 1
 321 -65 l 2
 321 -87 297 -105 270 -105 c 0
 259 -105 246 -100 240 -96 c 2
 148 -38 l 1
 115 -52 l 1
 55 -27 l 1
 30 33 l 1
 55 93 l 1
 115 118 l 1
 175 93 l 1
 200 33 l 1
 199 32 l 1
 221 18 l 1
 223 397 l 1
 212 401 l 1
 188 461 l 1
 212 521 l 1
 273 546 l 1
 333 521 l 1
 358 461 l 1
EndSplineSet
AlternateSubs2: "Randomize subtable" uni0237.1 uni0237.2 uni0237.3 uni0237.4 uni0237.5 uni0237.6 uni0237.7 uni0237.8 uni0237.9 uni0237.10 uni0237.11 uni0237.12 uni0237.13 uni0237.14 uni0237.15 uni0237.16 uni0237.17 uni0237.18 uni0237.19 uni0237.20 uni0237.21 uni0237.22 uni0237.23 uni0237.24 uni0237.25 uni0237.26 uni0237.27 uni0237.28 uni0237.29 uni0237.30 uni0237.31
EndChar

StartChar: caron
Encoding: 711 711 107
Width: 446
VWidth: 0
Flags: W
HStem: 553 21G<325 376>
LayerCount: 2
Fore
SplineSet
413 638 m 1
 388 578 l 1
 328 553 l 1
 325 554 l 1
 272 480 l 2
 254 455 204 454 185 482 c 2
 118 581 l 1
 58 606 l 1
 33 666 l 1
 58 726 l 1
 118 751 l 1
 178 726 l 1
 203 666 l 1
 192 640 l 1
 231 583 l 1
 253 614 l 1
 243 638 l 1
 268 698 l 1
 328 723 l 1
 388 698 l 1
 413 638 l 1
EndSplineSet
AlternateSubs2: "Randomize subtable" caron.1 caron.2 caron.3 caron.4 caron.5 caron.6 caron.7
EndChar

StartChar: quotedblleft
Encoding: 8220 8220 108
Width: 380
VWidth: 0
Flags: W
HStem: 764 20G<68 164.333>
VStem: 31 316
LayerCount: 2
Fore
SplineSet
113 615 m 1
 56 639 l 1
 31 699 l 1
 56 759 l 1
 116 784 l 1
 174 760 l 1
 221 779 l 1
 281 754 l 1
 306 694 l 1
 286 645 l 1
 347 419 l 2
 353 398 336 376 309 371 c 0
 286 367 264 377 254 392 c 2
 113 615 l 1
EndSplineSet
AlternateSubs2: "Randomize subtable" quotedblleft.1 quotedblleft.2 quotedblleft.3 quotedblleft.4 quotedblleft.5 quotedblleft.6 quotedblleft.7
EndChar

StartChar: A
Encoding: 65 65 109
Width: 508
VWidth: 0
Flags: W
LayerCount: 2
Fore
SplineSet
438 276 m 1
 413 216 l 1
 397 210 l 1
 430 28 l 1
 452 19 l 1
 477 -41 l 1
 452 -102 l 1
 392 -126 l 1
 332 -102 l 1
 307 -41 l 1
 331 16 l 1
 303 174 l 1
 262 139 l 1
 266 129 l 1
 241 69 l 1
 181 44 l 1
 178 45 l 1
 175 29 l 1
 200 -30 l 1
 175 -90 l 1
 115 -115 l 1
 55 -90 l 1
 30 -30 l 1
 55 30 l 1
 76 39 l 1
 198 775 l 2
 202 797 227 813 254 810 c 0
 277 808 294 791 297 776 c 2
 372 353 l 1
 413 337 l 1
 438 276 l 1
272 266 m 1
 268 276 l 1
 280 304 l 1
 249 476 l 1
 205 209 l 1
 272 266 l 1
EndSplineSet
AlternateSubs2: "Randomize subtable" A.1 A.2 A.3 A.4 A.5 A.6 A.7 A.8 A.9 A.10 A.11 A.12 A.13 A.14 A.15
EndChar

StartChar: I
Encoding: 73 73 110
Width: 245
VWidth: 0
Flags: W
HStem: -160 21G<67 163> 765 20G<81 177>
VStem: 79 100<-5.20312 636>
LayerCount: 2
Fore
SplineSet
214 700 m 1
 189 640 l 1
 180 636 l 1
 180 579 180 522 179 466 c 0
 178 389 180 312 179 233 c 0
 177 151 174 69 169 -13 c 1
 175 -15 l 1
 200 -75 l 1
 175 -135 l 1
 115 -160 l 1
 55 -135 l 1
 30 -75 l 1
 55 -15 l 1
 69 -9 l 1
 74 72 77 153 79 234 c 0
 80 311 78 388 79 467 c 0
 80 523 80 580 80 636 c 1
 69 640 l 1
 44 700 l 1
 69 760 l 1
 129 785 l 1
 189 760 l 1
 214 700 l 1
EndSplineSet
AlternateSubs2: "Randomize subtable" I.1 I.2 I.3 I.4 I.5 I.6 I.7 I.8 I.9 I.10 I.11 I.12 I.13 I.14 I.15
EndChar

StartChar: Phi
Encoding: 934 934 111
Width: 471
VWidth: 0
Flags: W
HStem: 250 80<154.407 187> 526 20G<134 182.5>
LayerCount: 2
Fore
SplineSet
297 24 m 1
 272 -36 l 1
 212 -61 l 1
 152 -36 l 1
 127 24 l 1
 152 84 l 1
 169 91 l 1
 187 250 l 1
 108 263 39 308 31 391 c 1
 25 472 89 542 179 546 c 0
 186 546 193 546 201 545 c 1
 221 553 l 1
 225 584 l 1
 222 585 l 1
 197 645 l 1
 222 705 l 1
 282 730 l 1
 342 705 l 1
 367 645 l 1
 342 585 l 1
 325 578 l 1
 319 527 l 1
 379 516 422 471 435 426 c 0
 444 393 441 357 419 322 c 0
 391 276 338 259 297 251 c 0
 294 250 291 249 288 249 c 1
 269 85 l 1
 272 84 l 1
 297 24 l 1
175 464 m 1
 155 458 128 437 131 396 c 0
 131 390 133 386 134 381 c 0
 141 356 164 338 196 330 c 1
 206 416 l 1
 193 421 l 1
 175 464 l 1
320 437 m 1
 313 421 l 1
 307 418 l 1
 297 335 l 1
 313 340 324 346 330 357 c 0
 345 381 341 407 329 426 c 0
 326 430 323 434 320 437 c 1
EndSplineSet
AlternateSubs2: "Randomize subtable" Phi.1 Phi.2 Phi.3 Phi.4 Phi.5 Phi.6 Phi.7 Phi.8 Phi.9 Phi.10 Phi.11 Phi.12 Phi.13 Phi.14 Phi.15
EndChar

StartChar: asterisk
Encoding: 42 42 112
Width: 428
VWidth: 0
Flags: W
HStem: 817 20G<168 264>
LayerCount: 2
Fore
SplineSet
154 697 m 1
 131 752 l 1
 156 812 l 1
 216 837 l 1
 276 812 l 1
 301 752 l 1
 278 696 l 1
 283 667 l 1
 355 658 l 2
 368 656 383 649 391 638 c 0
 404 619 396 594 372 583 c 0
 349 573 327 560 307 545 c 1
 380 165 l 2
 383 147 370 129 349 122 c 0
 324 114 294 124 284 144 c 2
 183 343 l 1
 158 218 l 2
 154 196 128 181 101 185 c 0
 76 188 60 207 59 223 c 0
 56 311 71 372 101 436 c 1
 111 485 l 1
 35 636 l 1
 15 669 58 694 89 691 c 2
 151 683 l 1
 154 697 l 1
EndSplineSet
AlternateSubs2: "Randomize subtable" asterisk.1 asterisk.2 asterisk.3 asterisk.4 asterisk.5 asterisk.6 asterisk.7
EndChar

StartChar: q
Encoding: 113 113 113
Width: 521
VWidth: 0
Flags: W
HStem: 487 20G<198 294.8>
VStem: 31 100<101.741 285.974>
LayerCount: 2
Fore
SplineSet
488 -6 m 1
 463 -66 l 1
 403 -91 l 1
 389 -85 l 1
 339 -136 l 2
 316 -159 266 -155 253 -125 c 2
 227 -66 l 1
 99 -49 33 69 31 179 c 0
 30 213 35 249 47 284 c 0
 67 344 105 403 167 437 c 1
 186 482 l 1
 246 507 l 1
 307 482 l 1
 326 435 l 1
 389 402 437 350 464 288 c 0
 498 211 496 124 461 55 c 1
 463 54 l 1
 488 -6 l 1
290 32 m 1
 296 18 l 1
 312 24 328 35 341 49 c 1
 343 54 l 1
 346 55 l 1
 385 101 404 180 369 261 c 0
 352 301 324 334 291 356 c 1
 246 337 l 1
 202 355 l 1
 161 318 128 251 131 181 c 0
 132 150 138 121 148 98 c 1
 161 130 l 1
 221 154 l 1
 281 130 l 1
 306 69 l 1
 290 32 l 1
EndSplineSet
AlternateSubs2: "Randomize subtable" q.1 q.2 q.3 q.4 q.5 q.6 q.7 q.8 q.9 q.10 q.11 q.12 q.13 q.14 q.15 q.16 q.17 q.18 q.19 q.20 q.21 q.22 q.23 q.24 q.25 q.26 q.27 q.28 q.29 q.30 q.31
EndChar

StartChar: j
Encoding: 106 106 114
Width: 373
VWidth: 0
Flags: W
HStem: 470 20G<209 305>
VStem: 30 312
LayerCount: 2
Fore
SplineSet
342 405 m 1
 317 345 l 1
 302 339 l 1
 260 -151 l 2
 258 -173 233 -190 206 -189 c 0
 187 -188 171 -178 164 -165 c 2
 104 -56 l 1
 55 -35 l 1
 30 25 l 1
 55 85 l 1
 115 110 l 1
 175 85 l 1
 179 76 l 1
 202 343 l 1
 197 345 l 1
 172 405 l 1
 197 465 l 1
 257 490 l 1
 317 465 l 1
 342 405 l 1
EndSplineSet
AlternateSubs2: "Randomize subtable" j.1 j.2 j.3 j.4 j.5 j.6 j.7 j.8 j.9 j.10 j.11 j.12 j.13 j.14 j.15 j.16 j.17 j.18 j.19 j.20 j.21 j.22 j.23 j.24 j.25 j.26 j.27 j.28 j.29 j.30 j.31
EndChar

StartChar: v
Encoding: 118 118 115
Width: 462
VWidth: 0
Flags: W
HStem: 529 20G<67 163 298 394>
LayerCount: 2
Fore
SplineSet
431 380 m 1
 406 320 l 1
 367 304 l 1
 256 41 l 2
 251 29 236 17 218 14 c 0
 191 10 165 25 160 46 c 2
 81 393 l 1
 55 404 l 1
 30 464 l 1
 55 524 l 1
 115 549 l 1
 175 524 l 1
 200 464 l 1
 178 411 l 1
 223 213 l 1
 277 341 l 1
 261 380 l 1
 286 440 l 1
 346 465 l 1
 406 440 l 1
 431 380 l 1
EndSplineSet
AlternateSubs2: "Randomize subtable" v.1 v.2 v.3 v.4 v.5 v.6 v.7 v.8 v.9 v.10 v.11 v.12 v.13 v.14 v.15 v.16 v.17 v.18 v.19 v.20 v.21 v.22 v.23 v.24 v.25 v.26 v.27 v.28 v.29 v.30 v.31
EndChar

StartChar: X
Encoding: 88 88 116
Width: 480
VWidth: 0
Flags: W
HStem: 781 20G<303 399>
LayerCount: 2
Fore
SplineSet
436 716 m 1
 411 656 l 1
 382 644 l 1
 299 359 l 1
 391 86 l 1
 424 72 l 1
 449 12 l 1
 424 -48 l 1
 364 -73 l 1
 304 -48 l 1
 279 12 l 1
 298 57 l 1
 251 195 l 1
 180 -50 l 1
 200 -97 l 1
 175 -157 l 1
 115 -182 l 1
 55 -157 l 1
 30 -97 l 1
 55 -37 l 1
 84 -25 l 1
 196 359 l 1
 118 590 l 1
 85 604 l 1
 60 664 l 1
 85 724 l 1
 145 749 l 1
 205 724 l 1
 230 664 l 1
 211 619 l 1
 244 524 l 1
 286 669 l 1
 266 716 l 1
 291 776 l 1
 351 801 l 1
 411 776 l 1
 436 716 l 1
EndSplineSet
AlternateSubs2: "Randomize subtable" X.1 X.2 X.3 X.4 X.5 X.6 X.7 X.8 X.9 X.10 X.11 X.12 X.13 X.14 X.15
EndChar

StartChar: dollar
Encoding: 36 36 117
Width: 505
VWidth: 0
Flags: W
HStem: 867 20G<191 287>
VStem: 169 99<49 130> 180 97<459 617.111> 185 101<459 658>
LayerCount: 2
Fore
SplineSet
472 469 m 1xa0
 448 409 l 1
 387 384 l 1
 327 409 l 1
 302 469 l 1
 327 529 l 1
 372 548 l 1
 375 564 374 580 371 596 c 0
 360 646 326 680 286 690 c 1x90
 277 362 l 1
 331 318 386 274 409 203 c 0
 418 175 421 147 418 120 c 0
 409 30 335 -64 213 -56 c 0
 190 -55 168 -49 149 -41 c 0
 67 -6 27 75 45 152 c 1
 29 191 l 1
 54 251 l 1
 114 276 l 1
 174 251 l 1
 176 332 l 1
 132 370 87 413 64 474 c 0
 24 579 62 710 173 756 c 1
 154 802 l 1
 179 862 l 1
 239 887 l 1
 299 862 l 1
 324 802 l 1
 310 768 l 1
 398 749 456 680 470 609 c 0
 477 574 475 536 460 499 c 1
 472 469 l 1xa0
274 245 m 1
 268 38 l 1xc0
 292 54 314 84 318 126 c 0
 320 144 318 164 312 183 c 0
 305 206 291 226 274 245 c 1
169 49 m 1
 171 130 l 1
 142 117 l 1
 142 91 153 67 169 49 c 1
180 459 m 1xa0
 185 658 l 1x90
 153 621 136 560 160 497 c 0
 165 483 172 471 180 459 c 1xa0
EndSplineSet
AlternateSubs2: "Randomize subtable" dollar.1 dollar.2 dollar.3 dollar.4 dollar.5 dollar.6 dollar.7
EndChar

StartChar: n
Encoding: 110 110 118
Width: 456
VWidth: 0
Flags: W
HStem: 464 20G<292 388>
VStem: 67 100<66 250> 296 96<235 333>
LayerCount: 2
Fore
SplineSet
425 399 m 1
 400 338 l 1
 392 335 l 1
 403 59 l 2
 404 44 392 29 375 22 c 0
 351 12 320 21 308 40 c 2
 174 250 l 1
 167 64 l 1
 175 61 l 1
 200 0 l 1
 175 -60 l 1
 115 -85 l 1
 55 -60 l 1
 30 0 l 1
 55 61 l 1
 67 66 l 1
 80 409 l 2
 81 431 104 448 131 447 c 0
 150 447 168 437 175 426 c 2
 296 235 l 1
 292 333 l 1
 280 338 l 1
 255 399 l 1
 280 459 l 1
 340 484 l 1
 400 459 l 1
 425 399 l 1
EndSplineSet
AlternateSubs2: "Randomize subtable" n.1 n.2 n.3 n.4 n.5 n.6 n.7 n.8 n.9 n.10 n.11 n.12 n.13 n.14 n.15 n.16 n.17 n.18 n.19 n.20 n.21 n.22 n.23 n.24 n.25 n.26 n.27 n.28 n.29 n.30 n.31
EndChar

StartChar: K
Encoding: 75 75 119
Width: 521
VWidth: 0
Flags: W
HStem: 548 21G<399 453>
LayerCount: 2
Fore
SplineSet
484 -8 m 1
 459 -68 l 1
 399 -93 l 1
 339 -68 l 1
 316 -13 l 1
 286 9 263 39 249 72 c 0
 227 125 211 180 199 236 c 1
 186 231 l 1
 169 -38 l 1
 175 -40 l 1
 200 -100 l 1
 175 -160 l 1
 115 -185 l 1
 55 -160 l 1
 30 -100 l 1
 55 -40 l 1
 69 -34 l 1
 86 234 l 1
 80 237 l 1
 55 297 l 1
 80 357 l 1
 95 363 l 1
 112 634 l 1
 106 636 l 1
 81 697 l 1
 106 757 l 1
 166 782 l 1
 226 757 l 1
 251 697 l 1
 226 636 l 1
 212 630 l 1
 200 448 l 1
 329 611 l 1
 320 633 l 1
 345 693 l 1
 405 718 l 1
 465 693 l 1
 490 633 l 1
 465 573 l 1
 405 548 l 1
 399 550 l 1
 279 398 l 1
 283 295 306 192 344 97 c 0
 349 84 356 73 365 63 c 1
 399 77 l 1
 459 52 l 1
 484 -8 l 1
EndSplineSet
AlternateSubs2: "Randomize subtable" K.1 K.2 K.3 K.4 K.5 K.6 K.7 K.8 K.9 K.10 K.11 K.12 K.13 K.14 K.15
EndChar

StartChar: Pi
Encoding: 928 928 120
Width: 463
VWidth: 0
Flags: W
VStem: 69 100<61 234.84> 96 98<558.037 687> 297 100<69 680>
LayerCount: 2
Fore
SplineSet
432 5 m 1x60
 407 -55 l 1
 347 -80 l 1
 287 -55 l 1
 262 5 l 1
 287 65 l 1
 297 69 l 1
 295 680 l 1
 194 687 l 1x60
 169 59 l 1
 176 56 l 1
 201 -4 l 1
 176 -64 l 1
 116 -89 l 1
 56 -64 l 1
 31 -4 l 1
 56 56 l 1
 69 61 l 1xa0
 96 732 l 2
 97 755 123 773 150 771 c 2
 349 756 l 2
 375 754 395 735 395 716 c 2
 397 69 l 1
 407 65 l 1
 432 5 l 1x60
EndSplineSet
AlternateSubs2: "Randomize subtable" Pi.1 Pi.2 Pi.3 Pi.4 Pi.5 Pi.6 Pi.7 Pi.8 Pi.9 Pi.10 Pi.11 Pi.12 Pi.13 Pi.14 Pi.15
EndChar

StartChar: four
Encoding: 52 52 121
Width: 359
VWidth: 0
Flags: W
VStem: 101 99<697.778 774.748>
LayerCount: 2
Fore
SplineSet
217 14 m 1
 192 -46 l 1
 132 -71 l 1
 72 -46 l 1
 47 14 l 1
 72 74 l 1
 84 79 l 1
 87 197 l 1
 55 210 l 2
 37 218 27 235 29 250 c 2
 101 746 l 2
 104 768 129 784 156 782 c 0
 182 780 200 760 200 741 c 2
 188 244 l 1
 199 239 l 1
 245 258 l 1
 305 233 l 1
 330 173 l 1
 305 113 l 1
 245 88 l 1
 185 113 l 1
 184 77 l 1
 192 74 l 1
 217 14 l 1
EndSplineSet
AlternateSubs2: "Randomize subtable" four.1 four.2 four.3 four.4 four.5 four.6 four.7
EndChar

StartChar: backslash
Encoding: 92 92 122
Width: 376
VWidth: 0
Flags: W
VStem: 29 318
LayerCount: 2
Fore
SplineSet
347 -54 m 1
 322 -114 l 1
 262 -139 l 1
 202 -114 l 1
 177 -54 l 1
 201 3 l 1
 78 623 l 1
 54 633 l 1
 29 693 l 1
 54 753 l 1
 114 778 l 1
 174 753 l 1
 199 693 l 1
 176 637 l 1
 299 15 l 1
 322 6 l 1
 347 -54 l 1
EndSplineSet
AlternateSubs2: "Randomize subtable" backslash.1 backslash.2 backslash.3 backslash.4 backslash.5 backslash.6 backslash.7
EndChar

StartChar: Q
Encoding: 81 81 123
Width: 528
VWidth: 0
Flags: W
VStem: 31 100<109.076 324.865>
LayerCount: 2
Fore
SplineSet
475 -34 m 1
 450 -94 l 1
 390 -119 l 1
 365 -108 l 1
 310 -150 l 2
 307 -152 298 -158 291 -160 c 0
 265 -167 236 -155 228 -134 c 2
 218 -111 l 1
 75 -87 27 58 31 190 c 0
 33 251 45 315 67 379 c 0
 99 470 134 559 174 646 c 1
 159 681 l 1
 184 742 l 1
 244 766 l 1
 304 742 l 1
 329 681 l 1
 318 656 l 1
 381 559 431 454 467 344 c 0
 504 230 506 99 458 6 c 1
 475 -34 l 1
252 584 m 1
 219 510 190 434 163 357 c 0
 143 300 132 242 131 188 c 0
 130 158 133 131 137 107 c 1
 142 120 l 1
 202 144 l 1
 262 120 l 1
 287 59 l 1
 270 19 l 1
 290 -30 l 1
 297 -28 304 -25 310 -21 c 1
 330 26 l 1
 363 40 l 1
 397 106 409 210 371 324 c 0
 341 415 301 502 252 584 c 1
EndSplineSet
AlternateSubs2: "Randomize subtable" Q.1 Q.2 Q.3 Q.4 Q.5 Q.6 Q.7 Q.8 Q.9 Q.10 Q.11 Q.12 Q.13 Q.14 Q.15
EndChar

StartChar: s
Encoding: 115 115 124
Width: 417
VWidth: 0
Flags: W
HStem: 446 20G<253 349>
LayerCount: 2
Fore
SplineSet
386 380 m 1
 361 320 l 1
 301 295 l 1
 241 320 l 1
 225 359 l 1
 206 364 l 2
 201 366 193 368 189 368 c 0
 180 366 155 347 165 316 c 0
 171 295 194 286 242 265 c 0
 310 235 383 182 383 86 c 1
 381 8 314 -70 210 -68 c 0
 195 -68 182 -61 173 -53 c 2
 131 -13 l 1
 115 -19 l 1
 55 5 l 1
 30 66 l 1
 55 126 l 1
 115 151 l 1
 175 126 l 1
 200 66 l 1
 194 52 l 1
 232 15 l 1
 259 24 289 59 282 104 c 0
 276 145 241 175 194 195 c 0
 159 210 88 233 68 297 c 0
 48 362 89 432 166 446 c 0
 190 451 215 449 240 439 c 1
 241 441 l 1
 301 466 l 1
 361 441 l 1
 386 380 l 1
EndSplineSet
AlternateSubs2: "Randomize subtable" s.1 s.2 s.3 s.4 s.5 s.6 s.7 s.8 s.9 s.10 s.11 s.12 s.13 s.14 s.15 s.16 s.17 s.18 s.19 s.20 s.21 s.22 s.23 s.24 s.25 s.26 s.27 s.28 s.29 s.30 s.31
EndChar

StartChar: h
Encoding: 104 104 125
Width: 519
VWidth: 0
Flags: W
HStem: 458 20G<67 163 328 424>
VStem: 75 100<58 189>
LayerCount: 2
Fore
SplineSet
458 -4 m 1
 433 -64 l 1
 373 -89 l 1
 313 -64 l 1
 288 -4 l 1
 313 56 l 1
 355 73 l 1
 371 115 380 160 384 205 c 1
 200 215 l 1
 193 198 l 1
 171 189 l 1
 175 58 l 1
 187 53 l 1
 212 -7 l 1
 187 -67 l 1
 127 -92 l 1
 67 -67 l 1
 42 -7 l 1
 67 53 l 1
 75 56 l 1
 71 204 l 1
 48 258 l 1
 68 305 l 1
 67 328 l 1
 55 333 l 1
 30 393 l 1
 55 453 l 1
 115 478 l 1
 175 453 l 1
 200 393 l 1
 175 333 l 1
 167 330 l 1
 167 329 l 1
 193 318 l 1
 203 295 l 1
 382 286 l 1
 379 300 375 313 370 326 c 1
 316 349 l 1
 291 409 l 1
 316 469 l 1
 376 494 l 1
 436 469 l 1
 461 409 l 1
 451 384 l 1
 474 341 486 294 486 246 c 0
 486 244 486 243 486 241 c 0
 485 170 470 98 443 31 c 1
 458 -4 l 1
EndSplineSet
AlternateSubs2: "Randomize subtable" h.1 h.2 h.3 h.4 h.5 h.6 h.7 h.8 h.9 h.10 h.11 h.12 h.13 h.14 h.15 h.16 h.17 h.18 h.19 h.20 h.21 h.22 h.23 h.24 h.25 h.26 h.27 h.28 h.29 h.30 h.31
EndChar

StartChar: a
Encoding: 97 97 126
Width: 498
VWidth: 0
Flags: W
LayerCount: 2
Fore
SplineSet
467 69 m 1
 442 9 l 1
 382 -16 l 1
 322 9 l 1
 297 69 l 1
 314 109 l 1
 310 119 l 1
 296 125 l 1
 258 113 l 1
 241 71 l 1
 183 47 l 1
 178 25 l 1
 200 -28 l 1
 175 -88 l 1
 115 -113 l 1
 55 -88 l 1
 30 -28 l 1
 55 32 l 1
 81 43 l 1
 99 123 l 1
 96 131 l 1
 108 160 l 1
 180 469 l 2
 189 509 262 512 277 474 c 2
 356 271 l 1
 413 247 l 1
 438 187 l 1
 418 139 l 1
 442 129 l 1
 467 69 l 1
275 205 m 1
 276 207 l 1
 242 296 l 1
 219 200 l 1
 237 193 l 1
 275 205 l 1
EndSplineSet
AlternateSubs2: "Randomize subtable" a.1 a.2 a.3 a.4 a.5 a.6 a.7 a.8 a.9 a.10 a.11 a.12 a.13 a.14 a.15 a.16 a.17 a.18 a.19 a.20 a.21 a.22 a.23 a.24 a.25 a.26 a.27 a.28 a.29 a.30 a.31
EndChar

StartChar: question
Encoding: 63 63 127
Width: 411
VWidth: 0
Flags: W
HStem: 456 21G<66 162>
LayerCount: 2
Fore
SplineSet
372 22 m 1
 347 -38 l 1
 287 -63 l 1
 227 -38 l 1
 202 22 l 1
 227 82 l 1
 287 107 l 1
 347 82 l 1
 372 22 l 1
344 217 m 1
 319 157 l 1
 259 132 l 1
 199 157 l 1
 174 217 l 1
 199 278 l 1
 215 285 l 1
 235 394 294 483 277 570 c 0
 268 616 240 642 221 646 c 0
 201 650 173 639 161 607 c 1
 174 602 l 1
 199 541 l 1
 174 481 l 1
 114 456 l 1
 54 481 l 1
 29 541 l 1
 54 602 l 1
 59 604 l 1
 60 609 61 614 62 619 c 0
 80 681 150 742 244 724 c 0
 327 708 364 640 375 583 c 0
 397 468 340 370 318 279 c 1
 319 278 l 1
 344 217 l 1
EndSplineSet
AlternateSubs2: "Randomize subtable" question.1 question.2 question.3 question.4 question.5 question.6 question.7
EndChar

StartChar: C
Encoding: 67 67 128
Width: 494
VWidth: 0
Flags: W
HStem: 543 21G<309 405>
LayerCount: 2
Fore
SplineSet
463 140 m 1
 438 80 l 1
 426 75 l 1
 413 26 376 -18 316 -37 c 0
 200 -73 109 -6 68 79 c 0
 20 177 16 319 74 464 c 0
 108 548 163 673 294 680 c 1
 297 688 l 1
 357 713 l 1
 417 688 l 1
 442 628 l 1
 417 568 l 1
 357 543 l 1
 297 568 l 1
 285 596 l 1
 244 581 203 524 169 440 c 0
 117 310 124 184 161 108 c 0
 195 39 236 24 279 37 c 0
 296 42 312 57 322 78 c 1
 317 80 l 1
 293 140 l 1
 317 200 l 1
 378 225 l 1
 438 200 l 1
 463 140 l 1
EndSplineSet
AlternateSubs2: "Randomize subtable" C.1 C.2 C.3 C.4 C.5 C.6 C.7 C.8 C.9 C.10 C.11 C.12 C.13 C.14 C.15
EndChar

StartChar: hyphen
Encoding: 45 45 129
Width: 342
VWidth: 0
Flags: W
HStem: 194 253
VStem: 33 275
LayerCount: 2
Fore
SplineSet
308 362 m 1
 284 302 l 1
 223 277 l 1
 200 287 l 1
 203 279 l 1
 178 219 l 1
 118 194 l 1
 58 219 l 1
 33 279 l 1
 58 339 l 1
 118 364 l 1
 141 354 l 1
 138 362 l 1
 163 422 l 1
 223 447 l 1
 284 422 l 1
 308 362 l 1
EndSplineSet
AlternateSubs2: "Randomize subtable" hyphen.1 hyphen.2 hyphen.3 hyphen.4 hyphen.5 hyphen.6 hyphen.7
EndChar

StartChar: ampersand
Encoding: 38 38 130
Width: 461
VWidth: 0
Flags: W
HStem: 466 20G<295 395> 669 80<133 265> 674 82<133 265> 771 20G<299 395>
LayerCount: 2
Fore
SplineSet
413 -8 m 1xd0
 388 -68 l 1
 328 -93 l 1
 268 -68 l 1
 243 -8 l 1
 264 41 l 1
 248 101 l 1
 185 -24 l 2
 178 -37 162 -48 142 -49 c 0
 115 -50 91 -34 89 -12 c 2
 30 713 l 2
 29 729 47 757 82 756 c 2xb0
 280 749 l 1
 287 766 l 1
 347 791 l 1
 407 766 l 1
 432 706 l 1
 407 646 l 1
 347 621 l 1
 160 344 l 1
 175 169 l 1
 215 248 l 2
 216 251 216 254 218 256 c 2
 274 367 l 1
 260 401 l 1
 285 462 l 1
 345 486 l 1
 405 462 l 1
 430 401 l 1
 405 341 l 1
 359 322 l 1
 315 234 l 1
 360 64 l 1
 388 52 l 1
 413 -8 l 1xd0
148 494 m 1
 265 669 l 1xd0
 133 674 l 1
 148 494 l 1
EndSplineSet
AlternateSubs2: "Randomize subtable" ampersand.1 ampersand.2 ampersand.3 ampersand.4 ampersand.5 ampersand.6 ampersand.7
EndChar

StartChar: P.1
Encoding: 65536 -1 131
Width: 456
VWidth: 0
Flags: W
HStem: 430 20G<153 185>
LayerCount: 2
Fore
SplineSet
244 365 m 1
 219 305 l 1
 165 283 l 1
 175 142 l 1
 190 136 l 1
 215 76 l 1
 190 16 l 1
 130 -9 l 1
 70 16 l 1
 45 76 l 1
 70 136 l 1
 75 138 l 1
 30 761 l 2
 28 783 50 802 77 803 c 0
 91 804 106 798 115 791 c 2
 411 554 l 2
 432 537 427 509 409 496 c 2
 241 372 l 1
 244 365 l 1
185 439 m 1
 303 527 l 1
 138 660 l 1
 153 447 l 1
 159 450 l 1
 185 439 l 1
EndSplineSet
EndChar

StartChar: semicolon.1
Encoding: 65537 -1 132
Width: 283
VWidth: 0
Flags: W
VStem: 37 211
LayerCount: 2
Fore
SplineSet
207 300 m 1
 183 240 l 1
 122 215 l 1
 62 240 l 1
 37 300 l 1
 62 360 l 1
 122 385 l 1
 183 360 l 1
 207 300 l 1
227 -226 m 1
 202 -286 l 1
 142 -311 l 1
 82 -286 l 1
 57 -226 l 1
 82 -166 l 1
 115 -152 l 1
 142 -71 l 1
 119 -81 l 1
 59 -56 l 1
 34 4 l 1
 59 64 l 1
 119 89 l 1
 179 64 l 1
 204 4 l 1
 202 -1 l 1
 233 -22 l 2
 247 -32 253 -48 248 -62 c 2
 209 -182 l 1
 227 -226 l 1
EndSplineSet
EndChar

StartChar: comma.1
Encoding: 65538 -1 133
Width: 303
VWidth: 0
Flags: W
VStem: 37 229
LayerCount: 2
Fore
SplineSet
207 -232 m 1
 182 -292 l 1
 122 -317 l 1
 62 -292 l 1
 37 -232 l 1
 62 -171 l 1
 108 -153 l 1
 144 -80 l 1
 121 -70 l 1
 96 -10 l 1
 121 50 l 1
 181 75 l 1
 241 50 l 1
 266 -10 l 1
 248 -53 l 1
 250 -59 l 2
 253 -68 253 -78 249 -85 c 2
 193 -197 l 1
 207 -232 l 1
EndSplineSet
EndChar

StartChar: nine.1
Encoding: 65539 -1 134
Width: 364
VWidth: 0
Flags: W
HStem: 727 80<153.903 214.398>
LayerCount: 2
Fore
SplineSet
183 429 m 1
 192 459 202 489 212 519 c 0
 221 544 227 569 230 594 c 0
 242 688 209 725 187 727 c 0
 181 727 177 727 174 726 c 0
 146 719 107 614 166 473 c 1
 183 429 l 1
269 242 m 1
 244 182 l 1
 222 173 l 1
 210 113 200 53 192 -8 c 1
 194 -9 l 1
 219 -69 l 1
 194 -129 l 1
 134 -154 l 1
 74 -129 l 1
 49 -69 l 1
 74 -9 l 1
 92 -2 l 1
 100 61 109 124 122 186 c 1
 99 242 l 1
 121 296 l 1
 108 348 92 399 71 448 c 0
 15 581 1 765 143 802 c 0
 160 807 179 809 197 807 c 0
 326 796 341 674 330 586 c 0
 326 557 319 527 309 498 c 0
 287 433 267 363 249 291 c 1
 269 242 l 1
EndSplineSet
EndChar

StartChar: dotlessi.1
Encoding: 65540 -1 135
Width: 242
VWidth: 0
Flags: W
HStem: 485 20G<67 163>
VStem: 65 100<106 356>
LayerCount: 2
Fore
SplineSet
200 420 m 1
 175 360 l 1
 164 356 l 1
 164 331 164 306 165 281 c 0
 166 219 164 161 168 106 c 1
 186 98 l 1
 211 38 l 1
 186 -22 l 1
 126 -47 l 1
 66 -22 l 1
 41 38 l 1
 66 98 l 1
 68 99 l 1
 64 157 66 219 65 279 c 0
 64 305 64 330 64 356 c 1
 55 360 l 1
 30 420 l 1
 55 480 l 1
 115 505 l 1
 175 480 l 1
 200 420 l 1
EndSplineSet
EndChar

StartChar: breve.1
Encoding: 65541 -1 136
Width: 352
VWidth: 0
Flags: W
HStem: 492 304
VStem: 32 287
LayerCount: 2
Fore
SplineSet
301 583 m 1
 298 538 258 498 208 492 c 0
 180 489 152 497 130 513 c 0
 81 548 56 601 56 654 c 1
 32 711 l 1
 57 771 l 1
 117 796 l 1
 177 771 l 1
 202 711 l 1
 195 695 l 1
 234 711 l 1
 294 686 l 1
 319 626 l 1
 301 583 l 1
EndSplineSet
EndChar

StartChar: G.1
Encoding: 65542 -1 137
Width: 467
VWidth: 0
Flags: W
HStem: 483 21G<301 401> 665 80<203.524 287.811>
VStem: 32 100<145.162 536.172> 282 98<65 243> 287 100<65 243>
LayerCount: 2
Fore
SplineSet
424 0 m 1xe8
 399 -60 l 1
 339 -85 l 1
 279 -60 l 1
 273 -46 l 1
 259 -47 l 2
 100 -60 58 83 42 193 c 0
 36 238 33 285 32 331 c 0
 28 501 51 743 238 745 c 0
 325 745 383 694 400 633 c 1
 411 628 l 1
 436 568 l 1
 411 507 l 1
 351 483 l 1
 291 507 l 1
 266 568 l 1
 291 628 l 1
 297 631 l 1
 286 652 264 665 240 665 c 0
 186 664 128 531 132 332 c 0
 133 288 136 243 142 202 c 0
 160 76 200 28 247 32 c 0
 247 32 256 33 268 34 c 1
 279 60 l 1
 287 63 l 1xe8
 282 243 l 1
 244 227 l 1
 183 252 l 1
 159 312 l 1
 183 372 l 1
 244 397 l 1
 304 372 l 1
 308 362 l 1
 321 364 l 2
 354 369 379 345 380 325 c 2xf0
 387 65 l 1
 399 60 l 1
 424 0 l 1xe8
EndSplineSet
EndChar

StartChar: percent.1
Encoding: 65543 -1 138
Width: 589
VWidth: 0
Flags: W
HStem: -105 79<406.072 444.192> 269 80<139.257 184.478> 850 20G<87 183>
VStem: 297 100<-20.6665 147.433>
LayerCount: 2
Fore
SplineSet
240 -66 m 1
 215 -126 l 1
 155 -151 l 1
 94 -126 l 1
 70 -66 l 1
 94 -6 l 1
 127 7 l 1
 216 278 l 1
 212 276 207 275 203 274 c 0
 186 269 168 268 150 269 c 0
 32 279 24 383 33 456 c 0
 38 498 51 544 67 587 c 0
 82 627 90 672 90 719 c 1
 75 725 l 1
 50 785 l 1
 75 845 l 1
 135 870 l 1
 195 845 l 1
 220 785 l 1
 214 770 l 1
 218 767 221 765 225 763 c 0
 275 735 341 741 387 794 c 1
 398 809 421 818 443 813 c 0
 447 812 451 811 454 809 c 0
 456 808 457 808 459 807 c 0
 473 800 481 787 481 774 c 0
 481 771 480 768 479 765 c 0
 479 764 478 762 478 761 c 2
 221 -21 l 1
 240 -66 l 1
436 193 m 1
 419 151 400 105 397 52 c 1
 395 -13 423 -26 427 -26 c 0
 428 -26 429 -25 430 -25 c 0
 437 -24 474 24 453 117 c 2
 436 193 l 1
164 569 m 1
 163 564 l 1
 148 524 137 484 132 448 c 0
 122 368 146 350 160 349 c 0
 164 349 166 348 168 349 c 0
 186 354 224 439 170 556 c 2
 164 569 l 1
346 675 m 1
 307 666 265 665 225 675 c 1
 237 644 250 614 264 584 c 0
 275 560 284 534 291 507 c 1
 346 675 l 1
384 311 m 1
 370 344 l 1
 395 404 l 1
 455 429 l 1
 515 404 l 1
 540 344 l 1
 517 290 l 1
 551 131 l 2
 570 43 568 -105 425 -105 c 1
 319 -103 295 -10 297 54 c 0
 298 79 302 105 310 130 c 0
 330 192 355 254 384 311 c 1
EndSplineSet
EndChar

StartChar: B.1
Encoding: 65544 -1 139
Width: 400
VWidth: 0
Flags: W
VStem: 87 100<68 205.6> 102 97<281.333 324>
LayerCount: 2
Fore
SplineSet
30 412 m 0x40
 30 422 34 431 41 438 c 0
 44 442 48 444 53 447 c 2
 107 475 l 1
 112 586 l 1
 104 589 l 1
 80 649 l 1
 104 709 l 1
 165 734 l 1
 225 709 l 1
 250 649 l 1
 247 642 l 1
 353 566 l 2
 354 565 360 561 362 558 c 0
 377 540 370 515 347 503 c 2
 204 429 l 1
 204 427 l 1
 282 389 335 315 346 232 c 0
 359 131 309 30 213 -20 c 1
 194 -66 l 1
 134 -91 l 1
 74 -66 l 1
 49 -6 l 1
 74 55 l 1
 87 60 l 1x80
 102 372 l 1
 97 373 91 373 86 373 c 0
 68 371 49 378 38 391 c 0
 33 397 31 403 30 410 c 0
 30 411 30 411 30 412 c 0x40
199 324 m 1x40
 187 68 l 1x80
 228 104 255 160 247 224 c 0
 242 265 224 299 199 324 c 1x40
210 562 m 1
 208 527 l 1
 238 542 l 1
 210 562 l 1
EndSplineSet
EndChar

StartChar: quotedbl.1
Encoding: 65545 -1 140
Width: 441
VWidth: 0
Flags: W
LayerCount: 2
Fore
SplineSet
410 344 m 1
 385 284 l 1
 325 259 l 1
 265 284 l 1
 240 344 l 1
 260 391 l 1
 208 566 l 1
 184 505 l 1
 201 465 l 1
 176 405 l 1
 116 380 l 1
 56 405 l 1
 31 465 l 1
 56 526 l 1
 93 541 l 1
 126 622 l 1
 109 662 l 1
 134 722 l 1
 165 735 l 1
 167 739 l 1
 227 764 l 1
 287 739 l 1
 312 679 l 1
 292 631 l 1
 356 416 l 1
 385 404 l 1
 410 344 l 1
EndSplineSet
EndChar

StartChar: questiondown.1
Encoding: 65546 -1 141
Width: 394
VWidth: 0
Flags: W
HStem: -119 80<157.863 232.541> 498 20G<165 265> 519 21G<137 233>
VStem: 265 100<-5.26973 171.293>
LayerCount: 2
Fore
SplineSet
270 604 m 1
 245 544 l 1
 185 519 l 1
 125 544 l 1
 100 604 l 1
 125 665 l 1
 185 689 l 1
 245 665 l 1
 270 604 l 1
300 433 m 1
 275 373 l 1
 274 373 l 1
 298 283 365 190 365 72 c 0
 365 -9 320 -116 201 -119 c 0
 101 -121 46 -46 44 20 c 0
 44 28 45 36 46 45 c 1
 29 86 l 1
 54 146 l 1
 114 171 l 1
 174 146 l 1
 199 86 l 1
 174 25 l 1
 145 13 l 1
 150 -22 178 -39 198 -39 c 0
 222 -38 265 -1 265 72 c 0
 265 164 195 254 172 366 c 1
 155 373 l 1
 130 433 l 1
 155 494 l 1
 215 518 l 1
 275 494 l 1
 300 433 l 1
EndSplineSet
EndChar

StartChar: slash.1
Encoding: 65547 -1 142
Width: 339
VWidth: 0
Flags: W
HStem: 794 20G<177 273>
VStem: 29 281
LayerCount: 2
Fore
SplineSet
310 729 m 1
 285 669 l 1
 265 661 l 1
 174 54 l 1
 199 -7 l 1
 174 -67 l 1
 114 -92 l 1
 54 -67 l 1
 29 -7 l 1
 54 54 l 1
 74 62 l 1
 165 669 l 1
 140 729 l 1
 165 789 l 1
 225 814 l 1
 285 789 l 1
 310 729 l 1
EndSplineSet
EndChar

StartChar: bracketright.1
Encoding: 65548 -1 143
Width: 300
VWidth: 0
Flags: W
HStem: 773 20G<64 164>
VStem: 142 97<83 171.733> 166 103<548.267 645>
LayerCount: 2
Fore
SplineSet
142 83 m 1xc0
 166 645 l 1
 114 623 l 1
 54 648 l 1
 29 708 l 1
 54 769 l 1
 114 793 l 1
 174 769 l 1
 181 752 l 1
 216 754 l 2
 247 756 270 733 269 713 c 2xa0
 239 7 l 2
 238 -10 223 -24 205 -29 c 1
 193 -58 l 1
 133 -83 l 1
 73 -58 l 1
 48 2 l 1
 73 62 l 1
 133 87 l 1
 142 83 l 1xc0
EndSplineSet
EndChar

StartChar: underscore.1
Encoding: 65549 -1 144
Width: 571
VWidth: 0
Flags: W
HStem: -237 187
LayerCount: 2
Fore
SplineSet
533 -152 m 1
 508 -212 l 1
 448 -237 l 1
 388 -212 l 1
 378 -188 l 1
 190 -178 l 1
 183 -195 l 1
 123 -220 l 1
 63 -195 l 1
 38 -135 l 1
 63 -75 l 1
 123 -50 l 1
 183 -75 l 1
 193 -98 l 1
 381 -108 l 1
 388 -91 l 1
 448 -67 l 1
 508 -91 l 1
 533 -152 l 1
EndSplineSet
EndChar

StartChar: N.1
Encoding: 65550 -1 145
Width: 469
VWidth: 0
Flags: W
VStem: 57 103<241.5 389 653 671.057> 64 100<94 389>
LayerCount: 2
Fore
SplineSet
413 681 m 1x80
 388 621 l 1
 384 619 l 1
 438 -22 l 2
 440 -40 425 -56 404 -62 c 0
 378 -69 350 -58 341 -37 c 2
 160 389 l 1x80
 164 94 l 1
 175 90 l 1
 200 29 l 1
 175 -31 l 1
 115 -56 l 1
 55 -31 l 1
 30 29 l 1
 55 90 l 1
 64 94 l 1x40
 57 639 l 2
 57 661 80 680 107 680 c 0
 128 680 148 669 155 653 c 2
 312 281 l 1
 284 615 l 1
 268 621 l 1
 243 681 l 1
 268 741 l 1
 328 766 l 1
 388 741 l 1
 413 681 l 1x80
EndSplineSet
EndChar

StartChar: parenleft.1
Encoding: 65551 -1 146
Width: 315
VWidth: 0
Flags: W
VStem: 31 100<199.602 516.375>
LayerCount: 2
Fore
SplineSet
286 -10 m 1
 261 -70 l 1
 201 -95 l 1
 141 -70 l 1
 116 -10 l 1
 127 16 l 1
 70 109 37 215 31 324 c 0
 25 443 50 561 106 666 c 1
 94 695 l 1
 119 755 l 1
 179 780 l 1
 239 755 l 1
 264 695 l 1
 239 635 l 1
 188 614 l 1
 146 525 126 427 131 327 c 0
 136 237 161 151 204 74 c 1
 261 50 l 1
 286 -10 l 1
EndSplineSet
EndChar

StartChar: i.1
Encoding: 65552 -1 147
Width: 233
VWidth: 0
Flags: W
HStem: 485 20G<67 163>
VStem: 65 100<143 356>
LayerCount: 2
Fore
SplineSet
200 420 m 1
 175 360 l 1
 165 356 l 1
 165 143 l 1
 178 138 l 1
 202 78 l 1
 178 17 l 1
 117 -7 l 1
 57 17 l 1
 32 78 l 1
 57 138 l 1
 65 141 l 1
 65 356 l 1
 55 360 l 1
 30 420 l 1
 55 480 l 1
 115 505 l 1
 175 480 l 1
 200 420 l 1
EndSplineSet
EndChar

StartChar: Omega.1
Encoding: 65553 -1 148
Width: 520
VWidth: 0
Flags: W
LayerCount: 2
Fore
SplineSet
489 21 m 1
 464 -39 l 1
 404 -64 l 1
 355 -44 l 1
 312 -61 l 2
 307 -63 297 -66 289 -66 c 0
 262 -66 239 -48 239 -26 c 0
 239 187 435 333 347 477 c 0
 319 523 276 534 247 525 c 0
 216 515 186 477 174 422 c 0
 149 306 210 181 210 38 c 0
 210 11 182 -4 155 -2 c 1
 116 -18 l 1
 56 7 l 1
 31 67 l 1
 56 127 l 1
 99 145 l 1
 82 236 54 332 76 435 c 0
 90 499 126 572 210 599 c 0
 305 630 396 580 437 512 c 0
 528 362 417 215 365 90 c 1
 404 106 l 1
 464 81 l 1
 489 21 l 1
EndSplineSet
EndChar

StartChar: braceleft.1
Encoding: 65554 -1 149
Width: 398
VWidth: 0
Flags: W
HStem: 595 21G<220.381 316>
VStem: 97 100<86.9798 216.485>
LayerCount: 2
Fore
SplineSet
369 15 m 1
 344 -45 l 1
 284 -70 l 1
 224 -45 l 1
 210 -12 l 1
 133 17 97 91 97 154 c 0
 97 194 110 234 142 268 c 1
 114 257 l 1
 54 282 l 1
 29 342 l 1
 54 402 l 1
 114 427 l 1
 132 420 l 1
 153 439 l 1
 72 506 81 624 159 684 c 0
 169 692 180 698 193 704 c 1
 208 740 l 1
 268 765 l 1
 328 740 l 1
 353 680 l 1
 328 620 l 1
 268 595 l 1
 218 616 l 1
 215 612 213 608 210 604 c 0
 184 558 202 500 248 483 c 0
 280 471 285 440 265 420 c 1
 194 354 l 1
 197 348 l 1
 264 314 l 2
 287 302 294 277 280 259 c 0
 275 252 264 246 258 244 c 0
 219 230 197 195 197 153 c 0
 197 120 209 94 228 77 c 1
 284 100 l 1
 344 75 l 1
 369 15 l 1
EndSplineSet
EndChar

StartChar: three.1
Encoding: 65555 -1 150
Width: 391
VWidth: 0
Flags: W
HStem: 567 20G<133 183>
LayerCount: 2
Fore
SplineSet
201 155 m 1
 176 95 l 1
 162 89 l 1
 169 73 182 61 194 57 c 0
 200 55 206 55 214 57 c 0
 242 65 271 123 250 203 c 0
 234 266 203 324 160 371 c 0
 145 388 148 415 173 428 c 0
 218 451 253 499 259 556 c 0
 267 628 224 669 199 670 c 0
 169 672 137 647 133 602 c 0
 133 597 132 591 133 586 c 1
 135 587 l 1
 195 562 l 1
 220 502 l 1
 195 442 l 1
 135 417 l 1
 74 442 l 1
 50 502 l 1
 56 517 l 1
 37 546 30 578 33 608 c 0
 39 675 96 756 205 750 c 0
 325 744 368 633 359 549 c 0
 352 485 319 426 267 386 c 1
 306 335 332 279 348 219 c 0
 369 137 364 14 247 -19 c 0
 217 -27 185 -26 158 -18 c 0
 101 0 64 45 57 95 c 1
 56 95 l 1
 31 155 l 1
 56 215 l 1
 116 240 l 1
 176 215 l 1
 201 155 l 1
EndSplineSet
EndChar

StartChar: Xi.1
Encoding: 65556 -1 151
Width: 510
VWidth: 0
Flags: W
HStem: 453 20G<66 166 327 423> 660 80<253 281> 765 20G<136 232 302 398>
LayerCount: 2
Fore
SplineSet
479 -33 m 1
 454 -93 l 1
 394 -118 l 1
 334 -93 l 1
 320 -58 l 1
 196 -30 l 1
 194 -35 l 1
 134 -60 l 1
 74 -35 l 1
 49 25 l 1
 74 85 l 1
 134 110 l 1
 194 85 l 1
 209 50 l 1
 332 22 l 1
 334 27 l 1
 394 52 l 1
 454 27 l 1
 479 -33 l 1
460 371 m 1
 435 311 l 1
 375 286 l 1
 315 311 l 1
 305 336 l 1
 183 344 l 1
 176 328 l 1
 116 303 l 1
 56 328 l 1
 31 388 l 1
 56 449 l 1
 116 473 l 1
 176 449 l 1
 186 424 l 1
 309 416 l 1
 315 431 l 1
 375 456 l 1
 435 431 l 1
 460 371 l 1
435 701 m 1
 410 641 l 1
 350 616 l 1
 290 641 l 1
 282 661 l 1
 253 660 l 1
 244 640 l 1
 184 615 l 1
 124 640 l 1
 99 700 l 1
 124 760 l 1
 184 785 l 1
 244 760 l 1
 252 740 l 1
 281 741 l 1
 290 761 l 1
 350 786 l 1
 410 761 l 1
 435 701 l 1
EndSplineSet
EndChar

StartChar: dieresis.1
Encoding: 65557 -1 152
Width: 527
VWidth: 0
Flags: W
HStem: 514 186 530 21G<360 456>
LayerCount: 2
Fore
SplineSet
493 615 m 1x80
 468 555 l 1
 408 530 l 1x40
 348 555 l 1
 323 615 l 1
 348 676 l 1
 408 700 l 1
 468 676 l 1
 493 615 l 1x80
204 599 m 1
 179 539 l 1
 119 514 l 1x80
 59 539 l 1
 34 599 l 1
 59 659 l 1
 119 684 l 1
 179 659 l 1
 204 599 l 1
EndSplineSet
EndChar

StartChar: acute.1
Encoding: 65558 -1 153
Width: 302
VWidth: 0
Flags: W
HStem: 492 303
VStem: 33 237
LayerCount: 2
Fore
SplineSet
203 577 m 1
 178 517 l 1
 118 492 l 1
 58 517 l 1
 33 577 l 1
 58 637 l 1
 104 656 l 1
 114 676 l 1
 100 710 l 1
 125 770 l 1
 185 795 l 1
 245 770 l 1
 270 710 l 1
 245 650 l 1
 199 631 l 1
 189 611 l 1
 203 577 l 1
EndSplineSet
EndChar

StartChar: endash.1
Encoding: 65559 -1 154
Width: 432
VWidth: 0
Flags: W
HStem: 198 256
LayerCount: 2
Fore
SplineSet
399 283 m 1
 375 223 l 1
 314 198 l 1
 254 223 l 1
 233 273 l 1
 164 303 l 1
 118 284 l 1
 58 309 l 1
 33 369 l 1
 58 429 l 1
 118 454 l 1
 178 429 l 1
 199 379 l 1
 268 349 l 1
 314 368 l 1
 375 343 l 1
 399 283 l 1
EndSplineSet
EndChar

StartChar: greater.1
Encoding: 65560 -1 155
Width: 360
VWidth: 0
Flags: W
VStem: 30 296
LayerCount: 2
Fore
SplineSet
200 56 m 1
 175 -4 l 1
 115 -29 l 1
 55 -4 l 1
 30 56 l 1
 55 117 l 1
 112 140 l 1
 225 319 l 1
 106 555 l 1
 59 574 l 1
 34 634 l 1
 59 694 l 1
 119 719 l 1
 179 694 l 1
 204 634 l 1
 190 601 l 1
 326 332 l 2
 331 321 330 308 324 299 c 2
 189 84 l 1
 200 56 l 1
EndSplineSet
EndChar

StartChar: parenright.1
Encoding: 65561 -1 156
Width: 299
VWidth: 0
Flags: W
HStem: 780 20G<66 162>
LayerCount: 2
Fore
SplineSet
203 -6 m 1
 178 -66 l 1
 118 -91 l 1
 58 -66 l 1
 33 -6 l 1
 58 54 l 1
 106 74 l 1
 145 156 167 245 169 337 c 0
 171 441 148 542 104 634 c 1
 54 655 l 1
 29 715 l 1
 54 775 l 1
 114 800 l 1
 174 775 l 1
 199 715 l 1
 187 685 l 1
 295 479 295 230 190 25 c 1
 203 -6 l 1
EndSplineSet
EndChar

StartChar: seven.1
Encoding: 65562 -1 157
Width: 333
VWidth: 0
Flags: W
HStem: 572 21G<64 164>
VStem: 75 100<-8 246.448>
LayerCount: 2
Fore
SplineSet
209 -73 m 1
 185 -133 l 1
 124 -158 l 1
 64 -133 l 1
 39 -73 l 1
 64 -13 l 1
 75 -8 l 1
 80 196 112 398 169 594 c 1
 114 572 l 1
 54 596 l 1
 29 657 l 1
 54 717 l 1
 114 742 l 1
 171 718 l 1
 236 739 l 2
 261 747 291 737 301 717 c 0
 305 709 305 696 303 691 c 0
 225 465 182 229 175 -9 c 1
 185 -13 l 1
 209 -73 l 1
EndSplineSet
EndChar

StartChar: Oslash.1
Encoding: 65563 -1 158
Width: 526
VWidth: 0
Flags: W
HStem: 3 79<256 335.252>
VStem: 327 98<748 801.375>
LayerCount: 2
Fore
SplineSet
256 82 m 1
 269 79 282 79 298 83 c 0
 366 100 401 206 391 337 c 0
 386 404 379 470 369 536 c 1
 256 82 l 1
241 -112 m 1
 217 -172 l 1
 156 -197 l 1
 96 -172 l 1
 71 -112 l 1
 96 -52 l 1
 123 -41 l 1
 144 44 l 1
 142 46 l 1
 53 116 15 247 38 382 c 0
 56 486 98 584 162 669 c 1
 153 690 l 1
 178 750 l 1
 238 775 l 1
 298 750 l 1
 312 716 l 1
 327 776 l 2
 331 791 347 805 367 808 c 0
 394 812 420 797 425 776 c 0
 458 633 480 488 491 342 c 0
 500 218 487 47 328 7 c 0
 298 -1 266 -2 236 3 c 1
 220 -61 l 1
 241 -112 l 1
233 607 m 1
 185 537 152 457 137 371 c 0
 122 286 138 205 171 151 c 1
 290 627 l 1
 238 605 l 1
 233 607 l 1
EndSplineSet
EndChar

StartChar: Psi.1
Encoding: 65564 -1 159
Width: 534
VWidth: 0
Flags: W
HStem: 812 20G<167 263>
LayerCount: 2
Fore
SplineSet
503 517 m 1
 478 457 l 1
 435 439 l 1
 455 337 534 80 347 56 c 1
 353 42 l 1
 329 -18 l 1
 268 -43 l 1
 208 -18 l 1
 183 42 l 1
 202 88 l 1
 88 171 110 384 98 484 c 1
 56 501 l 1
 31 562 l 1
 56 622 l 1
 116 647 l 1
 174 623 l 1
 170 680 l 1
 155 686 l 1
 130 747 l 1
 155 807 l 1
 215 832 l 1
 275 807 l 1
 300 747 l 1
 275 686 l 1
 270 684 l 1
 311 134 l 1
 313 134 316 134 318 134 c 0
 535 134 184 410 336 525 c 1
 357 578 l 1
 418 603 l 1
 478 578 l 1
 503 517 l 1
EndSplineSet
EndChar

StartChar: ring.1
Encoding: 65565 -1 160
Width: 244
VWidth: 0
Flags: W
HStem: 422 248<80.9875 167.363>
VStem: 75 98<428.927 507.201>
LayerCount: 2
Fore
SplineSet
173 453 m 1
 172 448 169 443 165 439 c 0
 155 426 137 418 117 422 c 0
 112 423 107 424 103 426 c 0
 98 428 95 430 91 433 c 0
 83 439 77 445 75 453 c 1
 75 454 l 0
 65 490 -28 646 103 668 c 0
 110 669 117 670 124 670 c 0
 185 670 211 626 211 595 c 0
 211 549 185 498 173 454 c 1
 173 453 l 1
EndSplineSet
EndChar

StartChar: less.1
Encoding: 65566 -1 161
Width: 398
VWidth: 0
Flags: W
LayerCount: 2
Fore
SplineSet
366 104 m 1
 341 44 l 1
 281 19 l 1
 221 44 l 1
 196 104 l 1
 204 123 l 1
 38 318 l 2
 28 330 27 346 36 359 c 2
 209 612 l 1
 198 638 l 1
 223 698 l 1
 283 723 l 1
 343 698 l 1
 368 638 l 1
 343 578 l 1
 283 553 l 1
 282 553 l 1
 138 343 l 1
 272 185 l 1
 281 189 l 1
 341 164 l 1
 366 104 l 1
EndSplineSet
EndChar

StartChar: bracketleft.1
Encoding: 65567 -1 162
Width: 255
VWidth: 0
Flags: W
VStem: 32 100<65 608> 40 99<86.5 608>
LayerCount: 2
Fore
SplineSet
212 -18 m 1x80
 187 -78 l 1
 127 -103 l 1
 67 -78 l 1
 47 -31 l 1
 38 -24 32 -13 32 -2 c 2x80
 40 706 l 2
 40 727 58 741 78 745 c 1
 81 752 l 1
 141 777 l 1
 202 752 l 1
 226 692 l 1
 202 632 l 1
 141 607 l 1
 139 608 l 1x40
 132 65 l 1
 187 42 l 1
 212 -18 l 1x80
EndSplineSet
EndChar

StartChar: emdash.1
Encoding: 65568 -1 163
Width: 657
VWidth: 0
Flags: W
HStem: 182 260
LayerCount: 2
Fore
SplineSet
623 267 m 1
 598 207 l 1
 538 182 l 1
 478 207 l 1
 464 241 l 1
 181 303 l 1
 179 297 l 1
 119 272 l 1
 59 297 l 1
 34 357 l 1
 59 417 l 1
 119 442 l 1
 179 417 l 1
 193 383 l 1
 476 321 l 1
 478 327 l 1
 538 352 l 1
 598 327 l 1
 623 267 l 1
EndSplineSet
EndChar

StartChar: f.1
Encoding: 65569 -1 164
Width: 423
VWidth: 0
Flags: W
HStem: 523 20G<98.5 116 258.429 355>
VStem: 65 100<21 97 238 440>
LayerCount: 2
Fore
SplineSet
362 250 m 1
 337 190 l 1
 307 177 l 1
 291 148 265 124 231 108 c 0
 209 98 187 95 165 97 c 1
 165 21 l 1
 176 17 l 1
 201 -43 l 1
 176 -103 l 1
 116 -128 l 1
 56 -103 l 1
 31 -43 l 1
 56 17 l 1
 66 21 l 1
 65 109 l 1
 55 113 l 1
 30 173 l 1
 55 233 l 1
 64 237 l 1
 62 503 l 2
 62 525 85 543 112 543 c 0
 120 543 129 541 134 539 c 2
 256 493 l 1
 307 514 l 1
 367 489 l 1
 392 429 l 1
 367 369 l 1
 307 344 l 1
 247 369 l 1
 228 415 l 1
 162 440 l 1
 164 238 l 1
 175 233 l 1
 195 186 l 1
 201 191 206 197 211 204 c 1
 192 250 l 1
 217 310 l 1
 277 335 l 1
 337 310 l 1
 362 250 l 1
EndSplineSet
EndChar

StartChar: D.1
Encoding: 65570 -1 165
Width: 496
VWidth: 0
Flags: W
LayerCount: 2
Fore
SplineSet
266 -47 m 1
 241 -107 l 1
 181 -132 l 1
 121 -107 l 1
 96 -47 l 1
 121 13 l 1
 125 15 l 1
 71 620 l 1
 55 627 l 1
 30 687 l 1
 55 747 l 1
 115 772 l 1
 175 747 l 1
 188 715 l 1
 341 673 449 543 462 393 c 0
 477 224 403 59 265 -44 c 1
 266 -47 l 1
224 37 m 1
 320 122 374 251 362 387 c 0
 351 505 274 597 177 632 c 1
 175 627 l 1
 171 625 l 1
 224 37 l 1
EndSplineSet
EndChar

StartChar: F.1
Encoding: 65571 -1 166
Width: 468
VWidth: 0
Flags: W
VStem: 65 99<271.901 386 523 678>
LayerCount: 2
Fore
SplineSet
209 454 m 1
 184 394 l 1
 164 386 l 1
 164 318 l 1
 176 278 202 242 237 220 c 0
 252 211 260 212 269 216 c 0
 281 221 294 234 299 251 c 1
 275 261 l 1
 250 321 l 1
 275 381 l 1
 335 406 l 1
 395 381 l 1
 420 321 l 1
 401 277 l 1
 405 221 371 168 316 145 c 0
 281 130 236 129 197 146 c 1
 200 138 l 1
 175 78 l 1
 115 53 l 1
 55 78 l 1
 30 138 l 1
 55 198 l 1
 65 202 l 1
 64 307 l 1
 56 339 54 372 59 405 c 1
 39 454 l 1
 63 512 l 1
 62 729 l 2
 62 751 85 769 112 769 c 0
 117 769 123 768 123 768 c 1
 289 736 l 1
 292 743 l 1
 352 768 l 1
 412 743 l 1
 437 683 l 1
 412 623 l 1
 352 598 l 1
 292 623 l 1
 278 656 l 1
 162 678 l 1
 163 523 l 1
 184 514 l 1
 209 454 l 1
EndSplineSet
EndChar

StartChar: r.1
Encoding: 65572 -1 167
Width: 563
VWidth: 0
Flags: W
HStem: 430 80<193 295.842> 511 20G<67 163.333>
VStem: 67 101<217 381> 78 96<217 281.364>
LayerCount: 2
Fore
SplineSet
174 217 m 1xd0
 321 125 l 1
 363 139 404 179 399 250 c 0
 391 366 295 434 210 430 c 0
 204 430 199 429 193 428 c 1
 175 386 l 1
 168 383 l 1xe0
 174 217 l 1xd0
532 -5 m 1
 507 -65 l 1
 447 -90 l 1
 386 -65 l 1
 362 -5 l 1
 363 -3 l 1
 295 39 l 1
 267 38 238 42 212 51 c 1
 215 44 l 1
 190 -17 l 1
 130 -41 l 1
 70 -17 l 1
 45 44 l 1
 70 104 l 1
 78 107 l 1xd0
 67 381 l 1
 55 386 l 1
 30 446 l 1
 55 506 l 1
 115 531 l 1
 173 507 l 1
 184 509 195 509 205 510 c 0
 361 517 489 402 499 255 c 0
 504 175 466 109 405 72 c 1
 414 66 l 1
 447 80 l 1
 507 55 l 1
 532 -5 l 1
EndSplineSet
EndChar

StartChar: hungarumlaut.1
Encoding: 65573 -1 168
Width: 530
VWidth: 0
Flags: W
HStem: 449 81<165 260> 457 77<165 260> 776 20G<69 165>
VStem: 64 101<534 647>
LayerCount: 2
Fore
SplineSet
498 694 m 1xb0
 473 634 l 1
 419 611 l 1
 335 472 l 2
 327 459 309 448 288 449 c 2xb0
 111 457 l 2
 86 458 64 475 64 497 c 2
 66 647 l 1
 57 651 l 1
 32 711 l 1
 57 771 l 1
 117 796 l 1
 177 771 l 1
 202 711 l 1
 177 651 l 1
 166 647 l 1
 165 534 l 1x70
 260 530 l 1
 340 665 l 1
 328 694 l 1
 353 755 l 1
 413 779 l 1
 473 755 l 1
 498 694 l 1xb0
EndSplineSet
EndChar

StartChar: tilde.1
Encoding: 65574 -1 169
Width: 501
VWidth: 0
Flags: W
HStem: 442 264 525 21G<298 331>
LayerCount: 2
Fore
SplineSet
468 621 m 1x80
 444 561 l 1
 383 536 l 1
 382 536 l 1
 362 527 340 525 322 525 c 0x40
 274 525 226 536 196 541 c 1
 202 527 l 1
 177 467 l 1
 117 442 l 1
 57 467 l 1
 32 527 l 1
 57 587 l 1
 117 612 l 1
 118 612 l 1
 175 640 258 622 302 612 c 1
 298 621 l 1
 323 681 l 1
 383 706 l 1
 444 681 l 1
 468 621 l 1x80
EndSplineSet
EndChar

StartChar: cedilla.1
Encoding: 65575 -1 170
Width: 370
VWidth: 0
Flags: W
HStem: -150 190
VStem: 37 295
LayerCount: 2
Fore
SplineSet
260 40 m 0
 287 43 313 28 317 6 c 2
 332 -75 l 2
 336 -97 317 -117 290 -120 c 0
 286 -121 278 -120 277 -120 c 2
 188 -112 l 1
 182 -125 l 1
 122 -150 l 1
 62 -125 l 1
 37 -65 l 1
 62 -5 l 1
 122 20 l 1
 182 -5 l 1
 193 -32 l 1
 224 -35 l 1
 218 -6 l 2
 214 16 233 37 260 40 c 0
EndSplineSet
EndChar

StartChar: Lambda.1
Encoding: 65576 -1 171
Width: 402
VWidth: 0
Flags: W
VStem: 146 99<665.556 740.775>
LayerCount: 2
Fore
SplineSet
371 96 m 1
 346 36 l 1
 286 11 l 1
 226 36 l 1
 201 96 l 1
 226 156 l 1
 227 156 l 1
 205 307 l 1
 173 -4 l 1
 176 -5 l 1
 201 -65 l 1
 176 -125 l 1
 116 -150 l 1
 56 -125 l 1
 31 -65 l 1
 56 -5 l 1
 73 2 l 1
 146 711 l 2
 148 733 173 750 200 748 c 0
 225 746 243 729 245 713 c 2
 326 164 l 1
 346 156 l 1
 371 96 l 1
EndSplineSet
EndChar

StartChar: two.1
Encoding: 65577 -1 172
Width: 428
VWidth: 0
Flags: W
HStem: 521 20G<132 186>
LayerCount: 2
Fore
SplineSet
399 -64 m 1
 374 -124 l 1
 314 -149 l 1
 253 -124 l 1
 239 -88 l 1
 72 -51 l 2
 71 -51 67 -49 64 -48 c 0
 39 -39 29 -15 41 5 c 0
 117 131 182 264 235 402 c 0
 282 524 247 617 208 627 c 0
 206 627 204 629 202 629 c 0
 172 633 141 612 133 569 c 0
 131 559 130 549 132 539 c 1
 138 541 l 1
 198 516 l 1
 223 456 l 1
 198 396 l 1
 138 371 l 1
 78 396 l 1
 53 456 l 1
 58 469 l 1
 33 504 27 545 34 582 c 0
 47 647 111 722 218 708 c 1
 382 685 378 502 331 378 c 0
 283 252 223 129 156 13 c 1
 251 -9 l 1
 253 -4 l 1
 314 21 l 1
 374 -4 l 1
 399 -64 l 1
EndSplineSet
EndChar

StartChar: y.1
Encoding: 65578 -1 173
Width: 489
VWidth: 0
Flags: W
HStem: 466 20G<67 163 325 421>
LayerCount: 2
Fore
SplineSet
355 -8 m 1
 330 -68 l 1
 270 -93 l 1
 209 -68 l 1
 185 -8 l 1
 209 52 l 1
 190 166 l 1
 105 320 l 1
 55 341 l 1
 30 401 l 1
 55 461 l 1
 115 486 l 1
 175 461 l 1
 200 401 l 1
 187 370 l 1
 242 270 l 1
 300 362 l 1
 288 390 l 1
 313 450 l 1
 373 475 l 1
 433 450 l 1
 458 390 l 1
 433 330 l 1
 376 306 l 1
 290 170 l 1
 308 61 l 1
 330 52 l 1
 355 -8 l 1
EndSplineSet
EndChar

StartChar: Z.1
Encoding: 65579 -1 174
Width: 467
VWidth: 0
Flags: W
HStem: 558 21G<117 209>
LayerCount: 2
Fore
SplineSet
436 87 m 1
 411 26 l 1
 351 2 l 1
 309 19 l 1
 107 -84 l 2
 69 -103 22 -74 31 -41 c 2
 209 576 l 1
 165 558 l 1
 105 583 l 1
 80 643 l 1
 105 703 l 1
 165 728 l 1
 178 722 l 1
 289 838 l 2
 306 855 337 858 359 845 c 0
 375 835 381 818 377 805 c 2
 156 36 l 1
 268 92 l 1
 291 147 l 1
 351 172 l 1
 411 147 l 1
 436 87 l 1
EndSplineSet
EndChar

StartChar: U.1
Encoding: 65580 -1 175
Width: 453
VWidth: 0
Flags: W
HStem: 797 20G<67 163>
VStem: 53 100<29.9417 474.273> 64 100<330.727 667> 290 100<51.9023 572>
LayerCount: 2
Fore
SplineSet
422 636 m 1xd0
 397 576 l 1
 387 572 l 1
 390 150 l 2
 391 57 351 -74 216 -81 c 0
 94 -88 60 27 54 101 c 0
 53 113 53 126 53 138 c 2xd0
 64 668 l 1
 55 672 l 1
 30 732 l 1
 55 792 l 1
 115 817 l 1
 175 792 l 1
 200 732 l 1
 175 672 l 1
 164 667 l 1xb0
 153 137 l 2
 153 127 153 116 154 106 c 0
 161 24 196 -2 209 -1 c 0
 244 1 290 56 290 149 c 2
 287 572 l 1
 277 576 l 1
 252 636 l 1
 277 696 l 1
 337 721 l 1
 397 696 l 1
 422 636 l 1xd0
EndSplineSet
EndChar

StartChar: u.1
Encoding: 65581 -1 176
Width: 437
VWidth: 0
Flags: W
HStem: 547 20G<65 165 272.2 369>
VStem: 71 100<19 417> 274 100<61.1746 302>
LayerCount: 2
Fore
SplineSet
406 367 m 1
 381 307 l 1
 372 303 l 1
 373 224 374 102 374 101 c 0
 375 24 301 -19 247 -43 c 0
 208 -60 150 -75 104 -46 c 0
 87 -35 71 -15 71 10 c 2
 66 417 l 1
 55 422 l 1
 30 482 l 1
 55 543 l 1
 115 567 l 1
 175 543 l 1
 200 482 l 1
 175 422 l 1
 166 418 l 1
 171 19 l 1
 179 20 189 22 199 27 c 0
 246 48 274 71 274 100 c 2
 272 302 l 1
 260 307 l 1
 236 367 l 1
 260 427 l 1
 321 452 l 1
 381 427 l 1
 406 367 l 1
EndSplineSet
EndChar

StartChar: b.1
Encoding: 65582 -1 177
Width: 430
VWidth: 0
Flags: W
HStem: 479 20G<67 163>
LayerCount: 2
Fore
SplineSet
177 221 m 2
 175 220 l 1
 186 24 l 1
 199 18 l 1
 209 -6 l 1
 240 1 269 22 286 57 c 0
 294 75 299 95 298 117 c 0
 296 188 238 224 195 223 c 0
 189 223 183 223 177 221 c 2
310 271 m 1
 386 222 424 125 379 28 c 0
 349 -34 284 -83 205 -89 c 1
 199 -102 l 1
 139 -127 l 1
 79 -102 l 1
 54 -42 l 1
 79 18 l 1
 86 21 l 1
 68 348 l 1
 55 353 l 1
 30 414 l 1
 55 474 l 1
 115 499 l 1
 175 474 l 1
 195 426 l 1
 359 362 l 2
 366 359 377 352 382 344 c 0
 394 324 384 299 359 290 c 2
 310 271 l 1
169 348 m 1
 171 307 l 1
 222 327 l 1
 169 348 l 1
EndSplineSet
EndChar

StartChar: J.1
Encoding: 65583 -1 178
Width: 395
VWidth: 0
Flags: W
LayerCount: 2
Fore
SplineSet
347 651 m 1
 322 591 l 1
 316 589 l 1
 364 -113 l 2
 365 -135 343 -154 316 -155 c 0
 304 -155 292 -151 285 -147 c 2
 152 -72 l 1
 115 -87 l 1
 55 -62 l 1
 30 -2 l 1
 55 58 l 1
 115 83 l 1
 175 58 l 1
 199 -1 l 1
 258 -34 l 1
 216 585 l 1
 202 591 l 1
 177 651 l 1
 202 711 l 1
 262 736 l 1
 322 711 l 1
 347 651 l 1
EndSplineSet
EndChar

StartChar: one.1
Encoding: 65584 -1 179
Width: 306
VWidth: 0
Flags: W
VStem: 145 101<102 429 744 765.097>
LayerCount: 2
Fore
SplineSet
277 38 m 1
 252 -22 l 1
 192 -47 l 1
 132 -22 l 1
 107 38 l 1
 132 98 l 1
 142 102 l 1
 145 429 l 1
 114 416 l 1
 54 441 l 1
 29 501 l 1
 54 561 l 1
 88 575 l 1
 148 744 l 2
 155 765 184 777 210 771 c 0
 232 766 246 749 246 733 c 2
 242 102 l 1
 252 98 l 1
 277 38 l 1
EndSplineSet
EndChar

StartChar: g.1
Encoding: 65585 -1 180
Width: 441
VWidth: 0
Flags: W
HStem: 387 80<184.691 252.906>
LayerCount: 2
Fore
SplineSet
395 0 m 1
 370 -60 l 1
 310 -85 l 1
 250 -60 l 1
 244 -46 l 1
 108 -58 50 61 35 156 c 0
 32 175 31 195 31 215 c 0
 31 317 71 462 217 467 c 0
 267 469 309 449 337 420 c 1
 385 400 l 1
 410 340 l 1
 385 280 l 1
 325 255 l 1
 265 280 l 1
 240 340 l 1
 254 374 l 1
 243 383 231 388 222 387 c 0
 184 386 139 332 132 239 c 1
 166 252 l 1
 226 228 l 1
 237 201 l 1
 332 192 l 2
 359 189 378 169 376 149 c 2
 367 61 l 1
 370 60 l 1
 395 0 l 1
267 67 m 1
 272 117 l 1
 232 121 l 1
 226 107 l 1
 166 82 l 1
 162 84 l 1
 183 47 212 31 233 33 c 0
 233 33 236 33 239 33 c 1
 250 60 l 1
 267 67 l 1
EndSplineSet
EndChar

StartChar: OE.1
Encoding: 65586 -1 181
Width: 580
VWidth: 0
Flags: W
VStem: 31 100<105.253 353.92> 198 97<341 466> 212 101<29 213>
LayerCount: 2
Fore
SplineSet
482 315 m 1xc0
 457 255 l 1
 397 230 l 1
 362 245 l 1
 307 213 l 1
 313 17 l 1xa0
 376 21 l 1
 386 46 l 1
 446 71 l 1
 506 46 l 1
 531 -14 l 1
 506 -74 l 1
 446 -99 l 1
 386 -74 l 1
 380 -59 l 1
 268 -67 l 2
 267 -67 266 -67 265 -67 c 0
 264 -67 l 0
 97 -67 31 87 31 222 c 0
 31 256 35 291 43 326 c 0
 66 424 108 517 167 599 c 1
 158 621 l 1
 183 681 l 1
 243 706 l 1
 298 683 l 1
 386 712 l 1
 404 755 l 1
 464 780 l 1
 524 755 l 1
 549 695 l 1
 524 635 l 1
 464 610 l 1
 409 633 l 1
 320 603 l 1
 303 561 l 1
 295 558 l 1
 303 310 l 1
 312 315 l 1
 337 375 l 1
 397 400 l 1
 457 375 l 1
 482 315 l 1xc0
212 29 m 1
 198 466 l 1xc0
 173 417 154 366 141 312 c 0
 134 282 131 251 131 222 c 0
 131 125 166 58 212 29 c 1
EndSplineSet
EndChar

StartChar: period.1
Encoding: 65587 -1 182
Width: 246
VWidth: 0
Flags: W
HStem: -220 170
VStem: 38 170
LayerCount: 2
Fore
SplineSet
208 -135 m 1
 183 -195 l 1
 123 -220 l 1
 63 -195 l 1
 38 -135 l 1
 63 -75 l 1
 123 -50 l 1
 183 -75 l 1
 208 -135 l 1
EndSplineSet
EndChar

StartChar: colon.1
Encoding: 65588 -1 183
Width: 308
VWidth: 0
Flags: W
VStem: 35 238
LayerCount: 2
Fore
SplineSet
273 274 m 1
 248 214 l 1
 188 189 l 1
 128 214 l 1
 103 274 l 1
 128 334 l 1
 188 359 l 1
 248 334 l 1
 273 274 l 1
205 -22 m 1
 180 -82 l 1
 120 -107 l 1
 60 -82 l 1
 35 -22 l 1
 60 39 l 1
 120 63 l 1
 180 39 l 1
 205 -22 l 1
EndSplineSet
EndChar

StartChar: macron.1
Encoding: 65589 -1 184
Width: 395
VWidth: 0
Flags: W
HStem: 474 202 506 21G<71 167>
VStem: 34 328
LayerCount: 2
Fore
SplineSet
362 559 m 1xa0
 337 499 l 1
 277 474 l 1xa0
 217 499 l 1
 203 533 l 1
 181 537 l 1
 179 531 l 1
 119 506 l 1x60
 59 531 l 1
 34 591 l 1
 59 651 l 1
 119 676 l 1
 179 651 l 1
 193 617 l 1
 215 613 l 1
 217 619 l 1
 277 644 l 1
 337 619 l 1
 362 559 l 1xa0
EndSplineSet
EndChar

StartChar: Y.1
Encoding: 65590 -1 185
Width: 492
VWidth: 0
Flags: W
HStem: 765 20G<67 163>
VStem: 171 100<62 338>
LayerCount: 2
Fore
SplineSet
306 -3 m 1
 281 -63 l 1
 221 -88 l 1
 161 -63 l 1
 136 -3 l 1
 161 58 l 1
 171 62 l 1
 171 340 l 1
 85 628 l 1
 55 640 l 1
 30 700 l 1
 55 760 l 1
 115 785 l 1
 175 760 l 1
 200 700 l 1
 181 653 l 1
 233 477 l 1
 305 621 l 1
 291 654 l 1
 316 714 l 1
 376 739 l 1
 436 714 l 1
 461 654 l 1
 436 594 l 1
 390 575 l 1
 271 338 l 1
 271 62 l 1
 281 58 l 1
 306 -3 l 1
EndSplineSet
EndChar

StartChar: Sigma.1
Encoding: 65591 -1 186
Width: 461
VWidth: 0
Flags: W
HStem: 798 20G<247 343>
LayerCount: 2
Fore
SplineSet
430 -21 m 1
 405 -81 l 1
 345 -106 l 1
 285 -81 l 1
 275 -57 l 1
 77 -44 l 1
 43 -44 24 -15 33 8 c 2
 156 309 l 1
 121 450 96 594 80 739 c 1
 80 746 l 1
 82 768 106 785 133 783 c 2
 228 777 l 1
 235 793 l 1
 295 818 l 1
 355 793 l 1
 380 733 l 1
 355 673 l 1
 295 648 l 1
 235 673 l 1
 225 697 l 1
 185 699 l 1
 201 569 225 442 257 315 c 0
 259 308 258 301 255 295 c 2
 148 31 l 1
 278 23 l 1
 285 39 l 1
 345 64 l 1
 405 39 l 1
 430 -21 l 1
EndSplineSet
EndChar

StartChar: p.1
Encoding: 65592 -1 187
Width: 490
VWidth: 0
Flags: W
LayerCount: 2
Fore
SplineSet
243 194 m 1
 218 134 l 1
 183 119 l 1
 200 78 l 1
 175 18 l 1
 115 -7 l 1
 55 18 l 1
 30 78 l 1
 55 138 l 1
 69 144 l 1
 90 464 l 2
 91 486 115 503 142 502 c 0
 150 502 158 500 164 497 c 2
 433 377 l 2
 457 366 465 341 452 322 c 0
 449 317 441 312 438 310 c 2
 243 195 l 1
 243 194 l 1
177 271 m 1
 193 265 l 1
 317 337 l 1
 185 396 l 1
 177 271 l 1
EndSplineSet
EndChar

StartChar: five.1
Encoding: 65593 -1 188
Width: 382
VWidth: 0
Flags: W
HStem: -36 80<158.493 223.457>
VStem: 99 103<493 626> 106 99<476.592 626> 251 100<69.1787 259.577>
LayerCount: 2
Fore
SplineSet
199 151 m 1xb0
 174 91 l 1
 151 81 l 1
 157 60 174 44 193 44 c 0
 216 45 254 78 251 163 c 0
 250 188 246 214 237 240 c 0
 209 324 167 402 113 472 c 0
 108 478 106 486 106 493 c 2xb0
 99 719 l 2
 99 750 136 766 165 758 c 2
 172 756 l 1
 173 758 l 1
 233 783 l 1
 294 758 l 1
 318 698 l 1
 294 638 l 1
 233 613 l 1
 202 626 l 1xd0
 205 505 l 1
 261 430 305 349 334 261 c 0
 345 229 350 197 351 166 c 0
 355 80 320 -33 196 -36 c 0
 173 -37 151 -32 132 -24 c 0
 76 0 45 52 48 105 c 1
 29 151 l 1
 54 211 l 1
 114 236 l 1
 174 211 l 1
 199 151 l 1xb0
EndSplineSet
EndChar

StartChar: oslash.1
Encoding: 65594 -1 189
Width: 494
VWidth: 0
Flags: W
HStem: -16 80<227.307 289.255> 488 20G<189 285>
VStem: 31 100<128.13 293.074>
LayerCount: 2
Fore
SplineSet
227 65 m 1
 231 65 234 64 238 64 c 0
 287 65 344 124 357 219 c 0
 363 258 361 298 354 336 c 1
 227 65 l 1
204 -52 m 1
 179 -112 l 1
 119 -137 l 1
 59 -112 l 1
 34 -52 l 1
 59 8 l 1
 102 26 l 1
 106 34 l 1
 55 79 28 146 31 215 c 0
 34 301 79 381 155 429 c 1
 177 483 l 1
 237 508 l 1
 297 483 l 1
 306 461 l 1
 313 476 l 2
 328 506 387 511 405 478 c 0
 452 396 469 302 456 210 c 0
 442 109 379 -13 241 -16 c 0
 225 -16 208 -14 192 -11 c 1
 189 -17 l 1
 204 -52 l 1
199 353 m 1
 160 320 133 271 131 213 c 0
 130 182 137 151 150 127 c 1
 251 343 l 1
 237 338 l 1
 199 353 l 1
EndSplineSet
EndChar

StartChar: equal.1
Encoding: 65595 -1 190
Width: 423
VWidth: 0
Flags: W
HStem: 441 80<192 239> 546 20G<76 172 259 355>
LayerCount: 2
Fore
SplineSet
379 227 m 1
 354 167 l 1
 294 142 l 1
 234 167 l 1
 223 193 l 1
 182 196 l 1
 176 182 l 1
 116 157 l 1
 56 182 l 1
 31 242 l 1
 56 302 l 1
 116 327 l 1
 176 302 l 1
 187 276 l 1
 228 273 l 1
 234 287 l 1
 294 312 l 1
 354 287 l 1
 379 227 l 1
392 482 m 1
 367 422 l 1
 307 397 l 1
 247 422 l 1
 239 442 l 1
 192 441 l 1
 184 421 l 1
 124 396 l 1
 64 421 l 1
 39 481 l 1
 64 541 l 1
 124 566 l 1
 184 541 l 1
 192 521 l 1
 239 522 l 1
 247 542 l 1
 307 567 l 1
 367 542 l 1
 392 482 l 1
EndSplineSet
EndChar

StartChar: o.1
Encoding: 65596 -1 191
Width: 483
VWidth: 0
Flags: W
HStem: 450 20G<230.2 327>
LayerCount: 2
Fore
SplineSet
205 412 m 1
 218 445 l 1
 279 470 l 1
 339 445 l 1
 364 385 l 1
 361 378 l 1
 441 304 470 193 437 91 c 0
 415 22 356 -52 257 -58 c 0
 120 -66 41 41 32 143 c 0
 26 212 49 289 113 353 c 0
 137 377 169 399 205 412 c 1
218 325 m 1
 209 319 200 312 191 303 c 0
 145 257 128 200 132 149 c 0
 139 65 197 18 250 21 c 0
 281 23 322 54 340 111 c 0
 363 182 344 257 300 309 c 1
 279 300 l 1
 218 325 l 1
EndSplineSet
EndChar

StartChar: braceright.1
Encoding: 65597 -1 192
Width: 393
VWidth: 0
Flags: W
HStem: 415 20G<269 327.8>
VStem: 218 100<67.5736 206.94>
LayerCount: 2
Fore
SplineSet
364 350 m 1
 340 290 l 1
 279 265 l 1
 263 271 l 1
 301 233 318 186 318 140 c 0
 318 69 275 -15 187 -45 c 1
 174 -76 l 1
 114 -101 l 1
 54 -76 l 1
 29 -16 l 1
 54 44 l 1
 114 69 l 1
 174 44 l 1
 201 64 218 99 218 140 c 0
 218 186 193 226 149 244 c 1
 122 253 111 291 141 311 c 2
 190 343 l 1
 116 376 l 2
 104 382 93 393 91 406 c 0
 87 428 106 448 133 451 c 0
 186 457 220 506 210 566 c 0
 206 590 197 609 183 622 c 1
 126 598 l 1
 65 623 l 1
 41 683 l 1
 65 743 l 1
 126 768 l 1
 186 743 l 1
 200 710 l 1
 219 703 235 694 249 682 c 0
 326 619 334 504 269 431 c 1
 279 435 l 1
 340 410 l 1
 364 350 l 1
EndSplineSet
EndChar

StartChar: quotesingle.1
Encoding: 65598 -1 193
Width: 239
VWidth: 0
Flags: W
HStem: 826 20G<68 164>
VStem: 75 100<469 695>
LayerCount: 2
Fore
SplineSet
208 404 m 1
 183 343 l 1
 123 319 l 1
 63 343 l 1
 38 404 l 1
 63 464 l 1
 75 469 l 1
 76 545 74 620 70 695 c 1
 56 701 l 1
 31 761 l 1
 56 821 l 1
 116 846 l 1
 176 821 l 1
 201 761 l 1
 176 701 l 1
 170 699 l 1
 174 623 176 545 175 467 c 1
 183 464 l 1
 208 404 l 1
EndSplineSet
EndChar

StartChar: E.1
Encoding: 65599 -1 194
Width: 446
VWidth: 0
Flags: W
HStem: 497 20G<281.2 378> 772 20G<270.2 367>
VStem: 86 102<494 627> 93 102<494 627> 100 99<217 339> 114 99<51 179>
LayerCount: 2
Fore
SplineSet
415 432 m 1xd0
 390 372 l 1
 330 347 l 1
 269 372 l 1
 263 387 l 1
 199 383 l 1xc8
 213 51 l 1
 232 47 l 1
 234 51 l 1
 294 76 l 1
 354 51 l 1
 379 -9 l 1
 354 -69 l 1
 294 -94 l 1
 234 -69 l 1
 219 -33 l 1
 150 -18 l 2
 129 -13 115 4 114 19 c 2xc4
 100 339 l 1xc8
 55 358 l 1
 30 418 l 1
 55 478 l 1
 93 494 l 1xd0
 86 654 l 2
 85 672 101 688 120 693 c 2
 242 728 l 1
 258 767 l 1
 319 792 l 1
 379 767 l 1
 404 707 l 1
 379 647 l 1
 319 622 l 1
 258 647 l 1
 188 627 l 1xe0
 195 464 l 1
 259 468 l 1
 269 492 l 1
 330 517 l 1
 390 492 l 1
 415 432 l 1xd0
EndSplineSet
EndChar

StartChar: Upsilon.1
Encoding: 65600 -1 195
Width: 618
VWidth: 0
Flags: W
HStem: 498 5G<80 177.091 449 545>
VStem: 184 100<224.833 461.148> 196 100<53 224.833>
LayerCount: 2
Fore
SplineSet
582 567 m 1xc0
 557 507 l 1
 497 482 l 1
 437 507 l 1
 412 567 l 1
 437 627 l 1
 485 647 l 1
 484 674 466 698 444 709 c 0
 427 717 410 722 385 689 c 0
 357 653 284 408 284 354 c 0
 284 353 284 353 284 352 c 2xc0
 296 53 l 1
 309 48 l 1
 334 -12 l 1
 309 -73 l 1
 249 -97 l 1
 189 -73 l 1
 164 -12 l 1
 189 48 l 1
 196 51 l 1xa0
 184 349 l 2
 183 379 183 451 182 520 c 1
 128 498 l 1
 68 523 l 1
 43 583 l 1
 47 593 l 1
 46 595 l 1
 9 655 50 726 113 751 c 0
 175 776 233 743 259 700 c 0
 263 693 266 685 269 676 c 1
 279 699 290 718 300 731 c 0
 350 796 435 808 497 777 c 0
 566 743 609 663 573 589 c 1
 582 567 l 1xc0
141 663 m 1
 174 649 l 1
 173 657 171 662 169 665 c 0
 164 674 159 677 157 679 c 1
 151 677 146 671 141 663 c 1
EndSplineSet
EndChar

StartChar: at.1
Encoding: 65601 -1 196
Width: 656
VWidth: 0
Flags: W
HStem: -32 21G<412.5 490>
VStem: 232 99<457.873 504.32>
LayerCount: 2
Fore
SplineSet
202 270 m 1
 232 476 l 2
 235 498 261 514 288 511 c 0
 310 509 327 495 331 481 c 2
 410 220 l 1
 441 207 l 1
 466 147 l 1
 447 100 l 1
 458 63 l 1
 523 123 537 306 514 425 c 0
 481 589 388 673 285 660 c 1
 169 643 91 498 150 352 c 0
 163 321 181 293 202 270 c 1
293 206 m 1
 300 203 306 201 313 199 c 1
 299 247 l 1
 293 206 l 1
297 -0 m 1
 272 -60 l 1
 212 -85 l 1
 152 -60 l 1
 127 -0 l 1
 152 60 l 1
 172 68 l 1
 187 167 l 1
 178 173 l 1
 123 212 80 265 55 328 c 0
 -10 489 55 686 235 732 c 0
 246 735 257 738 269 739 c 0
 466 765 579 607 613 438 c 0
 629 358 630 270 614 181 c 0
 599 97 557 -32 423 -32 c 0
 402 -32 380 -19 374 -1 c 2
 351 75 l 1
 321 87 l 1
 309 116 l 1
 299 118 290 120 281 123 c 1
 272 60 l 1
 297 -0 l 1
EndSplineSet
EndChar

StartChar: zero.1
Encoding: 65602 -1 197
Width: 455
VWidth: 0
Flags: W
HStem: -51 80<173.949 274.703>
VStem: 30 100<83.0901 329.63>
LayerCount: 2
Fore
SplineSet
226 534 m 1
 210 484 191 436 172 388 c 0
 146 323 131 255 130 196 c 0
 128 80 174 29 225 29 c 0
 233 29 240 30 246 32 c 0
 311 49 357 199 286 378 c 1
 226 534 l 1
156 642 m 1
 135 694 l 1
 159 754 l 1
 220 779 l 1
 280 754 l 1
 305 694 l 1
 287 651 l 1
 381 402 l 1
 450 229 452 0 277 -45 c 0
 260 -49 242 -51 224 -51 c 0
 74 -50 28 81 30 197 c 0
 31 265 48 339 77 412 c 0
 107 488 135 562 156 642 c 1
EndSplineSet
EndChar

StartChar: O.1
Encoding: 65603 -1 198
Width: 398
VWidth: 0
Flags: W
HStem: -48 80<153.176 225.682> 766 20G<136 232>
VStem: 33 100<47.1707 391.271> 41 100<117.023 628.664>
LayerCount: 2
Fore
SplineSet
109 725 m 1xd0
 124 761 l 1
 184 786 l 1
 244 761 l 1
 269 701 l 1
 253 662 l 1
 309 523 345 377 362 228 c 0
 374 122 354 -43 198 -48 c 0
 66 -52 37 48 33 128 c 0xe0
 29 207 42 302 41 382 c 0
 40 478 -2 669 109 725 c 1xd0
164 625 m 1
 148 631 l 1
 131 582 140 479 141 382 c 0xd0
 142 295 129 202 133 132 c 0
 137 48 157 31 194 32 c 0
 231 33 276 103 263 221 c 0
 248 359 214 495 164 625 c 1
EndSplineSet
EndChar

StartChar: V.1
Encoding: 65604 -1 199
Width: 475
VWidth: 0
Flags: W
HStem: 817 20G<67 163 311 407.8>
LayerCount: 2
Fore
SplineSet
444 713 m 1
 420 653 l 1
 401 645 l 1
 327 27 l 2
 325 10 308 -6 286 -9 c 0
 259 -13 233 2 228 23 c 2
 80 681 l 1
 55 692 l 1
 30 752 l 1
 55 812 l 1
 115 837 l 1
 175 812 l 1
 200 752 l 1
 178 698 l 1
 262 323 l 1
 302 652 l 1
 299 653 l 1
 274 713 l 1
 299 773 l 1
 359 798 l 1
 420 773 l 1
 444 713 l 1
EndSplineSet
EndChar

StartChar: eight.1
Encoding: 65605 -1 200
Width: 372
VWidth: 0
Flags: W
HStem: -20 80<152.219 218.24> 792 20G<159 255>
LayerCount: 2
Fore
SplineSet
189 323 m 1
 166 285 148 246 137 205 c 0
 115 120 155 64 178 60 c 0
 179 60 180 60 181 60 c 0
 198 59 233 76 241 142 c 0
 250 208 216 277 189 323 c 1
247 410 m 1
 250 404 l 1
 293 336 353 243 340 135 c 0
 331 61 281 -29 171 -20 c 0
 167 -20 162 -19 158 -18 c 0
 33 2 16 132 39 221 c 0
 58 292 95 354 133 411 c 1
 130 415 l 1
 98 464 63 516 45 578 c 0
 18 672 59 761 144 779 c 1
 147 787 l 1
 207 812 l 1
 267 787 l 1
 292 727 l 1
 285 711 l 1
 312 673 325 628 322 583 c 0
 318 516 283 462 250 415 c 1
 247 410 l 1
146 670 m 1
 139 651 134 625 142 597 c 0
 152 562 170 529 190 496 c 1
 208 526 220 555 222 586 c 0
 223 606 219 626 212 644 c 1
 207 642 l 1
 147 667 l 1
 146 670 l 1
EndSplineSet
EndChar

StartChar: H.1
Encoding: 65606 -1 201
Width: 520
VWidth: 0
Flags: W
HStem: 778 20G<124.2 221 350 446>
VStem: 356 100<74 372 452 635>
LayerCount: 2
Fore
SplineSet
483 700 m 1
 458 640 l 1
 451 637 l 1
 454 564 455 491 456 417 c 1
 456 415 456 414 456 412 c 0
 457 300 457 187 455 74 c 1
 464 70 l 1
 489 9 l 1
 464 -51 l 1
 404 -76 l 1
 344 -51 l 1
 319 9 l 1
 344 70 l 1
 355 74 l 1
 357 173 357 273 356 372 c 1
 194 364 l 1
 170 77 l 1
 175 75 l 1
 200 14 l 1
 175 -46 l 1
 115 -71 l 1
 55 -46 l 1
 30 14 l 1
 55 75 l 1
 70 81 l 1
 91 328 l 1
 62 340 l 1
 37 400 l 1
 62 461 l 1
 103 478 l 1
 118 651 l 1
 112 653 l 1
 88 713 l 1
 112 773 l 1
 173 798 l 1
 233 773 l 1
 258 713 l 1
 233 653 l 1
 217 646 l 1
 200 444 l 1
 356 452 l 1
 355 513 353 574 351 635 c 1
 338 640 l 1
 313 700 l 1
 338 760 l 1
 398 785 l 1
 458 760 l 1
 483 700 l 1
EndSplineSet
EndChar

StartChar: exclamdown.1
Encoding: 65607 -1 202
Width: 240
VWidth: 0
Flags: W
HStem: 501 20G<75.1667 176> 526 21G<67 163>
VStem: 73 100<-6 372>
LayerCount: 2
Fore
SplineSet
211 436 m 1
 186 376 l 1
 176 372 l 1
 173 -6 l 1
 183 -10 l 1
 208 -70 l 1
 183 -130 l 1
 123 -155 l 1
 63 -130 l 1
 38 -70 l 1
 63 -10 l 1
 73 -6 l 1
 76 372 l 1
 65 376 l 1
 41 436 l 1
 65 497 l 1
 126 521 l 1
 186 497 l 1
 211 436 l 1
200 611 m 1
 175 551 l 1
 115 526 l 1
 55 551 l 1
 30 611 l 1
 55 671 l 1
 115 696 l 1
 175 671 l 1
 200 611 l 1
EndSplineSet
EndChar

StartChar: grave.1
Encoding: 65608 -1 203
Width: 327
VWidth: 0
Flags: W
HStem: 489 287
VStem: 33 261
LayerCount: 2
Fore
SplineSet
294 574 m 1
 269 514 l 1
 209 489 l 1
 148 514 l 1
 124 574 l 1
 133 596 l 1
 123 608 l 1
 118 606 l 1
 58 631 l 1
 33 691 l 1
 58 751 l 1
 118 776 l 1
 178 751 l 1
 203 691 l 1
 194 669 l 1
 203 657 l 1
 209 659 l 1
 269 634 l 1
 294 574 l 1
EndSplineSet
EndChar

StartChar: AE.1
Encoding: 65609 -1 204
Width: 538
VWidth: 0
Flags: W
HStem: 808 20G<340 436.8>
LayerCount: 2
Fore
SplineSet
507 45 m 1
 483 -15 l 1
 422 -40 l 1
 364 -16 l 1
 282 -41 l 2
 277 -42 268 -44 261 -44 c 0
 234 -43 212 -23 214 -1 c 2
 224 127 l 1
 215 125 l 1
 180 -2 l 1
 200 -50 l 1
 175 -110 l 1
 115 -135 l 1
 55 -110 l 1
 30 -50 l 1
 55 10 l 1
 84 22 l 1
 98 76 l 1
 70 88 l 1
 45 148 l 1
 70 208 l 1
 130 233 l 1
 140 229 l 1
 256 650 l 1
 236 698 l 1
 261 758 l 1
 320 782 l 1
 328 803 l 1
 388 828 l 1
 449 803 l 1
 473 742 l 1
 449 682 l 1
 389 657 l 1
 381 638 l 1
 366 632 l 1
 336 268 l 1
 394 292 l 1
 454 267 l 1
 479 207 l 1
 454 147 l 1
 394 122 l 1
 334 147 l 1
 332 151 l 1
 327 150 l 1
 319 56 l 1
 345 64 l 1
 362 105 l 1
 422 130 l 1
 483 105 l 1
 507 45 l 1
EndSplineSet
EndChar

StartChar: W.1
Encoding: 65610 -1 205
Width: 563
VWidth: 0
Flags: W
HStem: 777 20G<67 163 399 495>
VStem: 199 99<-30.2365 33.3719> 243 100<619.824 696.015> 343 100<-63.93 12.7812>
LayerCount: 2
Fore
SplineSet
532 710 m 1xa0
 507 649 l 1
 492 643 l 1
 443 -34 l 2
 442 -53 422 -69 398 -71 c 0
 371 -73 346 -58 343 -36 c 2
 311 187 l 1
 298 0 l 2
 297 -18 279 -34 256 -37 c 0
 229 -40 203 -26 199 -4 c 2xd0
 78 642 l 1
 55 652 l 1
 30 712 l 1
 55 772 l 1
 115 797 l 1
 175 772 l 1
 200 712 l 1
 176 654 l 1
 225 395 l 1
 243 666 l 2
 244 688 269 704 296 703 c 0
 320 702 340 687 343 668 c 2
 377 434 l 1
 392 647 l 1
 387 649 l 1
 362 710 l 1
 387 770 l 1
 447 795 l 1
 507 770 l 1
 532 710 l 1xa0
EndSplineSet
EndChar

StartChar: R.1
Encoding: 65611 -1 206
Width: 579
VWidth: 0
Flags: W
HStem: 768 78<216 342.11> 847 20G<87 187.476>
VStem: 67 100<165 225> 75 99<372.242 594.455> 85 100<502.545 717>
LayerCount: 2
Fore
SplineSet
174 380 m 1xd0
 254 342 351 367 407 443 c 0
 429 472 444 508 447 551 c 0
 457 681 356 767 262 772 c 0
 247 773 231 771 216 768 c 1
 197 722 l 1
 185 717 l 1xc8
 174 380 l 1xd0
545 -48 m 1
 520 -108 l 1
 460 -133 l 1
 400 -108 l 1
 375 -48 l 1
 383 -28 l 1
 169 225 l 1
 167 163 l 1
 175 160 l 1
 200 99 l 1
 175 39 l 1
 115 14 l 1
 55 39 l 1
 30 99 l 1
 55 160 l 1
 67 165 l 1xe0
 73 339 l 1
 64 350 l 2
 49 367 55 394 75 404 c 1xd0
 85 719 l 1
 77 722 l 1
 52 782 l 1
 77 843 l 1
 137 867 l 1
 190 846 l 1
 216 852 242 853 268 852 c 0
 433 843 559 707 547 546 c 0
 535 390 399 278 241 283 c 1
 452 34 l 1
 460 37 l 1
 520 12 l 1
 545 -48 l 1
EndSplineSet
EndChar

StartChar: l.1
Encoding: 65612 -1 207
Width: 427
VWidth: 0
Flags: W
LayerCount: 2
Fore
SplineSet
396 51 m 1
 371 -9 l 1
 311 -34 l 1
 251 -9 l 1
 240 18 l 1
 73 36 l 2
 49 39 28 57 30 79 c 2
 73 479 l 1
 70 480 l 1
 45 540 l 1
 70 600 l 1
 130 625 l 1
 190 600 l 1
 215 540 l 1
 190 480 l 1
 173 473 l 1
 134 110 l 1
 246 98 l 1
 251 111 l 1
 311 136 l 1
 371 111 l 1
 396 51 l 1
EndSplineSet
EndChar

StartChar: w.1
Encoding: 65613 -1 208
Width: 626
VWidth: 0
Flags: W
HStem: 576 20G<67 163 462 558>
VStem: 189 98<34.4355 83.1604>
LayerCount: 2
Fore
SplineSet
595 435 m 1
 570 375 l 1
 545 365 l 1
 468 21 l 2
 459 -20 386 -21 371 17 c 2
 308 183 l 1
 287 62 l 2
 284 46 268 32 248 28 c 0
 221 23 195 37 189 58 c 2
 83 439 l 1
 55 451 l 1
 30 511 l 1
 55 571 l 1
 115 596 l 1
 175 571 l 1
 200 511 l 1
 180 462 l 1
 226 293 l 1
 240 375 l 2
 244 397 270 412 297 409 c 0
 317 407 333 394 338 381 c 2
 406 199 l 1
 447 381 l 1
 425 435 l 1
 450 495 l 1
 510 520 l 1
 570 495 l 1
 595 435 l 1
EndSplineSet
EndChar

StartChar: d.1
Encoding: 65614 -1 209
Width: 505
VWidth: 0
Flags: W
HStem: 503 20G<65 134>
VStem: 67 100<196 373> 81 100<17 194> 373 100<210.997 414.356>
LayerCount: 2
Fore
SplineSet
200 438 m 1xb0
 175 378 l 1
 167 375 l 1xd0
 181 17 l 1
 184 16 l 1
 298 76 378 201 373 344 c 0
 371 403 338 441 301 458 c 0
 268 473 229 475 194 453 c 1
 200 438 l 1xb0
134 515 m 1
 200 555 283 559 351 527 c 0
 421 494 470 428 473 346 c 0
 479 172 378 8 212 -64 c 1
 194 -108 l 1
 133 -133 l 1
 73 -108 l 1
 48 -48 l 1
 73 12 l 1
 81 15 l 1xb0
 67 373 l 1
 55 378 l 1
 30 438 l 1
 55 499 l 1
 115 523 l 1
 134 515 l 1
EndSplineSet
EndChar

StartChar: six.1
Encoding: 65615 -1 210
Width: 438
VWidth: 0
Flags: W
LayerCount: 2
Fore
SplineSet
247 446 m 1
 318 381 371 297 396 207 c 0
 434 73 388 -83 251 -107 c 0
 228 -111 203 -111 179 -105 c 0
 62 -76 45 29 56 124 c 1
 54 125 l 1
 29 185 l 1
 54 245 l 1
 89 260 l 1
 130 379 164 510 191 639 c 1
 168 696 l 1
 193 756 l 1
 253 781 l 1
 313 756 l 1
 338 696 l 1
 313 635 l 1
 289 626 l 1
 276 566 262 506 247 446 c 1
199 185 m 1
 174 125 l 1
 156 117 l 1
 147 34 170 -19 207 -28 c 0
 216 -30 223 -30 229 -29 c 0
 269 -22 334 66 299 189 c 0
 284 241 260 290 229 331 c 1
 183 223 l 1
 199 185 l 1
EndSplineSet
EndChar

StartChar: Theta.1
Encoding: 65616 -1 211
Width: 564
VWidth: 0
Flags: W
HStem: -48 80<223.041 352.821> 549 21G<241 301>
VStem: 38 99<142.389 286>
LayerCount: 2
Fore
SplineSet
309 323 m 1
 354 342 l 1
 414 317 l 1
 429 281 l 1
 426 332 413 387 387 444 c 0
 358 508 338 536 301 563 c 1
 267 549 l 1
 241 560 l 1
 198 523 178 489 161 430 c 1
 177 423 l 1
 198 372 l 1
 309 323 l 1
273 247 m 1
 162 297 l 1
 137 286 l 1
 133 130 201 33 283 32 c 0
 297 32 308 33 319 36 c 0
 377 53 424 130 429 234 c 1
 414 197 l 1
 354 172 l 1
 294 197 l 1
 273 247 l 1
58 423 m 1
 81 513 115 571 185 628 c 1
 182 634 l 1
 207 694 l 1
 267 719 l 1
 327 694 l 1
 352 634 l 1
 352 633 l 1
 412 593 446 547 481 471 c 0
 574 268 545 17 354 -39 c 0
 331 -46 306 -48 281 -48 c 0
 95 -45 34 133 38 288 c 0
 39 305 40 322 42 339 c 1
 32 363 l 1
 57 423 l 1
 58 423 l 1
EndSplineSet
EndChar

StartChar: plus.1
Encoding: 65617 -1 212
Width: 442
VWidth: 0
Flags: W
HStem: 416 20G<66 162>
VStem: 178 100<409 532>
LayerCount: 2
Fore
SplineSet
314 597 m 1
 289 537 l 1
 278 532 l 1
 274 386 l 1
 328 408 l 1
 388 384 l 1
 413 323 l 1
 388 263 l 1
 328 238 l 1
 271 262 l 1
 267 92 l 1
 276 88 l 1
 301 28 l 1
 276 -32 l 1
 216 -57 l 1
 156 -32 l 1
 131 28 l 1
 156 88 l 1
 167 93 l 1
 172 290 l 1
 114 266 l 1
 54 291 l 1
 29 351 l 1
 54 411 l 1
 114 436 l 1
 174 411 l 1
 175 409 l 1
 178 533 l 1
 169 537 l 1
 144 597 l 1
 169 657 l 1
 229 682 l 1
 289 657 l 1
 314 597 l 1
EndSplineSet
EndChar

StartChar: Gamma.1
Encoding: 65618 -1 213
Width: 513
VWidth: 0
Flags: W
HStem: 593 21G<349 445>
VStem: 67 100<-18 288.125> 84 99<424.941 683>
LayerCount: 2
Fore
SplineSet
482 678 m 1xa0
 457 618 l 1
 397 593 l 1
 337 618 l 1
 323 652 l 1
 183 683 l 1xa0
 167 -19 l 1
 176 -23 l 1
 201 -83 l 1
 176 -143 l 1
 116 -168 l 1
 56 -143 l 1
 31 -83 l 1
 56 -23 l 1
 67 -18 l 1xc0
 84 735 l 2
 84 757 108 775 135 775 c 0
 140 775 147 773 147 773 c 1
 335 732 l 1
 337 738 l 1
 397 763 l 1
 457 738 l 1
 482 678 l 1xa0
EndSplineSet
EndChar

StartChar: quotedblright.1
Encoding: 65619 -1 214
Width: 378
VWidth: 0
Flags: W
HStem: 559 21G<254 310.8>
VStem: 32 315
LayerCount: 2
Fore
SplineSet
347 644 m 1
 323 584 l 1
 262 559 l 1
 254 562 l 1
 123 405 l 2
 111 391 89 384 69 388 c 0
 43 393 25 416 32 437 c 2
 100 651 l 1
 81 698 l 1
 106 758 l 1
 166 783 l 1
 226 758 l 1
 242 721 l 1
 262 729 l 1
 323 704 l 1
 347 644 l 1
EndSplineSet
EndChar

StartChar: k.1
Encoding: 65620 -1 215
Width: 534
VWidth: 0
Flags: W
HStem: 519 20G<109 205 367 463>
LayerCount: 2
Fore
SplineSet
503 19 m 1
 478 -41 l 1
 418 -66 l 1
 358 -41 l 1
 340 2 l 1
 311 17 287 38 269 63 c 0
 254 84 241 106 231 129 c 1
 224 113 l 1
 172 91 l 1
 171 81 l 1
 175 79 l 1
 200 19 l 1
 175 -41 l 1
 115 -66 l 1
 55 -41 l 1
 30 19 l 1
 55 79 l 1
 71 86 l 1
 79 172 l 1
 79 173 l 1
 80 175 l 1
 101 392 l 1
 97 394 l 1
 72 454 l 1
 97 514 l 1
 157 539 l 1
 217 514 l 1
 242 454 l 1
 217 394 l 1
 201 387 l 1
 189 262 l 1
 336 408 l 1
 330 423 l 1
 355 483 l 1
 415 508 l 1
 475 483 l 1
 500 423 l 1
 475 363 l 1
 415 338 l 1
 400 344 l 1
 299 243 l 1
 306 192 325 143 355 102 c 0
 360 95 365 89 371 84 c 1
 418 104 l 1
 478 79 l 1
 503 19 l 1
EndSplineSet
EndChar

StartChar: ae.1
Encoding: 65621 -1 216
Width: 580
VWidth: 0
Flags: W
HStem: 451 20G<301 395.957 416 512>
LayerCount: 2
Fore
SplineSet
534 98 m 1
 509 37 l 1
 449 13 l 1
 405 31 l 1
 372 15 l 2
 366 12 355 10 346 10 c 0
 319 10 297 28 297 50 c 2
 297 117 l 1
 255 119 l 1
 248 102 l 1
 211 87 l 1
 189 52 l 1
 200 25 l 1
 175 -36 l 1
 115 -60 l 1
 55 -36 l 1
 30 25 l 1
 55 85 l 1
 114 110 l 1
 121 120 l 1
 103 162 l 1
 128 222 l 1
 188 247 l 1
 200 242 l 1
 275 359 l 1
 264 385 l 1
 289 446 l 1
 349 471 l 1
 403 448 l 1
 404 450 l 1
 464 475 l 1
 524 450 l 1
 549 390 l 1
 524 330 l 1
 464 305 l 1
 410 327 l 1
 409 325 l 1
 399 321 l 1
 398 224 l 1
 425 235 l 1
 485 211 l 1
 506 159 l 1
 509 158 l 1
 534 98 l 1
298 197 m 1
 298 220 l 1
 283 197 l 1
 298 197 l 1
EndSplineSet
EndChar

StartChar: dotaccent.1
Encoding: 65622 -1 217
Width: 238
VWidth: 0
Flags: W
HStem: 620 170
VStem: 34 170
LayerCount: 2
Fore
SplineSet
204 705 m 1
 179 645 l 1
 119 620 l 1
 59 645 l 1
 34 705 l 1
 59 765 l 1
 119 790 l 1
 179 765 l 1
 204 705 l 1
EndSplineSet
EndChar

StartChar: S.1
Encoding: 65623 -1 218
Width: 426
VWidth: 0
Flags: W
HStem: 591 21G<262 358> 632 79<202.565 240>
LayerCount: 2
Fore
SplineSet
395 676 m 1
 370 616 l 1
 310 591 l 1
 250 616 l 1
 243 632 l 1
 239 632 l 2
 236 632 233 631 230 630 c 0
 192 619 158 565 182 511 c 0
 195 482 227 464 267 430 c 0
 331 376 378 301 385 216 c 0
 393 118 347 22 257 -34 c 0
 235 -48 202 -43 187 -27 c 2
 129 32 l 1
 115 26 l 1
 55 51 l 1
 30 111 l 1
 55 171 l 1
 115 196 l 1
 175 171 l 1
 200 111 l 1
 194 96 l 1
 231 58 l 1
 268 96 290 152 285 211 c 0
 280 275 244 333 194 375 c 0
 164 400 113 429 88 484 c 0
 46 576 101 699 225 711 c 0
 226 711 228 712 229 712 c 2
 240 713 l 1
 250 737 l 1
 310 761 l 1
 370 737 l 1
 395 676 l 1
EndSplineSet
EndChar

StartChar: x.1
Encoding: 65624 -1 219
Width: 490
VWidth: 0
Flags: W
HStem: 503 20G<70 170 245 341.8>
LayerCount: 2
Fore
SplineSet
378 448 m 1
 354 388 l 1
 315 372 l 1
 273 269 l 1
 381 82 l 1
 434 60 l 1
 459 -0 l 1
 434 -60 l 1
 374 -85 l 1
 314 -60 l 1
 289 -0 l 1
 301 29 l 1
 228 157 l 1
 184 49 l 1
 200 10 l 1
 175 -50 l 1
 115 -75 l 1
 55 -50 l 1
 30 10 l 1
 55 70 l 1
 93 86 l 1
 166 264 l 1
 113 356 l 1
 60 378 l 1
 35 438 l 1
 60 499 l 1
 120 523 l 1
 180 499 l 1
 205 438 l 1
 192 408 l 1
 211 375 l 1
 225 408 l 1
 208 448 l 1
 233 508 l 1
 293 533 l 1
 354 508 l 1
 378 448 l 1
EndSplineSet
EndChar

StartChar: asciicircum.1
Encoding: 65625 -1 220
Width: 437
VWidth: 0
Flags: W
LayerCount: 2
Fore
SplineSet
406 413 m 1
 381 353 l 1
 321 328 l 1
 261 353 l 1
 236 413 l 1
 252 451 l 1
 203 565 l 1
 180 470 l 1
 201 419 l 1
 176 359 l 1
 116 334 l 1
 56 359 l 1
 31 419 l 1
 56 479 l 1
 83 490 l 1
 141 726 l 2
 146 747 173 762 200 758 c 0
 218 755 234 741 238 731 c 2
 341 490 l 1
 381 473 l 1
 406 413 l 1
EndSplineSet
EndChar

StartChar: M.1
Encoding: 65626 -1 221
Width: 521
VWidth: 0
Flags: W
VStem: 30 99<672.027 727.644> 190 98<-19.6457 35.9559> 355 100<10 297 722.448 763.642>
LayerCount: 2
Fore
SplineSet
490 -54 m 1
 465 -114 l 1
 405 -139 l 1
 345 -114 l 1
 320 -54 l 1
 345 6 l 1
 355 10 l 1
 356 297 l 1
 288 6 l 2
 284 -10 268 -23 248 -26 c 0
 221 -30 195 -15 190 6 c 2
 183 36 l 1
 177 22 l 1
 117 -3 l 1
 57 22 l 1
 32 82 l 1
 57 143 l 1
 63 145 l 1
 30 693 l 2
 29 715 51 734 78 735 c 0
 105 736 125 718 129 702 c 2
 239 231 l 1
 358 740 l 2
 363 761 390 776 417 772 c 0
 441 768 458 751 458 733 c 2
 455 10 l 1
 465 6 l 1
 490 -54 l 1
EndSplineSet
EndChar

StartChar: quoteleft.1
Encoding: 65627 -1 222
Width: 275
VWidth: 0
Flags: W
HStem: 594 21G<149 207>
VStem: 34 210
LayerCount: 2
Fore
SplineSet
234 448 m 1
 209 388 l 1
 149 363 l 1
 89 388 l 1
 64 448 l 1
 79 483 l 1
 34 576 l 2
 29 587 30 602 40 613 c 2
 82 661 l 1
 74 679 l 1
 99 739 l 1
 159 764 l 1
 219 739 l 1
 244 679 l 1
 219 619 l 1
 159 594 l 1
 149 598 l 1
 137 585 l 1
 165 526 l 1
 209 508 l 1
 234 448 l 1
EndSplineSet
EndChar

StartChar: quoteright.1
Encoding: 65628 -1 223
Width: 289
VWidth: 0
Flags: W
HStem: 534 20G<66 125>
LayerCount: 2
Fore
SplineSet
201 469 m 1
 176 409 l 1
 116 384 l 1
 56 409 l 1
 31 469 l 1
 56 530 l 1
 116 554 l 1
 125 550 l 1
 151 581 l 1
 132 617 l 1
 84 637 l 1
 59 697 l 1
 84 757 l 1
 144 782 l 1
 204 757 l 1
 229 697 l 1
 216 665 l 1
 254 593 l 2
 261 580 258 565 249 554 c 2
 193 489 l 1
 201 469 l 1
EndSplineSet
EndChar

StartChar: Delta.1
Encoding: 65629 -1 224
Width: 558
VWidth: 0
Flags: W
LayerCount: 2
Fore
SplineSet
180 44 m 1
 192 18 l 1
 259 6 365 -8 418 -11 c 1
 435 79 383 401 326 569 c 1
 180 44 l 1
84 67 m 1
 260 700 l 2
 266 721 291 733 313 731 c 0
 350 728 365 707 373 696 c 0
 452 593 606 -21 477 -84 c 0
 436 -104 280 -90 174 -66 c 1
 116 -90 l 1
 56 -65 l 1
 31 -5 l 1
 56 55 l 1
 84 67 l 1
EndSplineSet
EndChar

StartChar: T.1
Encoding: 65630 -1 225
Width: 524
VWidth: 0
Flags: W
HStem: 773 20G<67 163>
LayerCount: 2
Fore
SplineSet
309 18 m 1
 284 -42 l 1
 224 -67 l 1
 164 -42 l 1
 139 18 l 1
 164 78 l 1
 177 84 l 1
 209 661 l 1
 181 663 l 1
 175 647 l 1
 115 623 l 1
 55 647 l 1
 30 708 l 1
 55 768 l 1
 115 793 l 1
 175 768 l 1
 186 742 l 1
 256 737 l 2
 259 737 261 737 264 737 c 0
 268 737 272 736 276 735 c 2
 341 730 l 1
 348 746 l 1
 408 771 l 1
 468 746 l 1
 493 686 l 1
 468 625 l 1
 408 601 l 1
 348 625 l 1
 337 651 l 1
 309 653 l 1
 278 81 l 1
 284 78 l 1
 309 18 l 1
EndSplineSet
EndChar

StartChar: c.1
Encoding: 65631 -1 226
Width: 476
VWidth: 0
Flags: W
HStem: 427 20G<347 397>
LayerCount: 2
Fore
SplineSet
445 84 m 1
 420 24 l 1
 369 3 l 1
 350 -16 324 -31 294 -38 c 0
 167 -68 83 30 51 117 c 0
 -3 268 56 458 215 479 c 0
 268 487 314 472 347 446 c 1
 349 447 l 1
 409 422 l 1
 434 362 l 1
 409 301 l 1
 349 277 l 1
 289 301 l 1
 264 362 l 1
 276 390 l 1
 271 394 266 396 261 398 c 0
 250 402 241 401 232 400 c 0
 184 393 109 303 137 174 c 0
 140 162 143 151 147 140 c 0
 177 58 230 30 265 38 c 0
 273 40 282 44 289 51 c 1
 275 84 l 1
 300 144 l 1
 360 169 l 1
 420 144 l 1
 445 84 l 1
EndSplineSet
EndChar

StartChar: circumflex.1
Encoding: 65632 -1 227
Width: 415
VWidth: 0
Flags: W
HStem: 458 38G<69 165 249 345>
LayerCount: 2
Fore
SplineSet
382 560 m 1
 357 500 l 1
 297 475 l 1
 237 500 l 1
 212 560 l 1
 224 589 l 1
 221 595 l 1
 194 563 l 1
 202 543 l 1
 177 483 l 1
 117 458 l 1
 57 483 l 1
 32 543 l 1
 57 603 l 1
 117 628 l 1
 126 624 l 1
 187 697 l 2
 209 723 258 718 273 692 c 2
 303 643 l 1
 357 620 l 1
 382 560 l 1
EndSplineSet
EndChar

StartChar: oe.1
Encoding: 65633 -1 228
Width: 642
VWidth: 0
Flags: W
HStem: 486 20G<270 370.833 429 525.8>
VStem: 267 94<222 355>
LayerCount: 2
Fore
SplineSet
611 207 m 1
 586 147 l 1
 526 122 l 1
 466 147 l 1
 462 156 l 1
 357 140 l 1
 352 42 l 1
 457 31 l 1
 463 45 l 1
 523 70 l 1
 583 45 l 1
 608 -15 l 1
 583 -76 l 1
 523 -100 l 1
 463 -76 l 1
 452 -49 l 1
 294 -33 l 2
 293 -33 l 0
 199 -31 110 12 65 90 c 0
 -15 227 52 393 198 447 c 0
 215 453 232 457 251 460 c 1
 260 482 l 1
 320 506 l 1
 381 482 l 1
 392 453 l 1
 412 451 l 1
 417 463 l 1
 477 488 l 1
 538 463 l 1
 562 402 l 1
 538 342 l 1
 477 317 l 1
 417 342 l 1
 405 371 l 1
 386 373 l 1
 381 361 l 1
 367 355 l 1
 361 222 l 1
 453 236 l 1
 466 267 l 1
 526 292 l 1
 586 267 l 1
 611 207 l 1
252 53 m 1
 267 358 l 1
 260 361 l 1
 253 378 l 1
 249 377 244 376 240 374 c 0
 155 343 97 226 156 124 c 0
 178 87 212 63 252 53 c 1
EndSplineSet
EndChar

StartChar: exclam.1
Encoding: 65634 -1 229
Width: 244
VWidth: 0
Flags: W
HStem: 803 20G<82 178>
VStem: 67 100<270 525.727> 78 100<417.273 673>
LayerCount: 2
Fore
SplineSet
200 205 m 1xc0
 175 144 l 1
 115 120 l 1
 55 144 l 1
 30 205 l 1
 55 265 l 1
 67 270 l 1xc0
 78 675 l 1
 70 678 l 1
 45 738 l 1
 70 798 l 1
 130 823 l 1
 190 798 l 1
 215 738 l 1
 190 678 l 1
 178 673 l 1xa0
 167 268 l 1
 175 265 l 1
 200 205 l 1xc0
199 12 m 1
 174 -48 l 1
 114 -73 l 1
 54 -48 l 1
 29 12 l 1
 54 72 l 1
 114 97 l 1
 174 72 l 1
 199 12 l 1
EndSplineSet
EndChar

StartChar: t.1
Encoding: 65635 -1 230
Width: 511
VWidth: 0
Flags: W
HStem: 437 20G<67 163 347 443>
VStem: 212 100<83 344>
LayerCount: 2
Fore
SplineSet
349 18 m 1
 324 -42 l 1
 264 -67 l 1
 204 -42 l 1
 179 18 l 1
 204 78 l 1
 212 82 l 1
 206 344 l 1
 187 341 l 1
 175 312 l 1
 115 287 l 1
 55 312 l 1
 30 372 l 1
 55 432 l 1
 115 457 l 1
 175 432 l 1
 179 422 l 1
 322 443 l 1
 335 473 l 1
 395 498 l 1
 455 473 l 1
 480 413 l 1
 455 353 l 1
 395 328 l 1
 335 353 l 1
 331 363 l 1
 306 359 l 1
 312 83 l 1
 324 78 l 1
 349 18 l 1
EndSplineSet
EndChar

StartChar: z.1
Encoding: 65636 -1 231
Width: 400
VWidth: 0
Flags: W
HStem: -36 78<155 215>
LayerCount: 2
Fore
SplineSet
369 6 m 1
 344 -54 l 1
 284 -79 l 1
 224 -54 l 1
 217 -36 l 1
 82 -40 l 1
 46 -40 20 -12 33 15 c 2
 165 279 l 1
 142 269 l 1
 82 294 l 1
 57 354 l 1
 82 414 l 1
 142 439 l 1
 192 418 l 1
 262 446 l 2
 286 456 317 448 329 428 c 0
 335 418 336 404 331 395 c 2
 155 42 l 1
 215 44 l 1
 224 66 l 1
 284 91 l 1
 344 66 l 1
 369 6 l 1
EndSplineSet
EndChar

StartChar: m.1
Encoding: 65637 -1 232
Width: 543
VWidth: 0
Flags: W
VStem: 377 99<39 194 441 459.1>
LayerCount: 2
Fore
SplineSet
512 -26 m 1
 487 -86 l 1
 426 -111 l 1
 366 -86 l 1
 341 -26 l 1
 366 35 l 1
 377 39 l 1
 378 194 l 1
 307 37 l 2
 302 26 291 16 277 12 c 0
 251 5 222 16 213 37 c 2
 194 81 l 1
 175 35 l 1
 115 11 l 1
 55 35 l 1
 30 96 l 1
 55 156 l 1
 68 161 l 1
 77 362 l 2
 78 384 102 402 129 401 c 0
 151 400 169 387 174 374 c 2
 261 171 l 1
 382 441 l 2
 391 462 420 472 446 465 c 0
 466 459 479 443 479 428 c 2
 476 39 l 1
 487 35 l 1
 512 -26 l 1
EndSplineSet
EndChar

StartChar: e.1
Encoding: 65638 -1 233
Width: 411
VWidth: 0
Flags: W
HStem: 518 20G<230 326>
VStem: 46 100<49 188 332 402>
LayerCount: 2
Fore
SplineSet
351 264 m 1
 326 204 l 1
 266 179 l 1
 206 204 l 1
 198 222 l 1
 184 222 l 1
 175 200 l 1
 146 188 l 1
 144 49 l 1
 225 55 l 1
 235 80 l 1
 295 105 l 1
 355 80 l 1
 380 20 l 1
 355 -40 l 1
 295 -65 l 1
 235 -40 l 1
 229 -25 l 1
 97 -34 l 2
 66 -36 43 -14 43 6 c 2
 46 223 l 1
 30 260 l 1
 46 299 l 1
 48 439 l 2
 48 460 70 476 93 478 c 2
 207 488 l 1
 218 513 l 1
 278 538 l 1
 338 513 l 1
 363 453 l 1
 338 393 l 1
 278 368 l 1
 218 393 l 1
 212 407 l 1
 148 402 l 1
 147 332 l 1
 175 320 l 1
 183 302 l 1
 197 302 l 1
 206 324 l 1
 266 349 l 1
 326 324 l 1
 351 264 l 1
EndSplineSet
EndChar

StartChar: numbersign.1
Encoding: 65639 -1 234
Width: 550
VWidth: 0
Flags: W
HStem: 527 20G<66 162 424 484>
LayerCount: 2
Fore
SplineSet
518 241 m 1
 494 181 l 1
 433 156 l 1
 373 181 l 1
 365 199 l 1
 356 199 l 1
 313 -25 l 2
 308 -49 278 -61 256 -58 c 2
 210 -52 l 1
 205 -64 l 1
 145 -89 l 1
 85 -64 l 1
 60 -4 l 1
 85 56 l 1
 108 65 l 1
 123 151 l 1
 115 148 l 1
 55 172 l 1
 30 233 l 1
 55 293 l 1
 115 318 l 1
 151 303 l 1
 169 400 l 1
 114 377 l 1
 54 402 l 1
 29 462 l 1
 54 522 l 1
 114 547 l 1
 174 522 l 1
 181 505 l 1
 189 505 l 1
 228 719 l 2
 231 735 255 758 287 753 c 2
 336 745 l 1
 340 754 l 1
 400 779 l 1
 460 754 l 1
 485 694 l 1
 460 634 l 1
 437 624 l 1
 424 556 l 1
 436 561 l 1
 496 536 l 1
 521 476 l 1
 496 416 l 1
 436 391 l 1
 396 408 l 1
 375 302 l 1
 433 326 l 1
 494 301 l 1
 518 241 l 1
254 196 m 1
 233 196 l 1
 206 52 l 1
 217 28 l 1
 222 27 l 1
 254 196 l 1
270 277 m 1
 299 430 l 1
 276 429 l 1
 248 276 l 1
 270 277 l 1
315 511 m 1
 339 637 l 1
 327 665 l 1
 319 666 l 1
 290 510 l 1
 315 511 l 1
EndSplineSet
EndChar

StartChar: L.1
Encoding: 65640 -1 235
Width: 454
VWidth: 0
Flags: W
HStem: 832 20G<67 163>
VStem: 45 102<-7 231.222> 63 101<410.059 702>
LayerCount: 2
Fore
SplineSet
423 19 m 1xc0
 399 -42 l 1
 338 -66 l 1
 285 -45 l 1
 116 -106 l 2
 110 -108 101 -110 94 -110 c 0
 67 -110 44 -91 45 -69 c 2xc0
 63 703 l 1
 55 707 l 1
 30 767 l 1
 55 827 l 1
 115 852 l 1
 175 827 l 1
 200 767 l 1
 175 707 l 1
 164 702 l 1xa0
 147 -7 l 1
 259 34 l 1
 278 79 l 1
 338 104 l 1
 399 79 l 1
 423 19 l 1xc0
EndSplineSet
EndChar

StartChar: germandbls.1
Encoding: 65641 -1 236
Width: 593
VWidth: 0
Flags: W
HStem: 488 20G<435 525>
LayerCount: 2
Fore
SplineSet
562 423 m 1
 537 363 l 1
 477 338 l 1
 417 363 l 1
 402 399 l 1
 391 417 381 424 375 427 c 0
 372 428 364 429 355 426 c 1
 368 395 l 1
 343 335 l 1
 323 327 l 1
 329 321 337 316 347 311 c 0
 348 311 386 331 449 319 c 0
 559 298 571 188 542 116 c 0
 527 79 501 46 466 21 c 0
 452 11 430 8 413 14 c 2
 385 24 l 1
 330 2 l 1
 274 24 l 1
 258 13 236 13 220 19 c 2
 165 41 l 1
 115 20 l 1
 55 45 l 1
 30 105 l 1
 55 165 l 1
 115 190 l 1
 175 165 l 1
 195 118 l 1
 230 104 l 1
 238 114 245 127 248 141 c 0
 258 182 239 216 220 225 c 0
 216 227 118 221 72 283 c 0
 20 353 56 429 121 460 c 0
 156 476 201 479 239 462 c 1
 271 475 l 1
 309 505 365 523 424 496 c 0
 428 494 431 493 435 491 c 1
 477 508 l 1
 537 483 l 1
 562 423 l 1
408 103 m 1
 420 99 l 1
 431 110 440 125 447 141 c 0
 471 200 439 240 426 242 c 1
 426 242 389 221 338 229 c 1
 348 208 351 185 351 163 c 1
 390 147 l 1
 408 103 l 1
221 312 m 1
 213 329 210 347 211 364 c 1
 206 375 l 2
 205 376 205 377 204 378 c 0
 189 401 181 395 172 391 c 0
 153 382 135 354 158 323 c 0
 167 310 181 321 221 312 c 1
EndSplineSet
EndChar

StartChar: uni0237.1
Encoding: 65642 -1 237
Width: 446
VWidth: 0
Flags: W
HStem: 481 20G<282 378>
LayerCount: 2
Fore
SplineSet
415 416 m 1
 390 356 l 1
 375 350 l 1
 349 -13 l 2
 347 -37 318 -55 290 -50 c 2
 179 -32 l 1
 175 -41 l 1
 115 -66 l 1
 55 -41 l 1
 30 19 l 1
 55 79 l 1
 115 104 l 1
 175 79 l 1
 188 48 l 1
 253 38 l 1
 275 354 l 1
 270 356 l 1
 245 416 l 1
 270 476 l 1
 330 501 l 1
 390 476 l 1
 415 416 l 1
EndSplineSet
EndChar

StartChar: caron.1
Encoding: 65643 -1 238
Width: 417
VWidth: 0
Flags: W
LayerCount: 2
Fore
SplineSet
386 689 m 1
 361 628 l 1
 326 614 l 1
 268 457 l 1
 257 424 193 418 175 451 c 2
 109 566 l 1
 57 588 l 1
 32 648 l 1
 57 708 l 1
 117 733 l 1
 177 708 l 1
 202 648 l 1
 189 618 l 1
 210 582 l 1
 233 646 l 1
 216 689 l 1
 241 749 l 1
 301 774 l 1
 361 749 l 1
 386 689 l 1
EndSplineSet
EndChar

StartChar: quotedblleft.1
Encoding: 65644 -1 239
Width: 372
VWidth: 0
Flags: W
HStem: 537 21G<68 125>
VStem: 31 308
LayerCount: 2
Fore
SplineSet
125 541 m 1
 116 537 l 1
 56 562 l 1
 31 622 l 1
 56 683 l 1
 116 707 l 1
 119 706 l 1
 140 758 l 1
 200 782 l 1
 260 758 l 1
 285 697 l 1
 266 652 l 1
 339 424 l 2
 346 403 329 381 303 376 c 0
 282 372 260 379 249 392 c 2
 125 541 l 1
EndSplineSet
EndChar

StartChar: A.1
Encoding: 65645 -1 240
Width: 522
VWidth: 0
Flags: W
LayerCount: 2
Fore
SplineSet
491 273 m 1
 466 213 l 1
 433 199 l 1
 443 137 l 1
 463 129 l 1
 488 69 l 1
 463 9 l 1
 403 -16 l 1
 343 9 l 1
 318 69 l 1
 343 129 l 1
 344 129 l 1
 328 226 l 1
 249 218 l 1
 238 191 l 1
 190 172 l 1
 179 128 l 1
 200 77 l 1
 175 17 l 1
 115 -8 l 1
 55 17 l 1
 30 77 l 1
 55 137 l 1
 82 148 l 1
 103 229 l 1
 93 252 l 1
 118 312 l 1
 124 315 l 1
 242 778 l 2
 247 799 274 813 301 809 c 0
 322 806 338 791 341 775 c 2
 408 357 l 1
 466 334 l 1
 491 273 l 1
244 298 m 1
 315 305 l 1
 280 525 l 1
 227 317 l 1
 238 312 l 1
 244 298 l 1
EndSplineSet
EndChar

StartChar: I.1
Encoding: 65646 -1 241
Width: 264
VWidth: 0
Flags: W
HStem: 765 20G<100 196>
VStem: 98 100<5.6101 635>
LayerCount: 2
Fore
SplineSet
233 700 m 1
 208 640 l 1
 200 637 l 1
 201 580 200 522 198 465 c 0
 195 390 201 313 198 232 c 0
 195 152 187 72 175 -7 c 1
 200 -67 l 1
 175 -127 l 1
 115 -152 l 1
 55 -127 l 1
 30 -67 l 1
 55 -7 l 1
 77 2 l 1
 88 79 95 157 98 235 c 0
 101 310 95 387 98 468 c 0
 100 524 101 579 100 635 c 1
 88 640 l 1
 63 700 l 1
 88 760 l 1
 148 785 l 1
 208 760 l 1
 233 700 l 1
EndSplineSet
EndChar

StartChar: Phi.1
Encoding: 65647 -1 242
Width: 380
VWidth: 0
Flags: W
HStem: 544 20G<178 248>
LayerCount: 2
Fore
SplineSet
243 43 m 1
 218 -17 l 1
 158 -42 l 1
 97 -17 l 1
 73 43 l 1
 97 103 l 1
 104 106 l 1
 100 176 l 1
 37 215 24 292 37 353 c 0
 45 388 61 420 84 448 c 1
 78 564 l 1
 63 570 l 1
 38 630 l 1
 63 690 l 1
 123 715 l 1
 184 690 l 1
 208 630 l 1
 184 570 l 1
 177 567 l 1
 178 555 l 1
 200 564 l 1
 260 539 l 1
 285 479 l 1
 283 475 l 1
 321 440 344 392 348 343 c 0
 355 259 304 164 202 153 c 1
 204 109 l 1
 218 103 l 1
 243 43 l 1
224 404 m 1
 200 394 l 1
 187 399 l 1
 197 235 l 1
 220 245 253 280 248 338 c 0
 246 363 237 386 224 404 c 1
EndSplineSet
EndChar

StartChar: asterisk.1
Encoding: 65648 -1 243
Width: 452
VWidth: 0
Flags: W
HStem: 817 20G<189.2 286>
VStem: 58 99<189.216 241.553>
LayerCount: 2
Fore
SplineSet
245 471 m 1
 251 461 l 1
 248 475 l 1
 245 471 l 1
174 700 m 1
 153 752 l 1
 177 812 l 1
 238 837 l 1
 298 812 l 1
 323 752 l 1
 300 698 l 1
 305 676 l 1
 377 669 l 2
 392 668 406 661 414 650 c 0
 428 631 420 606 397 595 c 0
 375 584 353 571 332 556 c 1
 415 179 l 2
 419 162 408 143 387 135 c 0
 362 126 332 135 320 155 c 2
 195 368 l 1
 157 213 l 2
 152 192 126 178 99 182 c 0
 75 186 58 204 58 222 c 0
 58 232 59 242 60 252 c 0
 65 313 81 371 107 426 c 1
 123 491 l 1
 36 640 l 2
 16 673 53 701 87 697 c 2
 171 689 l 1
 174 700 l 1
EndSplineSet
EndChar

StartChar: q.1
Encoding: 65649 -1 244
Width: 507
VWidth: 0
Flags: W
HStem: 459 20G<210 306>
LayerCount: 2
Fore
SplineSet
476 -48 m 1
 451 -108 l 1
 391 -133 l 1
 332 -108 l 1
 300 -118 l 2
 278 -125 246 -116 236 -95 c 2
 226 -73 l 1
 114 -64 47 31 34 124 c 0
 27 171 33 223 53 273 c 0
 76 329 118 385 181 414 c 1
 198 454 l 1
 258 479 l 1
 318 454 l 1
 343 394 l 1
 340 387 l 1
 397 337 434 269 445 196 c 0
 453 140 445 77 417 26 c 1
 451 12 l 1
 476 -48 l 1
287 22 m 1
 288 21 l 1
 327 47 358 107 346 186 c 0
 338 237 315 284 281 319 c 1
 258 309 l 1
 208 330 l 1
 184 312 162 283 148 248 c 0
 132 209 128 168 133 132 c 0
 135 116 139 101 144 88 c 1
 156 117 l 1
 217 142 l 1
 277 117 l 1
 302 57 l 1
 287 22 l 1
EndSplineSet
EndChar

StartChar: j.1
Encoding: 65650 -1 245
Width: 373
VWidth: 0
Flags: W
HStem: 513 20G<209 305.8>
VStem: 208 100<50.5 383> 216 101<3 288.222>
LayerCount: 2
Fore
SplineSet
342 448 m 1xc0
 318 388 l 1
 308 384 l 1xc0
 317 -47 l 2
 317 -69 295 -87 268 -87 c 0
 262 -87 256 -86 256 -86 c 1
 178 -72 l 1
 175 -80 l 1
 115 -105 l 1
 55 -80 l 1
 30 -20 l 1
 55 40 l 1
 115 65 l 1
 175 40 l 1
 188 8 l 1
 216 3 l 1xa0
 208 383 l 1
 197 388 l 1
 172 448 l 1
 197 508 l 1
 257 533 l 1
 318 508 l 1
 342 448 l 1xc0
EndSplineSet
EndChar

StartChar: v.1
Encoding: 65651 -1 246
Width: 493
VWidth: 0
Flags: W
HStem: 560 20G<329 425>
LayerCount: 2
Fore
SplineSet
462 495 m 1
 437 435 l 1
 405 421 l 1
 290 66 l 2
 278 31 215 24 196 59 c 2
 105 223 l 1
 55 244 l 1
 30 304 l 1
 55 364 l 1
 115 389 l 1
 175 364 l 1
 200 304 l 1
 187 273 l 1
 229 197 l 1
 311 449 l 1
 292 495 l 1
 317 555 l 1
 377 580 l 1
 437 555 l 1
 462 495 l 1
EndSplineSet
EndChar

StartChar: X.1
Encoding: 65652 -1 247
Width: 516
VWidth: 0
Flags: W
HStem: 770 20G<67 163>
LayerCount: 2
Fore
SplineSet
416 666 m 1
 391 606 l 1
 358 592 l 1
 292 395 l 1
 421 74 l 1
 460 58 l 1
 485 -2 l 1
 460 -62 l 1
 400 -87 l 1
 340 -62 l 1
 315 -2 l 1
 331 37 l 1
 245 252 l 1
 186 74 l 1
 204 30 l 1
 179 -30 l 1
 119 -55 l 1
 59 -30 l 1
 34 30 l 1
 59 90 l 1
 92 104 l 1
 188 392 l 1
 92 629 l 1
 55 644 l 1
 30 705 l 1
 55 765 l 1
 115 790 l 1
 175 765 l 1
 200 705 l 1
 184 665 l 1
 236 536 l 1
 265 622 l 1
 246 666 l 1
 271 726 l 1
 331 751 l 1
 391 726 l 1
 416 666 l 1
EndSplineSet
EndChar

StartChar: dollar.1
Encoding: 65653 -1 248
Width: 460
VWidth: 0
Flags: W
HStem: 843 20G<177 273>
VStem: 168 100<91 135 260 274 516 635> 329 99<539.562 629.047>
LayerCount: 2
Fore
SplineSet
412 454 m 1
 387 393 l 1
 327 369 l 1
 274 390 l 1
 325 350 383 301 405 227 c 0
 413 200 415 172 412 146 c 0
 402 59 330 -31 211 -23 c 0
 109 -16 49 64 51 145 c 1
 29 198 l 1
 54 258 l 1
 114 283 l 1
 168 260 l 1
 169 359 l 1
 122 397 74 443 55 510 c 0
 31 596 68 695 159 733 c 1
 140 778 l 1
 165 838 l 1
 225 863 l 1
 285 838 l 1
 310 778 l 1
 294 740 l 1
 375 716 422 645 428 580 c 0
 431 545 425 507 404 473 c 1
 412 454 l 1
268 274 m 1
 266 70 l 1
 288 85 307 113 312 153 c 0
 314 171 312 189 307 208 c 0
 300 232 286 254 268 274 c 1
166 91 m 1
 167 135 l 1
 151 129 l 1
 153 115 159 102 166 91 c 1
171 488 m 1
 173 635 l 1
 153 609 141 571 153 527 c 0
 157 513 163 500 171 488 c 1
273 659 m 1
 272 516 l 1
 327 539 l 1
 330 551 330 562 329 574 c 0
 325 614 302 645 273 659 c 1
EndSplineSet
EndChar

StartChar: n.1
Encoding: 65654 -1 249
Width: 438
VWidth: 0
Flags: W
HStem: 506 20G<274 370.8>
VStem: 67 100<99 251> 281 94<248 376>
LayerCount: 2
Fore
SplineSet
407 441 m 1
 383 381 l 1
 375 378 l 1
 391 15 l 2
 392 -1 379 -18 359 -24 c 0
 334 -32 305 -21 295 -1 c 2
 172 251 l 1
 167 97 l 1
 175 94 l 1
 200 34 l 1
 175 -27 l 1
 115 -51 l 1
 55 -27 l 1
 30 34 l 1
 55 94 l 1
 67 99 l 1
 79 452 l 2
 80 474 103 492 130 491 c 0
 150 491 168 481 175 466 c 2
 281 248 l 1
 275 376 l 1
 262 381 l 1
 237 441 l 1
 262 501 l 1
 322 526 l 1
 383 501 l 1
 407 441 l 1
EndSplineSet
EndChar

StartChar: K.1
Encoding: 65655 -1 250
Width: 544
VWidth: 0
Flags: W
HStem: 592 21G<415 466>
LayerCount: 2
Fore
SplineSet
513 -7 m 1
 488 -67 l 1
 428 -92 l 1
 368 -67 l 1
 343 -7 l 1
 344 -4 l 1
 310 23 284 57 267 96 c 0
 244 147 226 201 212 255 c 1
 203 234 l 1
 200 233 l 1
 175 64 l 1
 200 4 l 1
 175 -56 l 1
 115 -81 l 1
 55 -56 l 1
 30 4 l 1
 55 64 l 1
 75 72 l 1
 98 228 l 1
 83 234 l 1
 58 294 l 1
 83 354 l 1
 120 369 l 1
 156 610 l 1
 155 610 l 1
 130 670 l 1
 155 730 l 1
 215 755 l 1
 275 730 l 1
 300 670 l 1
 275 610 l 1
 255 602 l 1
 242 512 l 1
 343 653 l 1
 333 677 l 1
 358 737 l 1
 418 762 l 1
 478 737 l 1
 503 677 l 1
 478 617 l 1
 418 592 l 1
 415 593 l 1
 286 412 l 1
 295 312 320 214 361 123 c 0
 371 101 384 82 400 66 c 1
 428 78 l 1
 488 53 l 1
 513 -7 l 1
EndSplineSet
EndChar

StartChar: Pi.1
Encoding: 65656 -1 251
Width: 510
VWidth: 0
Flags: W
VStem: 67 100<71 668> 74 100<71 668> 345 100<60 478.6> 355 100<249.8 658>
LayerCount: 2
Fore
SplineSet
479 -5 m 1x20
 454 -65 l 1
 394 -90 l 1
 333 -65 l 1
 309 -5 l 1
 333 55 l 1
 345 60 l 1x20
 355 658 l 1
 174 668 l 1x50
 167 71 l 1
 176 67 l 1
 201 7 l 1
 176 -53 l 1
 116 -78 l 1
 56 -53 l 1
 31 7 l 1
 56 67 l 1
 67 71 l 1x80
 74 711 l 2
 74 734 101 751 128 750 c 2
 408 735 l 2
 435 734 455 714 455 695 c 2x50
 445 59 l 1
 454 55 l 1
 479 -5 l 1x20
EndSplineSet
EndChar

StartChar: four.1
Encoding: 65657 -1 252
Width: 366
VWidth: 0
Flags: W
VStem: 30 307
LayerCount: 2
Fore
SplineSet
337 6 m 1
 312 -54 l 1
 252 -79 l 1
 192 -54 l 1
 167 6 l 1
 192 67 l 1
 197 69 l 1
 190 167 l 1
 161 179 l 1
 102 154 l 2
 78 144 48 152 35 171 c 0
 30 179 28 190 30 197 c 2
 153 689 l 2
 158 710 185 724 212 720 c 0
 235 716 251 700 252 683 c 2
 283 269 l 1
 293 244 l 1
 286 227 l 1
 297 73 l 1
 312 67 l 1
 337 6 l 1
160 309 m 1
 179 317 l 1
 175 369 l 1
 160 309 l 1
EndSplineSet
EndChar

StartChar: backslash.1
Encoding: 65658 -1 253
Width: 490
VWidth: 0
Flags: W
LayerCount: 2
Fore
SplineSet
461 -51 m 1
 437 -112 l 1
 376 -136 l 1
 316 -112 l 1
 291 -51 l 1
 311 -4 l 1
 84 736 l 1
 54 749 l 1
 29 809 l 1
 54 869 l 1
 114 894 l 1
 174 869 l 1
 199 809 l 1
 180 763 l 1
 406 22 l 1
 437 9 l 1
 461 -51 l 1
EndSplineSet
EndChar

StartChar: Q.1
Encoding: 65659 -1 254
Width: 507
VWidth: 0
Flags: W
HStem: 577 21G<228 246>
LayerCount: 2
Fore
SplineSet
447 -128 m 1
 422 -188 l 1
 362 -213 l 1
 335 -202 l 1
 308 -221 l 1
 280 -238 235 -230 226 -199 c 2
 173 4 l 1
 39 50 20 207 36 325 c 0
 51 437 87 549 158 642 c 1
 150 662 l 1
 175 722 l 1
 235 747 l 1
 295 722 l 1
 320 662 l 1
 313 645 l 1
 364 585 406 518 437 446 c 0
 517 260 468 46 302 -0 c 0
 294 -2 285 -4 277 -5 c 1
 297 -80 l 1
 302 -68 l 1
 362 -43 l 1
 422 -68 l 1
 447 -128 l 1
258 73 m 1
 262 73 265 74 269 75 c 0
 342 95 417 247 342 420 c 0
 317 478 285 532 246 581 c 1
 235 577 l 1
 228 580 l 1
 177 504 148 412 135 316 c 0
 128 267 131 223 140 185 c 1
 193 207 l 1
 253 182 l 1
 278 122 l 1
 258 73 l 1
EndSplineSet
EndChar

StartChar: s.1
Encoding: 65660 -1 255
Width: 433
VWidth: 0
Flags: W
HStem: 434 20G<268.818 365>
VStem: 288 100<78.3713 179.765>
LayerCount: 2
Fore
SplineSet
402 369 m 1
 377 309 l 1
 317 284 l 1
 256 309 l 1
 238 354 l 1
 200 368 l 2
 196 370 191 372 188 374 c 0
 175 383 172 381 164 376 c 0
 145 365 130 331 154 305 c 0
 162 297 174 299 228 290 c 0
 314 276 385 214 388 133 c 0
 388 121 388 109 385 97 c 0
 370 30 298 -31 205 -17 c 0
 196 -16 186 -12 181 -8 c 2
 142 20 l 1
 115 9 l 1
 55 34 l 1
 30 94 l 1
 55 154 l 1
 115 179 l 1
 175 154 l 1
 200 94 l 1
 198 88 l 1
 235 61 l 1
 256 63 289 87 288 131 c 0
 287 175 249 205 208 212 c 0
 188 215 118 210 74 257 c 0
 15 321 42 404 105 441 c 0
 144 464 201 467 248 438 c 1
 264 432 l 1
 317 454 l 1
 377 429 l 1
 402 369 l 1
EndSplineSet
EndChar

StartChar: h.1
Encoding: 65661 -1 256
Width: 504
VWidth: 0
Flags: W
HStem: 217 81<223 331> 496 20G<82.2 179 340 436>
VStem: 67 100<67 172> 74 97<67 172> 79 98<324 365> 331 100<61 217 298 356>
LayerCount: 2
Fore
SplineSet
473 422 m 1xcc
 448 362 l 1
 434 356 l 1
 432 325 431 294 431 263 c 0
 431 261 431 259 431 257 c 0
 431 191 432 126 434 61 c 1
 446 56 l 1
 471 -4 l 1
 446 -64 l 1
 386 -89 l 1
 326 -64 l 1
 301 -4 l 1
 326 56 l 1
 334 59 l 1
 333 112 331 164 331 217 c 1
 223 212 l 1
 213 189 l 1
 171 172 l 1xd4
 167 65 l 1
 175 62 l 1
 200 2 l 1
 175 -58 l 1
 115 -83 l 1
 55 -58 l 1
 30 2 l 1
 55 62 l 1
 67 67 l 1xe4
 74 235 l 1xd4
 68 249 l 1
 75 265 l 1
 79 367 l 1
 70 370 l 1
 46 431 l 1
 70 491 l 1
 131 516 l 1
 191 491 l 1
 216 431 l 1
 191 370 l 1
 179 365 l 1
 177 324 l 1
 213 309 l 1
 220 292 l 1
 331 298 l 1
 331 319 333 339 334 360 c 1
 328 362 l 1
 303 422 l 1
 328 482 l 1
 388 507 l 1
 448 482 l 1
 473 422 l 1xcc
EndSplineSet
EndChar

StartChar: a.1
Encoding: 65662 -1 257
Width: 458
VWidth: 0
Flags: W
LayerCount: 2
Fore
SplineSet
398 252 m 1
 373 192 l 1
 359 186 l 1
 376 118 l 1
 402 107 l 1
 427 47 l 1
 402 -13 l 1
 342 -38 l 1
 282 -13 l 1
 257 47 l 1
 278 98 l 1
 267 145 l 1
 222 102 l 1
 228 87 l 1
 203 27 l 1
 185 20 l 1
 200 -16 l 1
 175 -76 l 1
 115 -101 l 1
 55 -76 l 1
 30 -16 l 1
 55 44 l 1
 73 51 l 1
 58 87 l 1
 83 148 l 1
 110 159 l 1
 191 470 l 2
 203 511 278 511 289 470 c 2
 323 333 l 1
 373 313 l 1
 398 252 l 1
234 239 m 1
 233 241 l 1
 232 237 l 1
 234 239 l 1
EndSplineSet
EndChar

StartChar: question.1
Encoding: 65663 -1 258
Width: 387
VWidth: 0
Flags: W
HStem: 478 21G<67 163>
VStem: 224 100<277 517.761>
LayerCount: 2
Fore
SplineSet
323 13 m 1
 298 -48 l 1
 238 -72 l 1
 177 -48 l 1
 153 13 l 1
 177 73 l 1
 238 98 l 1
 298 73 l 1
 323 13 l 1
357 212 m 1
 332 151 l 1
 272 127 l 1
 212 151 l 1
 187 212 l 1
 212 272 l 1
 224 277 l 1
 228 368 240 458 248 547 c 0
 254 612 243 659 220 672 c 0
 200 683 182 680 164 659 c 0
 158 652 153 643 151 633 c 1
 175 623 l 1
 200 563 l 1
 175 503 l 1
 115 478 l 1
 55 503 l 1
 30 563 l 1
 49 608 l 1
 47 644 59 677 82 704 c 0
 121 750 202 779 277 738 c 0
 360 692 354 601 348 540 c 0
 339 451 328 363 324 276 c 1
 332 272 l 1
 357 212 l 1
EndSplineSet
EndChar

StartChar: C.1
Encoding: 65664 -1 259
Width: 473
VWidth: 0
Flags: W
HStem: 481 21G<284 380.8>
LayerCount: 2
Fore
SplineSet
442 140 m 1
 418 80 l 1
 408 76 l 1
 397 24 357 -22 293 -38 c 0
 174 -68 100 8 68 89 c 0
 33 176 26 292 36 408 c 0
 47 539 90 733 250 724 c 0
 267 723 284 719 300 713 c 0
 343 697 371 666 382 631 c 1
 393 626 l 1
 417 566 l 1
 393 506 l 1
 332 481 l 1
 272 506 l 1
 247 566 l 1
 272 626 l 1
 275 627 l 1
 267 637 255 644 243 644 c 0
 213 646 150 559 136 403 c 0
 127 294 135 184 163 113 c 0
 192 41 223 28 262 38 c 0
 278 42 296 57 305 77 c 1
 297 80 l 1
 272 140 l 1
 297 200 l 1
 357 225 l 1
 418 200 l 1
 442 140 l 1
EndSplineSet
EndChar

StartChar: hyphen.1
Encoding: 65665 -1 260
Width: 364
VWidth: 0
Flags: W
HStem: 190 265
VStem: 33 298
LayerCount: 2
Fore
SplineSet
331 370 m 1
 306 310 l 1
 246 285 l 1
 219 296 l 1
 200 282 l 1
 203 275 l 1
 178 215 l 1
 118 190 l 1
 58 215 l 1
 33 275 l 1
 58 335 l 1
 118 360 l 1
 144 349 l 1
 163 364 l 1
 161 370 l 1
 186 430 l 1
 246 455 l 1
 306 430 l 1
 331 370 l 1
EndSplineSet
EndChar

StartChar: ampersand.1
Encoding: 65666 -1 261
Width: 493
VWidth: 0
Flags: W
HStem: 500 20G<330.2 427> 586 21G<349 401>
LayerCount: 2
Fore
SplineSet
423 4 m 1
 399 -56 l 1
 338 -81 l 1
 278 -56 l 1
 253 4 l 1
 275 57 l 1
 261 117 l 1
 178 -37 l 2
 171 -50 154 -60 135 -61 c 0
 108 -62 84 -45 82 -23 c 2
 30 700 l 1
 30 708 l 1
 34 730 60 745 87 742 c 2
 288 719 l 1
 293 731 l 1
 353 756 l 1
 413 731 l 1
 438 671 l 1
 413 611 l 1
 353 586 l 1
 349 588 l 1
 157 330 l 1
 170 150 l 1
 307 403 l 1
 294 435 l 1
 318 495 l 1
 379 520 l 1
 439 495 l 1
 464 435 l 1
 439 375 l 1
 389 354 l 1
 332 248 l 1
 373 75 l 1
 399 64 l 1
 423 4 l 1
146 473 m 1
 271 640 l 1
 133 656 l 1
 146 473 l 1
EndSplineSet
EndChar

StartChar: P.2
Encoding: 65667 -1 262
Width: 542
VWidth: 0
Flags: W
HStem: 855 20G<157.5 176.5>
VStem: 101 100<99 196> 108 102<448 636.25> 120 98<556.75 755>
LayerCount: 2
Fore
SplineSet
210 448 m 1xa0
 392 649 l 1
 218 755 l 1x90
 210 448 l 1xa0
234 34 m 1
 209 -26 l 1
 149 -51 l 1
 89 -26 l 1
 64 34 l 1
 89 94 l 1
 101 99 l 1xc0
 103 196 l 1
 55 216 l 1
 30 276 l 1
 55 337 l 1
 108 358 l 1xa0
 120 835 l 2x90
 121 857 144 875 171 875 c 0
 182 875 197 869 200 867 c 2
 492 689 l 2
 513 676 518 650 502 633 c 2
 206 309 l 1
 201 97 l 1xc0
 209 94 l 1
 234 34 l 1
EndSplineSet
EndChar

StartChar: semicolon.2
Encoding: 65668 -1 263
Width: 274
VWidth: 0
Flags: W
VStem: 35 204
LayerCount: 2
Fore
SplineSet
205 265 m 1
 180 205 l 1
 120 180 l 1
 60 205 l 1
 35 265 l 1
 60 325 l 1
 120 350 l 1
 180 325 l 1
 205 265 l 1
206 -215 m 1
 181 -275 l 1
 121 -300 l 1
 61 -275 l 1
 36 -215 l 1
 61 -155 l 1
 87 -144 l 1
 102 -78 l 1
 94 -74 l 1
 69 -14 l 1
 94 47 l 1
 154 71 l 1
 214 47 l 1
 239 -14 l 1
 214 -74 l 1
 204 -78 l 1
 184 -162 l 1
 206 -215 l 1
EndSplineSet
EndChar

StartChar: comma.2
Encoding: 65669 -1 264
Width: 257
VWidth: 0
Flags: W
VStem: 37 182
LayerCount: 2
Fore
SplineSet
207 -210 m 1
 182 -270 l 1
 122 -295 l 1
 62 -270 l 1
 37 -210 l 1
 62 -150 l 1
 95 -136 l 1
 113 -81 l 1
 66 -62 l 1
 41 -1 l 1
 66 59 l 1
 126 84 l 1
 186 59 l 1
 211 -1 l 1
 201 -26 l 1
 214 -45 l 2
 221 -54 222 -67 219 -75 c 2
 189 -166 l 1
 207 -210 l 1
EndSplineSet
EndChar

StartChar: nine.2
Encoding: 65670 -1 265
Width: 355
VWidth: 0
Flags: W
HStem: 656 80<165.984 208.681>
VStem: 29 294
LayerCount: 2
Fore
SplineSet
178 386 m 1
 209 486 l 2
 217 510 221 534 223 557 c 0
 228 634 199 656 188 656 c 2
 183 656 l 1
 170 654 130 594 154 490 c 2
 178 386 l 1
199 -32 m 1
 174 -92 l 1
 114 -117 l 1
 54 -92 l 1
 29 -32 l 1
 54 28 l 1
 82 40 l 1
 119 180 l 1
 99 188 l 1
 74 248 l 1
 96 301 l 1
 56 475 l 2
 32 577 40 736 193 736 c 1
 309 731 328 625 323 552 c 0
 321 524 315 495 306 466 c 2
 250 283 l 1
 242 254 l 1
 244 248 l 1
 231 217 l 1
 178 19 l 1
 199 -32 l 1
EndSplineSet
EndChar

StartChar: dotlessi.2
Encoding: 65671 -1 266
Width: 242
VWidth: 0
Flags: W
HStem: 485 20G<67 163>
VStem: 65 100<95 356>
LayerCount: 2
Fore
SplineSet
200 420 m 1
 175 360 l 1
 164 356 l 1
 164 331 164 306 165 281 c 0
 166 215 164 154 168 95 c 1
 186 88 l 1
 211 27 l 1
 186 -33 l 1
 126 -58 l 1
 66 -33 l 1
 41 27 l 1
 66 88 l 1
 68 89 l 1
 67 106 65 122 65 139 c 0
 64 187 66 234 65 279 c 0
 64 305 64 330 64 356 c 1
 55 360 l 1
 30 420 l 1
 55 480 l 1
 115 505 l 1
 175 480 l 1
 200 420 l 1
EndSplineSet
EndChar

StartChar: breve.2
Encoding: 65672 -1 267
Width: 441
VWidth: 0
Flags: W
HStem: 770 66G<67 167 266 362>
LayerCount: 2
Fore
SplineSet
202 751 m 1
 177 691 l 1
 174 690 l 1
 190 643 229 607 272 597 c 0
 281 595 286 595 294 605 c 0
 299 611 302 617 304 624 c 1
 254 645 l 1
 229 705 l 1
 254 765 l 1
 314 790 l 1
 374 765 l 1
 399 705 l 1
 393 690 l 1
 417 647 405 594 376 560 c 0
 350 530 300 508 244 521 c 0
 154 543 92 608 73 684 c 1
 57 691 l 1
 32 751 l 1
 57 812 l 1
 117 836 l 1
 177 812 l 1
 202 751 l 1
EndSplineSet
EndChar

StartChar: G.2
Encoding: 65673 -1 268
Width: 465
VWidth: 0
Flags: W
HStem: -42 80<212.8 280> 470 21G<299 399> 678 80<206.766 292.196>
VStem: 33 100<285 556.576> 297 100<65 241>
LayerCount: 2
Fore
SplineSet
434 0 m 1
 409 -60 l 1
 349 -85 l 1
 289 -60 l 1
 281 -42 l 1
 266 -42 l 2
 60 -47 39 183 33 335 c 0
 33 343 32 350 32 358 c 0
 27 524 58 755 241 758 c 1
 348 758 411 685 412 608 c 1
 434 555 l 1
 409 494 l 1
 349 470 l 1
 289 494 l 1
 264 555 l 1
 289 615 l 1
 310 624 l 1
 303 655 275 678 243 678 c 0
 190 677 127 551 132 360 c 0
 132 353 133 344 133 337 c 0
 134 319 135 302 136 285 c 1
 158 340 l 1
 219 365 l 1
 279 340 l 1
 287 321 l 1
 340 322 l 2
 370 323 392 301 392 283 c 2
 397 65 l 1
 409 60 l 1
 434 0 l 1
297 64 m 1
 293 241 l 1
 288 241 l 1
 279 220 l 1
 219 195 l 1
 158 220 l 1
 137 272 l 1
 151 128 194 36 263 38 c 2
 280 38 l 1
 289 60 l 1
 297 64 l 1
EndSplineSet
EndChar

StartChar: percent.2
Encoding: 65674 -1 269
Width: 592
VWidth: 0
Flags: W
HStem: -114 79<413.054 447.812> 820 20G<110 206>
LayerCount: 2
Fore
SplineSet
238 -61 m 1
 214 -121 l 1
 153 -146 l 1
 93 -121 l 1
 68 -61 l 1
 93 -1 l 1
 125 12 l 1
 227 330 l 1
 215 324 201 319 184 316 c 0
 95 301 50 368 37 419 c 0
 27 459 28 505 40 551 c 0
 54 606 71 662 90 715 c 1
 73 755 l 1
 98 815 l 1
 158 840 l 1
 218 815 l 1
 243 755 l 1
 238 743 l 1
 279 721 333 723 370 776 c 0
 376 785 386 791 397 794 c 0
 406 797 416 798 426 796 c 0
 437 794 447 788 454 781 c 0
 465 769 468 753 460 740 c 1
 220 -15 l 1
 238 -61 l 1
445 150 m 1
 439 137 l 1
 424 107 413 75 409 47 c 0
 399 -20 424 -34 430 -35 c 1
 433 -35 l 1
 439 -34 479 21 453 121 c 1
 445 150 l 1
157 601 m 1
 143 557 121 487 135 435 c 0
 146 390 164 394 164 394 c 1
 170 395 197 430 180 506 c 0
 173 538 166 570 157 601 c 1
330 655 m 1
 302 649 272 648 243 654 c 1
 256 610 269 565 279 520 c 0
 280 515 281 509 282 504 c 1
 330 655 l 1
395 286 m 1
 374 336 l 1
 399 396 l 1
 459 421 l 1
 519 396 l 1
 544 336 l 1
 519 277 l 1
 528 229 539 183 551 137 c 0
 574 47 576 -93 454 -113 c 0
 442 -115 430 -115 418 -114 c 0
 311 -104 300 -8 310 57 c 0
 315 93 329 130 347 167 c 0
 366 204 382 244 395 286 c 1
EndSplineSet
EndChar

StartChar: B.2
Encoding: 65675 -1 270
Width: 442
VWidth: 0
Flags: W
VStem: 66 101<472 592> 75 100<121 344 472 572.444>
LayerCount: 2
Fore
SplineSet
46 389 m 0x40
 44 405 53 419 69 427 c 1
 66 614 l 1x80
 55 619 l 1
 30 679 l 1
 55 740 l 1
 115 764 l 1
 175 740 l 1x40
 200 679 l 1
 198 675 l 1
 394 543 l 2
 418 527 417 491 386 477 c 2
 233 409 l 1
 323 368 385 283 394 187 c 0
 399 131 378 81 340 45 c 0
 301 8 241 -13 181 -6 c 1
 126 -29 l 1
 66 -4 l 1
 41 56 l 1
 66 116 l 1x80
 75 120 l 1
 71 359 l 1
 63 362 56 368 52 374 c 0
 51 376 l 2
 48 380 47 384 46 389 c 0x40
171 344 m 1
 175 121 l 1x40
 186 116 l 1
 205 70 l 1
 225 70 245 80 263 96 c 0
 283 115 297 144 294 181 c 0
 287 263 234 322 171 344 c 1
167 592 m 1x80
 169 472 l 1
 274 519 l 1
 167 592 l 1x80
EndSplineSet
EndChar

StartChar: quotedbl.2
Encoding: 65676 -1 271
Width: 408
VWidth: 0
Flags: W
VStem: 71 100<476 599>
LayerCount: 2
Fore
SplineSet
377 433 m 1
 353 373 l 1
 292 348 l 1
 232 373 l 1
 207 433 l 1
 228 484 l 1
 202 579 l 1
 174 591 l 1
 170 601 l 1
 168 601 l 1
 171 476 l 1
 183 471 l 1
 208 411 l 1
 183 351 l 1
 123 326 l 1
 63 351 l 1
 38 411 l 1
 63 471 l 1
 71 474 l 1
 68 599 l 1
 56 604 l 1
 31 664 l 1
 56 724 l 1
 116 749 l 1
 176 724 l 1
 180 714 l 1
 234 736 l 1
 294 711 l 1
 319 651 l 1
 298 601 l 1
 324 505 l 1
 353 493 l 1
 377 433 l 1
EndSplineSet
EndChar

StartChar: questiondown.2
Encoding: 65677 -1 272
Width: 365
VWidth: 0
Flags: W
HStem: 493 20G<140 240> 514 21G<75 171>
LayerCount: 2
Fore
SplineSet
208 599 m 1
 183 539 l 1
 123 514 l 1
 63 539 l 1
 38 599 l 1
 63 659 l 1
 123 684 l 1
 183 659 l 1
 208 599 l 1
275 428 m 1
 250 368 l 1
 245 366 l 1
 259 279 297 191 323 96 c 0
 340 34 354 -60 271 -109 c 0
 200 -151 120 -127 80 -84 c 0
 52 -54 38 -13 45 28 c 1
 29 66 l 1
 54 126 l 1
 114 151 l 1
 174 126 l 1
 199 66 l 1
 174 5 l 1
 145 -7 l 1
 147 -18 153 -28 160 -36 c 0
 177 -54 191 -57 211 -45 c 0
 232 -32 242 16 225 79 c 0
 201 169 159 261 145 362 c 1
 130 368 l 1
 105 428 l 1
 130 489 l 1
 190 513 l 1
 250 489 l 1
 275 428 l 1
EndSplineSet
EndChar

StartChar: slash.2
Encoding: 65678 -1 273
Width: 411
VWidth: 0
Flags: W
HStem: 854 20G<249 345>
LayerCount: 2
Fore
SplineSet
382 789 m 1
 357 729 l 1
 332 719 l 1
 176 10 l 1
 199 -44 l 1
 174 -104 l 1
 114 -129 l 1
 54 -104 l 1
 29 -44 l 1
 54 16 l 1
 79 26 l 1
 235 735 l 1
 212 789 l 1
 237 849 l 1
 297 874 l 1
 357 849 l 1
 382 789 l 1
EndSplineSet
EndChar

StartChar: bracketright.2
Encoding: 65679 -1 274
Width: 279
VWidth: 0
Flags: W
HStem: 774 20G<67 163>
VStem: 137 99<77 448.636> 146 101<259.364 637>
LayerCount: 2
Fore
SplineSet
137 77 m 1xc0
 146 637 l 1
 115 624 l 1
 55 649 l 1
 30 709 l 1
 55 769 l 1
 115 794 l 1
 175 769 l 1
 186 743 l 1
 202 741 l 2
 228 739 247 720 247 701 c 2xa0
 236 7 l 2
 236 -14 214 -30 192 -32 c 2
 186 -33 l 1
 175 -59 l 1
 115 -84 l 1
 55 -59 l 1
 30 1 l 1
 55 61 l 1
 115 86 l 1
 137 77 l 1xc0
EndSplineSet
EndChar

StartChar: underscore.2
Encoding: 65680 -1 275
Width: 545
VWidth: 0
Flags: W
HStem: -248 223
LayerCount: 2
Fore
SplineSet
508 -163 m 1
 483 -223 l 1
 423 -248 l 1
 363 -223 l 1
 350 -191 l 1
 185 -162 l 1
 182 -170 l 1
 122 -195 l 1
 62 -170 l 1
 37 -110 l 1
 62 -50 l 1
 122 -25 l 1
 182 -50 l 1
 195 -82 l 1
 360 -111 l 1
 363 -103 l 1
 423 -78 l 1
 483 -103 l 1
 508 -163 l 1
EndSplineSet
EndChar

StartChar: N.2
Encoding: 65681 -1 276
Width: 430
VWidth: 0
Flags: W
HStem: 802 20G<225 325>
VStem: 50 98<696.836 743.733>
LayerCount: 2
Fore
SplineSet
360 737 m 1
 335 677 l 1
 331 675 l 1
 399 -114 l 2
 401 -133 385 -151 361 -156 c 0
 335 -161 307 -147 301 -126 c 2
 157 349 l 1
 164 53 l 1
 175 48 l 1
 200 -12 l 1
 175 -73 l 1
 115 -97 l 1
 55 -73 l 1
 30 -12 l 1
 55 48 l 1
 64 52 l 1
 50 710 l 2
 50 732 72 751 99 751 c 0
 124 751 144 735 148 720 c 2
 258 356 l 1
 231 670 l 1
 215 677 l 1
 190 737 l 1
 215 798 l 1
 275 822 l 1
 335 798 l 1
 360 737 l 1
EndSplineSet
EndChar

StartChar: parenleft.2
Encoding: 65682 -1 277
Width: 336
VWidth: 0
Flags: W
HStem: 778 20G<164 260>
VStem: 30 100<214.683 505.275>
LayerCount: 2
Fore
SplineSet
307 -7 m 1
 282 -68 l 1
 222 -92 l 1
 162 -68 l 1
 137 -7 l 1
 145 13 l 1
 70 113 30 234 30 358 c 0
 30 477 67 593 136 691 c 1
 127 713 l 1
 152 773 l 1
 212 798 l 1
 272 773 l 1
 297 713 l 1
 272 652 l 1
 212 628 l 1
 208 630 l 1
 157 550 130 455 130 358 c 0
 130 257 161 158 216 75 c 1
 222 78 l 1
 282 53 l 1
 307 -7 l 1
EndSplineSet
EndChar

StartChar: i.2
Encoding: 65683 -1 278
Width: 276
VWidth: 0
Flags: W
HStem: 485 20G<112 208>
VStem: 110 100<23.9148 355>
LayerCount: 2
Fore
SplineSet
245 420 m 1
 220 360 l 1
 214 357 l 1
 214 330 213 304 210 277 c 0
 206 236 215 190 210 137 c 0
 205 87 196 38 182 -10 c 1
 200 -54 l 1
 175 -114 l 1
 115 -139 l 1
 55 -114 l 1
 30 -54 l 1
 55 6 l 1
 87 19 l 1
 98 59 106 101 110 143 c 0
 114 184 105 230 110 283 c 0
 112 307 113 331 113 355 c 1
 100 360 l 1
 75 420 l 1
 100 480 l 1
 160 505 l 1
 220 480 l 1
 245 420 l 1
EndSplineSet
EndChar

StartChar: Omega.2
Encoding: 65684 -1 279
Width: 489
VWidth: 0
Flags: W
VStem: 56 100<400.997 734.065> 266 100<40 174.534>
LayerCount: 2
Fore
SplineSet
266 -88 m 1
 266 104 268 300 324 490 c 0
 377 669 356 807 284 821 c 0
 282 821 280 822 278 822 c 0
 237 827 183 786 163 682 c 0
 158 657 156 631 156 604 c 0
 159 376 246 152 266 -88 c 1
269 -126 m 1
 270 -144 270 -161 270 -179 c 0
 270 -195 257 -211 238 -217 c 0
 213 -225 183 -214 173 -194 c 2
 100 -42 l 1
 56 -24 l 1
 31 36 l 1
 56 96 l 1
 116 121 l 1
 134 113 l 1
 101 273 59 434 56 603 c 0
 56 634 58 665 64 695 c 0
 84 798 152 919 294 901 c 0
 298 900 303 900 307 899 c 0
 502 863 468 628 421 471 c 0
 380 333 368 187 366 40 c 1
 370 41 l 1
 430 16 l 1
 455 -44 l 1
 430 -104 l 1
 370 -129 l 1
 364 -126 l 1
 358 -134 l 2
 349 -145 333 -153 316 -153 c 0
 296 -153 277 -142 269 -126 c 1
EndSplineSet
EndChar

StartChar: braceleft.2
Encoding: 65685 -1 280
Width: 414
VWidth: 0
Flags: W
VStem: 103 100<79.8996 213.311>
LayerCount: 2
Fore
SplineSet
382 2 m 1
 357 -58 l 1
 297 -83 l 1
 237 -58 l 1
 224 -26 l 1
 142 4 103 81 103 148 c 0
 103 193 119 239 158 276 c 1
 154 278 l 1
 114 261 l 1
 54 286 l 1
 29 346 l 1
 54 406 l 1
 114 431 l 1
 149 417 l 1
 156 421 l 1
 77 504 97 636 196 696 c 0
 205 702 215 706 226 710 c 1
 240 744 l 1
 300 769 l 1
 360 744 l 1
 385 684 l 1
 360 624 l 1
 300 599 l 1
 243 623 l 1
 195 581 193 486 261 450 c 0
 284 438 290 413 275 395 c 0
 272 391 265 386 264 385 c 2
 202 348 l 1
 271 314 l 2
 294 302 301 277 286 259 c 0
 281 253 269 245 266 244 c 0
 225 228 203 191 203 148 c 0
 203 112 217 83 239 64 c 1
 297 87 l 1
 357 63 l 1
 382 2 l 1
EndSplineSet
EndChar

StartChar: three.2
Encoding: 65686 -1 281
Width: 390
VWidth: 0
Flags: W
HStem: 551 20G<134 194>
LayerCount: 2
Fore
SplineSet
221 137 m 1
 196 77 l 1
 168 65 l 1
 173 47 185 32 203 32 c 0
 218 31 253 50 259 115 c 0
 261 135 260 157 254 179 c 0
 235 251 188 310 129 346 c 0
 104 360 103 393 127 409 c 1
 86 426 l 1
 61 486 l 1
 64 494 l 1
 32 531 26 579 34 619 c 0
 48 683 112 755 219 740 c 0
 333 724 363 615 349 536 c 0
 337 470 297 410 241 372 c 1
 296 324 333 264 351 196 c 0
 359 166 362 137 359 109 c 0
 352 36 304 -55 195 -48 c 1
 110 -44 55 29 66 100 c 1
 51 137 l 1
 76 198 l 1
 136 222 l 1
 196 198 l 1
 221 137 l 1
229 490 m 1
 239 507 246 526 250 547 c 0
 262 615 224 658 201 661 c 0
 171 665 142 647 133 605 c 0
 130 591 131 578 134 566 c 1
 146 571 l 1
 206 546 l 1
 229 490 l 1
EndSplineSet
EndChar

StartChar: Xi.2
Encoding: 65687 -1 282
Width: 531
VWidth: 0
Flags: W
HStem: -63 80<207.125 345> -55 80<187 325> 466 20G<105 201 247 343> 826 20G<68 164 290.2 387>
LayerCount: 2
Fore
SplineSet
500 -26 m 1xb0
 475 -86 l 1
 415 -111 l 1
 355 -86 l 1
 345 -63 l 1xb0
 185 -55 l 1
 178 -73 l 1
 117 -97 l 1
 57 -73 l 1
 32 -12 l 1
 57 48 l 1
 117 73 l 1
 178 48 l 1
 187 25 l 1x70
 348 17 l 1
 355 34 l 1
 415 59 l 1
 475 34 l 1
 500 -26 l 1xb0
380 380 m 1
 355 320 l 1
 295 295 l 1
 235 320 l 1
 223 349 l 1
 217 350 l 1
 213 341 l 1
 153 316 l 1
 93 341 l 1
 68 401 l 1
 93 461 l 1
 153 486 l 1
 213 461 l 1
 226 431 l 1
 231 430 l 1
 235 440 l 1
 295 465 l 1
 355 440 l 1
 380 380 l 1
424 717 m 1
 399 656 l 1
 339 632 l 1
 278 656 l 1
 265 690 l 1
 179 707 l 1
 176 701 l 1
 116 676 l 1
 56 701 l 1
 31 761 l 1
 56 821 l 1
 116 846 l 1
 176 821 l 1
 190 787 l 1
 275 770 l 1
 278 777 l 1
 339 802 l 1
 399 777 l 1
 424 717 l 1
EndSplineSet
EndChar

StartChar: dieresis.2
Encoding: 65688 -1 283
Width: 434
VWidth: 0
Flags: W
HStem: 499 277
LayerCount: 2
Fore
SplineSet
401 584 m 1
 376 524 l 1
 316 499 l 1
 256 524 l 1
 231 584 l 1
 256 644 l 1
 316 669 l 1
 376 644 l 1
 401 584 l 1
203 691 m 1
 178 631 l 1
 118 606 l 1
 58 631 l 1
 33 691 l 1
 58 751 l 1
 118 776 l 1
 178 751 l 1
 203 691 l 1
EndSplineSet
EndChar

StartChar: acute.2
Encoding: 65689 -1 284
Width: 276
VWidth: 0
Flags: W
HStem: 525 234
VStem: 33 210
LayerCount: 2
Fore
SplineSet
243 674 m 1
 218 614 l 1
 202 607 l 1
 178 550 l 1
 118 525 l 1
 58 550 l 1
 33 610 l 1
 58 670 l 1
 74 677 l 1
 98 734 l 1
 158 759 l 1
 218 734 l 1
 243 674 l 1
EndSplineSet
EndChar

StartChar: endash.2
Encoding: 65690 -1 285
Width: 448
VWidth: 0
Flags: W
HStem: 189 222
LayerCount: 2
Fore
SplineSet
413 274 m 1
 389 214 l 1
 328 189 l 1
 268 214 l 1
 252 251 l 1
 181 269 l 1
 180 266 l 1
 120 241 l 1
 60 266 l 1
 35 326 l 1
 60 387 l 1
 120 411 l 1
 180 387 l 1
 195 350 l 1
 267 331 l 1
 268 334 l 1
 328 359 l 1
 389 334 l 1
 413 274 l 1
EndSplineSet
EndChar

StartChar: greater.2
Encoding: 65691 -1 286
Width: 388
VWidth: 0
Flags: W
LayerCount: 2
Fore
SplineSet
200 75 m 1
 175 15 l 1
 115 -10 l 1
 55 15 l 1
 30 75 l 1
 55 135 l 1
 115 160 l 1
 119 158 l 1
 251 335 l 1
 117 548 l 1
 61 571 l 1
 36 631 l 1
 61 691 l 1
 121 716 l 1
 181 691 l 1
 206 631 l 1
 194 603 l 1
 353 352 l 2
 361 340 359 324 351 313 c 2
 191 98 l 1
 200 75 l 1
EndSplineSet
EndChar

StartChar: parenright.2
Encoding: 65692 -1 287
Width: 346
VWidth: 0
Flags: W
VStem: 216 100<202.911 476.734>
LayerCount: 2
Fore
SplineSet
205 -9 m 1
 180 -70 l 1
 120 -94 l 1
 60 -70 l 1
 35 -9 l 1
 60 51 l 1
 120 76 l 1
 129 72 l 1
 187 151 218 249 216 350 c 0
 214 446 181 538 125 612 c 1
 114 607 l 1
 54 632 l 1
 29 692 l 1
 54 752 l 1
 114 777 l 1
 174 752 l 1
 199 692 l 1
 192 676 l 1
 270 585 313 471 316 352 c 0
 319 227 277 106 198 8 c 1
 205 -9 l 1
EndSplineSet
EndChar

StartChar: seven.2
Encoding: 65693 -1 288
Width: 355
VWidth: 0
Flags: W
VStem: 129 100<125 383.809>
LayerCount: 2
Fore
SplineSet
263 60 m 1
 238 -0 l 1
 178 -25 l 1
 118 -0 l 1
 93 60 l 1
 118 120 l 1
 129 125 l 1
 134 311 160 495 206 675 c 1
 193 671 l 1
 175 627 l 1
 115 602 l 1
 55 627 l 1
 30 687 l 1
 55 747 l 1
 115 772 l 1
 169 749 l 1
 255 779 l 2
 284 790 334 774 324 734 c 1
 267 535 235 330 229 124 c 1
 238 120 l 1
 263 60 l 1
EndSplineSet
EndChar

StartChar: Oslash.2
Encoding: 65694 -1 289
Width: 447
VWidth: 0
Flags: W
HStem: 800 20G<204 300.8>
VStem: 298 100<169.617 297>
LayerCount: 2
Fore
SplineSet
250 115 m 1
 278 150 297 222 298 297 c 1
 250 115 l 1
229 -93 m 1
 204 -154 l 1
 144 -178 l 1
 84 -154 l 1
 59 -93 l 1
 84 -33 l 1
 111 -22 l 1
 125 31 l 1
 17 88 17 230 50 344 c 0
 85 465 129 584 182 699 c 1
 167 735 l 1
 192 795 l 1
 252 820 l 1
 313 795 l 1
 324 770 l 1
 333 783 350 792 370 790 c 0
 397 788 418 769 416 747 c 0
 403 603 396 457 398 312 c 0
 400 195 373 27 223 12 c 1
 208 -44 l 1
 229 -93 l 1
294 666 m 1
 269 657 l 1
 220 550 180 440 147 327 c 0
 126 252 128 173 151 129 c 1
 294 666 l 1
EndSplineSet
EndChar

StartChar: Psi.2
Encoding: 65695 -1 290
Width: 569
VWidth: 0
Flags: W
HStem: 821 20G<119.2 216>
VStem: 70 100<231.523 345.413>
LayerCount: 2
Fore
SplineSet
538 527 m 1
 513 467 l 1
 453 442 l 1
 451 443 l 1
 431 362 409 204 300 157 c 1
 317 34 l 1
 336 26 l 1
 361 -34 l 1
 336 -94 l 1
 276 -119 l 1
 216 -94 l 1
 191 -34 l 1
 216 26 l 1
 217 26 l 1
 201 145 l 1
 96 157 70 235 70 300 c 0
 70 374 86 454 84 509 c 1
 56 521 l 1
 31 581 l 1
 56 641 l 1
 116 666 l 1
 130 660 l 1
 127 688 l 1
 107 696 l 1
 83 756 l 1
 107 816 l 1
 168 841 l 1
 228 816 l 1
 253 756 l 1
 228 696 l 1
 226 695 l 1
 287 252 l 1
 318 312 268 452 370 531 c 1
 393 587 l 1
 453 612 l 1
 513 587 l 1
 538 527 l 1
189 231 m 1
 173 346 l 1
 171 330 170 314 170 300 c 0
 170 261 174 241 189 231 c 1
EndSplineSet
EndChar

StartChar: ring.2
Encoding: 65696 -1 291
Width: 244
VWidth: 0
Flags: W
HStem: 422 248<80.9875 167.363>
VStem: 75 98<428.927 507.201>
LayerCount: 2
Fore
SplineSet
173 453 m 1
 172 448 169 443 165 439 c 0
 155 426 137 418 117 422 c 0
 112 423 107 424 103 426 c 0
 98 428 95 430 91 433 c 0
 83 439 77 445 75 453 c 1
 75 454 l 0
 65 490 -28 646 103 668 c 0
 110 669 117 670 124 670 c 0
 185 670 211 626 211 595 c 0
 211 549 185 498 173 454 c 1
 173 453 l 1
EndSplineSet
EndChar

StartChar: less.2
Encoding: 65697 -1 292
Width: 371
VWidth: 0
Flags: W
LayerCount: 2
Fore
SplineSet
323 59 m 1
 299 -1 l 1
 238 -26 l 1
 178 -1 l 1
 153 59 l 1
 166 90 l 1
 34 321 l 2
 28 331 28 344 35 355 c 2
 182 596 l 1
 171 625 l 1
 195 685 l 1
 256 710 l 1
 316 685 l 1
 341 625 l 1
 316 565 l 1
 260 542 l 1
 135 337 l 1
 247 140 l 1
 299 119 l 1
 323 59 l 1
EndSplineSet
EndChar

StartChar: bracketleft.2
Encoding: 65698 -1 293
Width: 262
VWidth: 0
Flags: W
HStem: 597 21G<138 196>
VStem: 32 100<76 601> 39 99<76 601>
LayerCount: 2
Fore
SplineSet
233 -3 m 1xc0
 208 -63 l 1
 148 -88 l 1
 87 -63 l 1
 79 -44 l 1
 55 -43 32 -27 32 -4 c 2xc0
 39 688 l 2
 39 702 55 724 82 728 c 1
 88 742 l 1
 148 767 l 1
 208 742 l 1
 233 682 l 1
 208 622 l 1
 148 597 l 1
 138 601 l 1xa0
 132 76 l 1
 148 82 l 1
 208 58 l 1
 233 -3 l 1xc0
EndSplineSet
EndChar

StartChar: emdash.2
Encoding: 65699 -1 294
Width: 675
VWidth: 0
Flags: W
HStem: 205 228
LayerCount: 2
Fore
SplineSet
641 290 m 1
 616 230 l 1
 555 205 l 1
 495 230 l 1
 483 259 l 1
 183 299 l 1
 179 288 l 1
 119 263 l 1
 59 288 l 1
 34 348 l 1
 59 408 l 1
 119 433 l 1
 179 408 l 1
 191 379 l 1
 491 340 l 1
 495 350 l 1
 555 375 l 1
 616 350 l 1
 641 290 l 1
EndSplineSet
EndChar

StartChar: f.2
Encoding: 65700 -1 295
Width: 442
VWidth: 0
Flags: W
HStem: -31 21G<67 163> 458 20G<278 374>
VStem: 55 101<284 341> 63 100<119 134 284 341>
LayerCount: 2
Fore
SplineSet
378 194 m 1xe0
 353 134 l 1
 293 109 l 1
 253 126 l 1
 238 123 222 122 206 124 c 0
 191 126 177 129 163 134 c 1
 163 119 l 1xd0
 175 114 l 1
 200 54 l 1
 175 -6 l 1
 115 -31 l 1
 55 -6 l 1
 30 54 l 1
 55 114 l 1xe0
 63 117 l 1xd0
 62 156 l 1
 38 213 l 1
 59 262 l 1
 55 376 l 2
 54 398 77 415 100 417 c 2
 255 428 l 1
 266 453 l 1
 326 478 l 1
 386 453 l 1
 411 393 l 1
 386 332 l 1
 326 308 l 1
 266 332 l 1
 259 348 l 1
 156 341 l 1
 158 284 l 1
 184 273 l 1
 208 213 l 1
 205 206 l 1
 207 205 210 205 212 204 c 1
 233 254 l 1
 293 279 l 1
 353 254 l 1
 378 194 l 1xe0
EndSplineSet
EndChar

StartChar: D.2
Encoding: 65701 -1 296
Width: 595
VWidth: 0
Flags: W
HStem: 765 20G<67 163>
LayerCount: 2
Fore
SplineSet
178 752 m 1
 332 762 472 674 531 546 c 0
 544 518 553 488 558 456 c 0
 589 261 489 66 306 -23 c 1
 286 -71 l 1
 226 -96 l 1
 166 -71 l 1
 141 -11 l 1
 166 49 l 1
 75 632 l 1
 55 640 l 1
 30 700 l 1
 55 760 l 1
 115 785 l 1
 175 760 l 1
 178 752 l 1
175 640 m 1
 266 57 l 1
 272 55 l 1
 403 129 484 283 459 446 c 0
 437 588 314 679 189 673 c 1
 175 640 l 1
EndSplineSet
EndChar

StartChar: F.2
Encoding: 65702 -1 297
Width: 453
VWidth: 0
Flags: W
HStem: 424 20G<255 347> 575 21G<289 385> 810 20G<105.5 124.5>
VStem: 67 99<132 380 533 711>
LayerCount: 2
Fore
SplineSet
384 359 m 1
 359 299 l 1
 299 274 l 1
 239 299 l 1
 218 348 l 1
 200 358 182 368 166 380 c 1
 165 132 l 1
 175 128 l 1
 200 68 l 1
 175 8 l 1
 115 -17 l 1
 55 8 l 1
 30 68 l 1
 55 128 l 1
 65 132 l 1
 67 435 l 1
 58 458 l 1
 67 481 l 1
 69 790 l 2
 69 812 92 830 119 830 c 0
 130 830 145 824 149 822 c 2
 302 731 l 1
 337 745 l 1
 397 720 l 1
 422 660 l 1
 397 600 l 1
 337 575 l 1
 277 600 l 1
 252 660 l 1
 252 661 l 1
 168 711 l 1
 167 533 l 1
 203 518 l 1
 228 458 l 1
 223 447 l 1
 233 439 244 433 255 426 c 1
 299 444 l 1
 359 419 l 1
 384 359 l 1
EndSplineSet
EndChar

StartChar: r.2
Encoding: 65703 -1 298
Width: 591
VWidth: 0
Flags: W
HStem: 476 80<236.826 353.184> 529 20G<106 185>
VStem: 419 100<250.297 406.638>
LayerCount: 2
Fore
SplineSet
182 220 m 1xa0
 220 193 l 1
 273 163 343 179 386 232 c 0
 406 256 419 289 419 328 c 0
 420 424 344 476 282 476 c 0
 267 476 252 474 237 468 c 1
 239 464 l 1
 214 404 l 1
 198 397 l 1
 182 220 l 1xa0
560 -43 m 1
 535 -103 l 1
 475 -128 l 1
 415 -103 l 1
 390 -43 l 1
 392 -37 l 1
 173 120 l 1
 171 100 l 1
 175 98 l 1
 200 38 l 1
 175 -22 l 1
 115 -47 l 1
 55 -22 l 1
 30 38 l 1
 55 98 l 1
 71 105 l 1
 98 402 l 1
 94 404 l 1
 69 464 l 1
 94 524 l 1
 154 549 l 1x60
 185 536 l 1
 216 549 249 556 283 556 c 0
 414 555 520 456 519 327 c 0
 518 218 442 133 340 107 c 1
 447 30 l 1
 475 42 l 1
 535 17 l 1
 560 -43 l 1
EndSplineSet
EndChar

